<svg width="1363" height="163" viewBox="0 0 1363 163" fill="none" xmlns="http://www.w3.org/2000/svg">
<path d="M0 15C0 6.71573 6.71573 0 15 0H37V163H15C6.71573 163 0 156.284 0 148V15Z" fill="#424242"/>
<rect width="1097" height="163" transform="translate(37)" fill="#F0F0F0"/>
<path d="M101.906 53.9219L94.3945 51.2383V48.0859L104.602 52.375V54.6367L101.906 53.9219ZM94.3945 56.1719L101.918 53.4297L104.602 52.7852V55.0352L94.3945 59.3242V56.1719ZM114.504 43.9375H117.48L121.863 56.4648L126.246 43.9375H129.223L123.059 61H120.668L114.504 43.9375ZM112.898 43.9375H115.863L116.402 56.1484V61H112.898V43.9375ZM127.863 43.9375H130.84V61H127.324V56.1484L127.863 43.9375ZM139.547 61.2344C138.562 61.2344 137.68 61.0781 136.898 60.7656C136.117 60.4453 135.453 60.0039 134.906 59.4414C134.367 58.8789 133.953 58.2266 133.664 57.4844C133.375 56.7344 133.23 55.9375 133.23 55.0938V54.625C133.23 53.6641 133.367 52.7852 133.641 51.9883C133.914 51.1914 134.305 50.5 134.812 49.9141C135.328 49.3281 135.953 48.8789 136.688 48.5664C137.422 48.2461 138.25 48.0859 139.172 48.0859C140.07 48.0859 140.867 48.2344 141.562 48.5312C142.258 48.8281 142.84 49.25 143.309 49.7969C143.785 50.3438 144.145 51 144.387 51.7656C144.629 52.5234 144.75 53.3672 144.75 54.2969V55.7031H134.672V53.4531H141.434V53.1953C141.434 52.7266 141.348 52.3086 141.176 51.9414C141.012 51.5664 140.762 51.2695 140.426 51.0508C140.09 50.832 139.66 50.7227 139.137 50.7227C138.691 50.7227 138.309 50.8203 137.988 51.0156C137.668 51.2109 137.406 51.4844 137.203 51.8359C137.008 52.1875 136.859 52.6016 136.758 53.0781C136.664 53.5469 136.617 54.0625 136.617 54.625V55.0938C136.617 55.6016 136.688 56.0703 136.828 56.5C136.977 56.9297 137.184 57.3008 137.449 57.6133C137.723 57.9258 138.051 58.168 138.434 58.3398C138.824 58.5117 139.266 58.5977 139.758 58.5977C140.367 58.5977 140.934 58.4805 141.457 58.2461C141.988 58.0039 142.445 57.6406 142.828 57.1562L144.469 58.9375C144.203 59.3203 143.84 59.6875 143.379 60.0391C142.926 60.3906 142.379 60.6797 141.738 60.9062C141.098 61.125 140.367 61.2344 139.547 61.2344ZM154.16 58.2344V43H157.559V61H154.5L154.16 58.2344ZM146.145 54.8125V54.5664C146.145 53.5977 146.254 52.7188 146.473 51.9297C146.691 51.1328 147.012 50.4492 147.434 49.8789C147.855 49.3086 148.375 48.8672 148.992 48.5547C149.609 48.2422 150.312 48.0859 151.102 48.0859C151.844 48.0859 152.492 48.2422 153.047 48.5547C153.609 48.8672 154.086 49.3125 154.477 49.8906C154.875 50.4609 155.195 51.1367 155.438 51.918C155.68 52.6914 155.855 53.5391 155.965 54.4609V55C155.855 55.8828 155.68 56.7031 155.438 57.4609C155.195 58.2188 154.875 58.8828 154.477 59.4531C154.086 60.0156 153.609 60.4531 153.047 60.7656C152.484 61.0781 151.828 61.2344 151.078 61.2344C150.289 61.2344 149.586 61.0742 148.969 60.7539C148.359 60.4336 147.844 59.9844 147.422 59.4062C147.008 58.8281 146.691 58.1484 146.473 57.3672C146.254 56.5859 146.145 55.7344 146.145 54.8125ZM149.52 54.5664V54.8125C149.52 55.3359 149.559 55.8242 149.637 56.2773C149.723 56.7305 149.859 57.1328 150.047 57.4844C150.242 57.8281 150.492 58.0977 150.797 58.293C151.109 58.4805 151.488 58.5742 151.934 58.5742C152.512 58.5742 152.988 58.4453 153.363 58.1875C153.738 57.9219 154.023 57.5586 154.219 57.0977C154.422 56.6367 154.539 56.1055 154.57 55.5039V53.9688C154.547 53.4766 154.477 53.0352 154.359 52.6445C154.25 52.2461 154.086 51.9062 153.867 51.625C153.656 51.3438 153.391 51.125 153.07 50.9688C152.758 50.8125 152.387 50.7344 151.957 50.7344C151.52 50.7344 151.145 50.8359 150.832 51.0391C150.52 51.2344 150.266 51.5039 150.07 51.8477C149.883 52.1914 149.742 52.5977 149.648 53.0664C149.562 53.5273 149.52 54.0273 149.52 54.5664ZM168.035 43.9375V61H164.531V43.9375H168.035ZM173.285 43.9375V46.6914H159.363V43.9375H173.285ZM179.812 61.2344C178.828 61.2344 177.945 61.0781 177.164 60.7656C176.383 60.4453 175.719 60.0039 175.172 59.4414C174.633 58.8789 174.219 58.2266 173.93 57.4844C173.641 56.7344 173.496 55.9375 173.496 55.0938V54.625C173.496 53.6641 173.633 52.7852 173.906 51.9883C174.18 51.1914 174.57 50.5 175.078 49.9141C175.594 49.3281 176.219 48.8789 176.953 48.5664C177.688 48.2461 178.516 48.0859 179.438 48.0859C180.336 48.0859 181.133 48.2344 181.828 48.5312C182.523 48.8281 183.105 49.25 183.574 49.7969C184.051 50.3438 184.41 51 184.652 51.7656C184.895 52.5234 185.016 53.3672 185.016 54.2969V55.7031H174.938V53.4531H181.699V53.1953C181.699 52.7266 181.613 52.3086 181.441 51.9414C181.277 51.5664 181.027 51.2695 180.691 51.0508C180.355 50.832 179.926 50.7227 179.402 50.7227C178.957 50.7227 178.574 50.8203 178.254 51.0156C177.934 51.2109 177.672 51.4844 177.469 51.8359C177.273 52.1875 177.125 52.6016 177.023 53.0781C176.93 53.5469 176.883 54.0625 176.883 54.625V55.0938C176.883 55.6016 176.953 56.0703 177.094 56.5C177.242 56.9297 177.449 57.3008 177.715 57.6133C177.988 57.9258 178.316 58.168 178.699 58.3398C179.09 58.5117 179.531 58.5977 180.023 58.5977C180.633 58.5977 181.199 58.4805 181.723 58.2461C182.254 58.0039 182.711 57.6406 183.094 57.1562L184.734 58.9375C184.469 59.3203 184.105 59.6875 183.645 60.0391C183.191 60.3906 182.645 60.6797 182.004 60.9062C181.363 61.125 180.633 61.2344 179.812 61.2344ZM192.176 58.5977C192.59 58.5977 192.957 58.5195 193.277 58.3633C193.598 58.1992 193.848 57.9727 194.027 57.6836C194.215 57.3867 194.312 57.0391 194.32 56.6406H197.496C197.488 57.5312 197.25 58.3242 196.781 59.0195C196.312 59.707 195.684 60.25 194.895 60.6484C194.105 61.0391 193.223 61.2344 192.246 61.2344C191.262 61.2344 190.402 61.0703 189.668 60.7422C188.941 60.4141 188.336 59.9609 187.852 59.3828C187.367 58.7969 187.004 58.1172 186.762 57.3438C186.52 56.5625 186.398 55.7266 186.398 54.8359V54.4961C186.398 53.5977 186.52 52.7617 186.762 51.9883C187.004 51.207 187.367 50.5273 187.852 49.9492C188.336 49.3633 188.941 48.9062 189.668 48.5781C190.395 48.25 191.246 48.0859 192.223 48.0859C193.262 48.0859 194.172 48.2852 194.953 48.6836C195.742 49.082 196.359 49.6523 196.805 50.3945C197.258 51.1289 197.488 52 197.496 53.0078H194.32C194.312 52.5859 194.223 52.2031 194.051 51.8594C193.887 51.5156 193.645 51.2422 193.324 51.0391C193.012 50.8281 192.625 50.7227 192.164 50.7227C191.672 50.7227 191.27 50.8281 190.957 51.0391C190.645 51.2422 190.402 51.5234 190.23 51.8828C190.059 52.2344 189.938 52.6367 189.867 53.0898C189.805 53.5352 189.773 54.0039 189.773 54.4961V54.8359C189.773 55.3281 189.805 55.8008 189.867 56.2539C189.93 56.707 190.047 57.1094 190.219 57.4609C190.398 57.8125 190.645 58.0898 190.957 58.293C191.27 58.4961 191.676 58.5977 192.176 58.5977ZM202.746 43V61H199.371V43H202.746ZM202.266 54.2148H201.34C201.348 53.332 201.465 52.5195 201.691 51.7773C201.918 51.0273 202.242 50.3789 202.664 49.832C203.086 49.2773 203.59 48.8477 204.176 48.543C204.77 48.2383 205.426 48.0859 206.145 48.0859C206.77 48.0859 207.336 48.1758 207.844 48.3555C208.359 48.5273 208.801 48.8086 209.168 49.1992C209.543 49.582 209.832 50.0859 210.035 50.7109C210.238 51.3359 210.34 52.0938 210.34 52.9844V61H206.941V52.9609C206.941 52.3984 206.859 51.957 206.695 51.6367C206.539 51.3086 206.309 51.0781 206.004 50.9453C205.707 50.8047 205.34 50.7344 204.902 50.7344C204.418 50.7344 204.004 50.8242 203.66 51.0039C203.324 51.1836 203.055 51.4336 202.852 51.7539C202.648 52.0664 202.5 52.4336 202.406 52.8555C202.312 53.2773 202.266 53.7305 202.266 54.2148Z" fill="#888888"/>
<path d="M110.062 92.0469L101.742 119H92.9062L105.445 84.875H111.047L110.062 92.0469ZM116.953 119L108.609 92.0469L107.531 84.875H113.203L125.812 119H116.953ZM116.625 106.273V112.625H99.1172V106.273H116.625ZM135.914 99.9219V119H128.016V93.6406H135.398L135.914 99.9219ZM143.414 93.4531L143.273 100.789C142.961 100.758 142.539 100.719 142.008 100.672C141.477 100.625 141.031 100.602 140.672 100.602C139.75 100.602 138.953 100.711 138.281 100.93C137.625 101.133 137.078 101.445 136.641 101.867C136.219 102.273 135.906 102.789 135.703 103.414C135.516 104.039 135.43 104.766 135.445 105.594L134.016 104.656C134.016 102.953 134.18 101.406 134.508 100.016C134.852 98.6094 135.336 97.3984 135.961 96.3828C136.586 95.3516 137.344 94.5625 138.234 94.0156C139.125 93.4531 140.125 93.1719 141.234 93.1719C141.625 93.1719 142.008 93.1953 142.383 93.2422C142.773 93.2891 143.117 93.3594 143.414 93.4531ZM160.242 113.188V83H168.188V119H161.062L160.242 113.188ZM144.68 106.625V106.133C144.68 104.211 144.891 102.461 145.312 100.883C145.734 99.2891 146.359 97.9219 147.188 96.7812C148.016 95.625 149.047 94.7344 150.281 94.1094C151.516 93.4844 152.938 93.1719 154.547 93.1719C155.984 93.1719 157.242 93.5078 158.32 94.1797C159.398 94.8359 160.32 95.7578 161.086 96.9453C161.852 98.1328 162.477 99.5234 162.961 101.117C163.445 102.695 163.812 104.398 164.062 106.227V106.812C163.812 108.531 163.445 110.156 162.961 111.688C162.477 113.203 161.852 114.547 161.086 115.719C160.32 116.891 159.391 117.812 158.297 118.484C157.219 119.141 155.953 119.469 154.5 119.469C152.891 119.469 151.469 119.148 150.234 118.508C149.016 117.867 147.992 116.969 147.164 115.812C146.352 114.656 145.734 113.297 145.312 111.734C144.891 110.172 144.68 108.469 144.68 106.625ZM152.578 106.133V106.625C152.578 107.578 152.641 108.461 152.766 109.273C152.891 110.086 153.102 110.805 153.398 111.43C153.711 112.039 154.117 112.516 154.617 112.859C155.133 113.203 155.766 113.375 156.516 113.375C157.531 113.375 158.367 113.133 159.023 112.648C159.695 112.164 160.188 111.477 160.5 110.586C160.828 109.695 160.969 108.648 160.922 107.445V105.594C160.953 104.562 160.883 103.656 160.711 102.875C160.539 102.078 160.266 101.414 159.891 100.883C159.531 100.352 159.07 99.9531 158.508 99.6875C157.961 99.4062 157.312 99.2656 156.562 99.2656C155.828 99.2656 155.203 99.4375 154.688 99.7812C154.188 100.125 153.781 100.609 153.469 101.234C153.156 101.844 152.93 102.57 152.789 103.414C152.648 104.242 152.578 105.148 152.578 106.133ZM187.477 112.836V93.6406H195.398V119H187.992L187.477 112.836ZM188.227 107.68L190.289 107.633C190.289 109.336 190.086 110.914 189.68 112.367C189.273 113.805 188.672 115.055 187.875 116.117C187.094 117.18 186.125 118.008 184.969 118.602C183.828 119.18 182.508 119.469 181.008 119.469C179.758 119.469 178.609 119.297 177.562 118.953C176.531 118.594 175.641 118.039 174.891 117.289C174.141 116.523 173.555 115.547 173.133 114.359C172.727 113.156 172.523 111.719 172.523 110.047V93.6406H180.422V110.094C180.422 110.656 180.492 111.141 180.633 111.547C180.773 111.953 180.977 112.297 181.242 112.578C181.508 112.844 181.836 113.047 182.227 113.188C182.633 113.312 183.094 113.375 183.609 113.375C184.797 113.375 185.727 113.125 186.398 112.625C187.07 112.125 187.539 111.445 187.805 110.586C188.086 109.727 188.227 108.758 188.227 107.68ZM208.102 93.6406V119H200.18V93.6406H208.102ZM199.711 87.1016C199.711 85.9766 200.117 85.0547 200.93 84.3359C201.742 83.6172 202.797 83.2578 204.094 83.2578C205.391 83.2578 206.445 83.6172 207.258 84.3359C208.07 85.0547 208.477 85.9766 208.477 87.1016C208.477 88.2266 208.07 89.1484 207.258 89.8672C206.445 90.5859 205.391 90.9453 204.094 90.9453C202.797 90.9453 201.742 90.5859 200.93 89.8672C200.117 89.1484 199.711 88.2266 199.711 87.1016ZM220.734 99.0547V119H212.836V93.6406H220.242L220.734 99.0547ZM219.797 105.453L217.945 105.5C217.945 103.562 218.18 101.836 218.648 100.32C219.117 98.7891 219.781 97.4922 220.641 96.4297C221.5 95.3672 222.523 94.5625 223.711 94.0156C224.914 93.4531 226.25 93.1719 227.719 93.1719C228.891 93.1719 229.961 93.3438 230.93 93.6875C231.914 94.0312 232.758 94.5859 233.461 95.3516C234.18 96.1172 234.727 97.1328 235.102 98.3984C235.492 99.6484 235.688 101.195 235.688 103.039V119H227.742V103.016C227.742 102 227.602 101.227 227.32 100.695C227.039 100.148 226.633 99.7734 226.102 99.5703C225.57 99.3672 224.922 99.2656 224.156 99.2656C223.344 99.2656 222.656 99.4219 222.094 99.7344C221.531 100.047 221.078 100.484 220.734 101.047C220.406 101.594 220.164 102.242 220.008 102.992C219.867 103.742 219.797 104.562 219.797 105.453ZM239.086 106.578V106.086C239.086 104.227 239.352 102.516 239.883 100.953C240.414 99.375 241.195 98.0078 242.227 96.8516C243.258 95.6953 244.531 94.7969 246.047 94.1562C247.562 93.5 249.312 93.1719 251.297 93.1719C253.297 93.1719 255.055 93.5 256.57 94.1562C258.102 94.7969 259.383 95.6953 260.414 96.8516C261.445 98.0078 262.227 99.375 262.758 100.953C263.289 102.516 263.555 104.227 263.555 106.086V106.578C263.555 108.422 263.289 110.133 262.758 111.711C262.227 113.273 261.445 114.641 260.414 115.812C259.383 116.969 258.109 117.867 256.594 118.508C255.078 119.148 253.328 119.469 251.344 119.469C249.359 119.469 247.602 119.148 246.07 118.508C244.539 117.867 243.258 116.969 242.227 115.812C241.195 114.641 240.414 113.273 239.883 111.711C239.352 110.133 239.086 108.422 239.086 106.578ZM246.984 106.086V106.578C246.984 107.531 247.055 108.422 247.195 109.25C247.336 110.078 247.57 110.805 247.898 111.43C248.227 112.039 248.672 112.516 249.234 112.859C249.797 113.203 250.5 113.375 251.344 113.375C252.172 113.375 252.859 113.203 253.406 112.859C253.969 112.516 254.414 112.039 254.742 111.43C255.07 110.805 255.305 110.078 255.445 109.25C255.586 108.422 255.656 107.531 255.656 106.578V106.086C255.656 105.164 255.586 104.297 255.445 103.484C255.305 102.656 255.07 101.93 254.742 101.305C254.414 100.664 253.969 100.164 253.406 99.8047C252.844 99.4453 252.141 99.2656 251.297 99.2656C250.469 99.2656 249.773 99.4453 249.211 99.8047C248.664 100.164 248.227 100.664 247.898 101.305C247.57 101.93 247.336 102.656 247.195 103.484C247.055 104.297 246.984 105.164 246.984 106.086Z" fill="black"/>
<path d="M1134 0H1348C1356.28 0 1363 6.71573 1363 15V148C1363 156.284 1356.28 163 1348 163H1134V0Z" fill="#3540D8"/>
<path d="M1271.33 59C1270.2 59 1269.05 59.0653 1267.93 59.2652C1258.43 60.6758 1252.06 67.8709 1248.5 73.3863C1244.94 67.8709 1238.57 60.6758 1229.08 59.2652C1227.95 59.0954 1226.81 59.0068 1225.67 59C1213.43 59 1203.5 69.0854 1203.5 81.5C1203.5 93.9146 1213.46 104 1225.67 104C1226.8 104 1227.95 103.935 1229.11 103.735C1238.6 102.29 1244.97 95.0984 1248.53 89.5791C1252.09 95.0984 1258.46 102.29 1267.96 103.735C1269.08 103.9 1270.23 104 1271.39 104C1283.54 104 1293.5 93.9146 1293.5 81.5C1293.5 69.0854 1283.54 59 1271.33 59ZM1227.99 95.8517C1227.21 95.9722 1226.43 96.0275 1225.64 96.017C1217.59 96.017 1211.06 89.483 1211.06 81.5C1211.06 73.4862 1217.62 66.983 1225.68 66.983C1226.46 66.983 1227.24 67.0483 1228.02 67.1483C1236.98 68.4935 1242.44 77.7872 1244.32 81.5C1242.41 85.2436 1236.92 94.5065 1227.99 95.8517ZM1271.33 96.017C1270.55 96.017 1269.77 95.9517 1268.99 95.8517C1260.03 94.5065 1254.53 85.2128 1252.69 81.5C1254.53 77.7872 1260.03 68.4935 1268.99 67.1483C1269.77 67.0483 1270.55 66.983 1271.33 66.983C1279.39 66.983 1285.92 73.517 1285.92 81.5C1285.92 89.5138 1279.36 96.017 1271.33 96.017ZM1277.52 79.0901V83.4487H1273V87.9917H1268.66V83.4487H1264.14V79.0901H1268.66V74.5432H1272.99V79.0901H1277.52ZM1219.42 83.4141H1232.83V79.0901H1219.42L1219.42 83.4141Z" fill="white"/>
</svg>
