<svg width="1363" height="163" viewBox="0 0 1363 163" fill="none" xmlns="http://www.w3.org/2000/svg">
<path d="M0 15C0 6.71573 6.71573 0 15 0H37V163H15C6.71573 163 0 156.284 0 148V15Z" fill="#424242"/>
<rect width="1097" height="163" transform="translate(37)" fill="#F0F0F0"/>
<path d="M101.906 53.9219L94.3945 51.2383V48.0859L104.602 52.375V54.6367L101.906 53.9219ZM94.3945 56.1719L101.918 53.4297L104.602 52.7852V55.0352L94.3945 59.3242V56.1719ZM114.504 43.9375H117.48L121.863 56.4648L126.246 43.9375H129.223L123.059 61H120.668L114.504 43.9375ZM112.898 43.9375H115.863L116.402 56.1484V61H112.898V43.9375ZM127.863 43.9375H130.84V61H127.324V56.1484L127.863 43.9375ZM139.547 61.2344C138.562 61.2344 137.68 61.0781 136.898 60.7656C136.117 60.4453 135.453 60.0039 134.906 59.4414C134.367 58.8789 133.953 58.2266 133.664 57.4844C133.375 56.7344 133.23 55.9375 133.23 55.0938V54.625C133.23 53.6641 133.367 52.7852 133.641 51.9883C133.914 51.1914 134.305 50.5 134.812 49.9141C135.328 49.3281 135.953 48.8789 136.688 48.5664C137.422 48.2461 138.25 48.0859 139.172 48.0859C140.07 48.0859 140.867 48.2344 141.562 48.5312C142.258 48.8281 142.84 49.25 143.309 49.7969C143.785 50.3438 144.145 51 144.387 51.7656C144.629 52.5234 144.75 53.3672 144.75 54.2969V55.7031H134.672V53.4531H141.434V53.1953C141.434 52.7266 141.348 52.3086 141.176 51.9414C141.012 51.5664 140.762 51.2695 140.426 51.0508C140.09 50.832 139.66 50.7227 139.137 50.7227C138.691 50.7227 138.309 50.8203 137.988 51.0156C137.668 51.2109 137.406 51.4844 137.203 51.8359C137.008 52.1875 136.859 52.6016 136.758 53.0781C136.664 53.5469 136.617 54.0625 136.617 54.625V55.0938C136.617 55.6016 136.688 56.0703 136.828 56.5C136.977 56.9297 137.184 57.3008 137.449 57.6133C137.723 57.9258 138.051 58.168 138.434 58.3398C138.824 58.5117 139.266 58.5977 139.758 58.5977C140.367 58.5977 140.934 58.4805 141.457 58.2461C141.988 58.0039 142.445 57.6406 142.828 57.1562L144.469 58.9375C144.203 59.3203 143.84 59.6875 143.379 60.0391C142.926 60.3906 142.379 60.6797 141.738 60.9062C141.098 61.125 140.367 61.2344 139.547 61.2344ZM154.16 58.2344V43H157.559V61H154.5L154.16 58.2344ZM146.145 54.8125V54.5664C146.145 53.5977 146.254 52.7188 146.473 51.9297C146.691 51.1328 147.012 50.4492 147.434 49.8789C147.855 49.3086 148.375 48.8672 148.992 48.5547C149.609 48.2422 150.312 48.0859 151.102 48.0859C151.844 48.0859 152.492 48.2422 153.047 48.5547C153.609 48.8672 154.086 49.3125 154.477 49.8906C154.875 50.4609 155.195 51.1367 155.438 51.918C155.68 52.6914 155.855 53.5391 155.965 54.4609V55C155.855 55.8828 155.68 56.7031 155.438 57.4609C155.195 58.2188 154.875 58.8828 154.477 59.4531C154.086 60.0156 153.609 60.4531 153.047 60.7656C152.484 61.0781 151.828 61.2344 151.078 61.2344C150.289 61.2344 149.586 61.0742 148.969 60.7539C148.359 60.4336 147.844 59.9844 147.422 59.4062C147.008 58.8281 146.691 58.1484 146.473 57.3672C146.254 56.5859 146.145 55.7344 146.145 54.8125ZM149.52 54.5664V54.8125C149.52 55.3359 149.559 55.8242 149.637 56.2773C149.723 56.7305 149.859 57.1328 150.047 57.4844C150.242 57.8281 150.492 58.0977 150.797 58.293C151.109 58.4805 151.488 58.5742 151.934 58.5742C152.512 58.5742 152.988 58.4453 153.363 58.1875C153.738 57.9219 154.023 57.5586 154.219 57.0977C154.422 56.6367 154.539 56.1055 154.57 55.5039V53.9688C154.547 53.4766 154.477 53.0352 154.359 52.6445C154.25 52.2461 154.086 51.9062 153.867 51.625C153.656 51.3438 153.391 51.125 153.07 50.9688C152.758 50.8125 152.387 50.7344 151.957 50.7344C151.52 50.7344 151.145 50.8359 150.832 51.0391C150.52 51.2344 150.266 51.5039 150.07 51.8477C149.883 52.1914 149.742 52.5977 149.648 53.0664C149.562 53.5273 149.52 54.0273 149.52 54.5664ZM168.035 43.9375V61H164.531V43.9375H168.035ZM173.285 43.9375V46.6914H159.363V43.9375H173.285ZM179.812 61.2344C178.828 61.2344 177.945 61.0781 177.164 60.7656C176.383 60.4453 175.719 60.0039 175.172 59.4414C174.633 58.8789 174.219 58.2266 173.93 57.4844C173.641 56.7344 173.496 55.9375 173.496 55.0938V54.625C173.496 53.6641 173.633 52.7852 173.906 51.9883C174.18 51.1914 174.57 50.5 175.078 49.9141C175.594 49.3281 176.219 48.8789 176.953 48.5664C177.688 48.2461 178.516 48.0859 179.438 48.0859C180.336 48.0859 181.133 48.2344 181.828 48.5312C182.523 48.8281 183.105 49.25 183.574 49.7969C184.051 50.3438 184.41 51 184.652 51.7656C184.895 52.5234 185.016 53.3672 185.016 54.2969V55.7031H174.938V53.4531H181.699V53.1953C181.699 52.7266 181.613 52.3086 181.441 51.9414C181.277 51.5664 181.027 51.2695 180.691 51.0508C180.355 50.832 179.926 50.7227 179.402 50.7227C178.957 50.7227 178.574 50.8203 178.254 51.0156C177.934 51.2109 177.672 51.4844 177.469 51.8359C177.273 52.1875 177.125 52.6016 177.023 53.0781C176.93 53.5469 176.883 54.0625 176.883 54.625V55.0938C176.883 55.6016 176.953 56.0703 177.094 56.5C177.242 56.9297 177.449 57.3008 177.715 57.6133C177.988 57.9258 178.316 58.168 178.699 58.3398C179.09 58.5117 179.531 58.5977 180.023 58.5977C180.633 58.5977 181.199 58.4805 181.723 58.2461C182.254 58.0039 182.711 57.6406 183.094 57.1562L184.734 58.9375C184.469 59.3203 184.105 59.6875 183.645 60.0391C183.191 60.3906 182.645 60.6797 182.004 60.9062C181.363 61.125 180.633 61.2344 179.812 61.2344ZM192.176 58.5977C192.59 58.5977 192.957 58.5195 193.277 58.3633C193.598 58.1992 193.848 57.9727 194.027 57.6836C194.215 57.3867 194.312 57.0391 194.32 56.6406H197.496C197.488 57.5312 197.25 58.3242 196.781 59.0195C196.312 59.707 195.684 60.25 194.895 60.6484C194.105 61.0391 193.223 61.2344 192.246 61.2344C191.262 61.2344 190.402 61.0703 189.668 60.7422C188.941 60.4141 188.336 59.9609 187.852 59.3828C187.367 58.7969 187.004 58.1172 186.762 57.3438C186.52 56.5625 186.398 55.7266 186.398 54.8359V54.4961C186.398 53.5977 186.52 52.7617 186.762 51.9883C187.004 51.207 187.367 50.5273 187.852 49.9492C188.336 49.3633 188.941 48.9062 189.668 48.5781C190.395 48.25 191.246 48.0859 192.223 48.0859C193.262 48.0859 194.172 48.2852 194.953 48.6836C195.742 49.082 196.359 49.6523 196.805 50.3945C197.258 51.1289 197.488 52 197.496 53.0078H194.32C194.312 52.5859 194.223 52.2031 194.051 51.8594C193.887 51.5156 193.645 51.2422 193.324 51.0391C193.012 50.8281 192.625 50.7227 192.164 50.7227C191.672 50.7227 191.27 50.8281 190.957 51.0391C190.645 51.2422 190.402 51.5234 190.23 51.8828C190.059 52.2344 189.938 52.6367 189.867 53.0898C189.805 53.5352 189.773 54.0039 189.773 54.4961V54.8359C189.773 55.3281 189.805 55.8008 189.867 56.2539C189.93 56.707 190.047 57.1094 190.219 57.4609C190.398 57.8125 190.645 58.0898 190.957 58.293C191.27 58.4961 191.676 58.5977 192.176 58.5977ZM202.746 43V61H199.371V43H202.746ZM202.266 54.2148H201.34C201.348 53.332 201.465 52.5195 201.691 51.7773C201.918 51.0273 202.242 50.3789 202.664 49.832C203.086 49.2773 203.59 48.8477 204.176 48.543C204.77 48.2383 205.426 48.0859 206.145 48.0859C206.77 48.0859 207.336 48.1758 207.844 48.3555C208.359 48.5273 208.801 48.8086 209.168 49.1992C209.543 49.582 209.832 50.0859 210.035 50.7109C210.238 51.3359 210.34 52.0938 210.34 52.9844V61H206.941V52.9609C206.941 52.3984 206.859 51.957 206.695 51.6367C206.539 51.3086 206.309 51.0781 206.004 50.9453C205.707 50.8047 205.34 50.7344 204.902 50.7344C204.418 50.7344 204.004 50.8242 203.66 51.0039C203.324 51.1836 203.055 51.4336 202.852 51.7539C202.648 52.0664 202.5 52.4336 202.406 52.8555C202.312 53.2773 202.266 53.7305 202.266 54.2148Z" fill="#888888"/>
<path d="M124.477 101.258V102.641C124.477 105.25 124.109 107.594 123.375 109.672C122.656 111.734 121.633 113.5 120.305 114.969C118.977 116.422 117.406 117.539 115.594 118.32C113.781 119.086 111.781 119.469 109.594 119.469C107.391 119.469 105.375 119.086 103.547 118.32C101.734 117.539 100.156 116.422 98.8125 114.969C97.4844 113.5 96.4531 111.734 95.7188 109.672C95 107.594 94.6406 105.25 94.6406 102.641V101.258C94.6406 98.6484 95 96.3047 95.7188 94.2266C96.4531 92.1484 97.4766 90.3828 98.7891 88.9297C100.117 87.4609 101.688 86.3438 103.5 85.5781C105.328 84.7969 107.344 84.4062 109.547 84.4062C111.734 84.4062 113.734 84.7969 115.547 85.5781C117.375 86.3438 118.953 87.4609 120.281 88.9297C121.609 90.3828 122.641 92.1484 123.375 94.2266C124.109 96.3047 124.477 98.6484 124.477 101.258ZM116.133 102.641V101.211C116.133 99.5234 115.984 98.0391 115.688 96.7578C115.406 95.4609 114.984 94.375 114.422 93.5C113.859 92.625 113.164 91.9688 112.336 91.5312C111.523 91.0781 110.594 90.8516 109.547 90.8516C108.453 90.8516 107.5 91.0781 106.688 91.5312C105.875 91.9688 105.195 92.625 104.648 93.5C104.102 94.375 103.688 95.4609 103.406 96.7578C103.141 98.0391 103.008 99.5234 103.008 101.211V102.641C103.008 104.312 103.141 105.797 103.406 107.094C103.688 108.375 104.102 109.461 104.648 110.352C105.211 111.242 105.898 111.914 106.711 112.367C107.539 112.82 108.5 113.047 109.594 113.047C110.641 113.047 111.57 112.82 112.383 112.367C113.195 111.914 113.875 111.242 114.422 110.352C114.984 109.461 115.406 108.375 115.688 107.094C115.984 105.797 116.133 104.312 116.133 102.641ZM136.336 98.5156V128.75H128.438V93.6406H135.797L136.336 98.5156ZM151.898 106.016V106.508C151.898 108.352 151.688 110.062 151.266 111.641C150.844 113.219 150.219 114.594 149.391 115.766C148.562 116.938 147.531 117.852 146.297 118.508C145.078 119.148 143.664 119.469 142.055 119.469C140.539 119.469 139.234 119.133 138.141 118.461C137.047 117.789 136.133 116.859 135.398 115.672C134.664 114.484 134.07 113.125 133.617 111.594C133.164 110.062 132.805 108.445 132.539 106.742V106.109C132.805 104.281 133.164 102.586 133.617 101.023C134.07 99.4453 134.664 98.0703 135.398 96.8984C136.133 95.7266 137.039 94.8125 138.117 94.1562C139.211 93.5 140.516 93.1719 142.031 93.1719C143.641 93.1719 145.055 93.4766 146.273 94.0859C147.508 94.6953 148.539 95.5703 149.367 96.7109C150.211 97.8359 150.844 99.1875 151.266 100.766C151.688 102.344 151.898 104.094 151.898 106.016ZM144 106.508V106.016C144 105.031 143.93 104.133 143.789 103.32C143.648 102.492 143.422 101.773 143.109 101.164C142.812 100.555 142.414 100.086 141.914 99.7578C141.414 99.4297 140.797 99.2656 140.062 99.2656C139.219 99.2656 138.508 99.3984 137.93 99.6641C137.367 99.9141 136.914 100.305 136.57 100.836C136.242 101.352 136.008 102 135.867 102.781C135.742 103.547 135.688 104.445 135.703 105.477V107.398C135.672 108.586 135.789 109.633 136.055 110.539C136.32 111.43 136.781 112.125 137.438 112.625C138.094 113.125 138.984 113.375 140.109 113.375C140.859 113.375 141.484 113.203 141.984 112.859C142.484 112.5 142.883 112.008 143.18 111.383C143.477 110.742 143.688 110.008 143.812 109.18C143.938 108.352 144 107.461 144 106.508ZM167.695 119.469C165.633 119.469 163.789 119.148 162.164 118.508C160.539 117.852 159.164 116.953 158.039 115.812C156.93 114.672 156.078 113.359 155.484 111.875C154.906 110.391 154.617 108.82 154.617 107.164V106.273C154.617 104.414 154.875 102.695 155.391 101.117C155.906 99.5234 156.672 98.1328 157.688 96.9453C158.703 95.7578 159.977 94.8359 161.508 94.1797C163.039 93.5078 164.82 93.1719 166.852 93.1719C168.648 93.1719 170.258 93.4609 171.68 94.0391C173.102 94.6172 174.305 95.4453 175.289 96.5234C176.289 97.6016 177.047 98.9062 177.562 100.438C178.094 101.969 178.359 103.688 178.359 105.594V108.805H157.641V103.859H170.648V103.25C170.664 102.406 170.516 101.688 170.203 101.094C169.906 100.5 169.469 100.047 168.891 99.7344C168.312 99.4219 167.609 99.2656 166.781 99.2656C165.922 99.2656 165.211 99.4531 164.648 99.8281C164.102 100.203 163.672 100.719 163.359 101.375C163.062 102.016 162.852 102.758 162.727 103.602C162.602 104.445 162.539 105.336 162.539 106.273V107.164C162.539 108.102 162.664 108.953 162.914 109.719C163.18 110.484 163.555 111.141 164.039 111.688C164.539 112.219 165.133 112.633 165.82 112.93C166.523 113.227 167.32 113.375 168.211 113.375C169.289 113.375 170.352 113.172 171.398 112.766C172.445 112.359 173.344 111.688 174.094 110.75L177.68 115.016C177.164 115.75 176.43 116.461 175.477 117.148C174.539 117.836 173.414 118.398 172.102 118.836C170.789 119.258 169.32 119.469 167.695 119.469ZM189.328 99.0547V119H181.43V93.6406H188.836L189.328 99.0547ZM188.391 105.453L186.539 105.5C186.539 103.562 186.773 101.836 187.242 100.32C187.711 98.7891 188.375 97.4922 189.234 96.4297C190.094 95.3672 191.117 94.5625 192.305 94.0156C193.508 93.4531 194.844 93.1719 196.312 93.1719C197.484 93.1719 198.555 93.3438 199.523 93.6875C200.508 94.0312 201.352 94.5859 202.055 95.3516C202.773 96.1172 203.32 97.1328 203.695 98.3984C204.086 99.6484 204.281 101.195 204.281 103.039V119H196.336V103.016C196.336 102 196.195 101.227 195.914 100.695C195.633 100.148 195.227 99.7734 194.695 99.5703C194.164 99.3672 193.516 99.2656 192.75 99.2656C191.938 99.2656 191.25 99.4219 190.688 99.7344C190.125 100.047 189.672 100.484 189.328 101.047C189 101.594 188.758 102.242 188.602 102.992C188.461 103.742 188.391 104.562 188.391 105.453ZM223.5 92.0469L215.18 119H206.344L218.883 84.875H224.484L223.5 92.0469ZM230.391 119L222.047 92.0469L220.969 84.875H226.641L239.25 119H230.391ZM230.062 106.273V112.625H212.555V106.273H230.062ZM250.5 84.875V119H242.297V84.875H250.5Z" fill="black"/>
<path d="M1134 0H1348C1356.28 0 1363 6.71573 1363 15V148C1363 156.284 1356.28 163 1348 163H1134V0Z" fill="#3540D8"/>
<path d="M1244.94 53.4992C1247.25 53.4992 1249.39 54.2202 1251.14 55.4453C1246.54 57.8008 1242.31 60.7654 1237.82 63.3135L1241.38 69.3757C1246.99 66.1906 1252.24 62.2005 1258.32 59.9044C1260.02 59.2674 1261.86 59.067 1263.66 59.3221C1265.46 59.5772 1267.16 60.2793 1268.61 61.3622C1270.05 62.445 1271.19 63.8727 1271.92 65.5102C1272.65 67.1476 1272.94 68.9407 1272.77 70.7197C1268.39 67.9791 1263.67 65.8581 1259.18 63.3135L1255.62 69.3757C1261.23 72.5607 1267.38 75.0388 1272.43 79.0709C1273.84 80.1987 1274.94 81.6614 1275.61 83.3207C1276.29 84.98 1276.52 86.781 1276.29 88.5535C1276.06 90.3259 1275.37 92.0111 1274.29 93.4496C1273.21 94.8882 1271.78 96.0325 1270.13 96.7744C1270.36 91.6783 1269.86 86.5926 1269.86 81.5H1262.74C1262.74 87.8632 1263.63 94.3384 1262.61 100.667C1262.32 102.431 1261.58 104.094 1260.45 105.498C1259.33 106.902 1257.86 108 1256.18 108.689C1254.5 109.379 1252.67 109.636 1250.87 109.437C1249.06 109.238 1247.34 108.589 1245.86 107.551C1250.46 105.196 1254.69 102.231 1259.18 99.6865L1255.62 93.6243C1250.01 96.8094 1244.75 100.8 1238.67 103.096C1236.97 103.733 1235.14 103.933 1233.34 103.678C1231.54 103.423 1229.84 102.721 1228.39 101.638C1226.94 100.555 1225.8 99.1273 1225.07 97.4898C1224.35 95.8524 1224.05 94.0593 1224.23 92.2803C1228.61 95.0174 1233.33 97.1384 1237.82 99.6865L1241.38 93.6243C1235.77 90.4393 1229.62 87.9612 1224.56 83.9291C1223.15 82.8011 1222.05 81.3381 1221.38 79.6786C1220.71 78.0192 1220.47 76.218 1220.71 74.4455C1220.94 72.6731 1221.62 70.9879 1222.7 69.5496C1223.78 68.1112 1225.22 66.9671 1226.87 66.2256C1226.64 71.3217 1227.14 76.4074 1227.14 81.5H1234.26C1234.26 75.1368 1233.37 68.6581 1234.39 62.3335C1234.79 59.8687 1236.08 57.6259 1238.01 56.007C1239.94 54.3881 1242.4 53.4991 1244.94 53.4992ZM1258.44 52.5962C1256.38 50.2406 1253.72 48.466 1250.74 47.4544C1247.75 46.4429 1244.54 46.2308 1241.45 46.8401C1238.35 47.4493 1235.47 48.8579 1233.11 50.9212C1230.75 52.9845 1228.99 55.6284 1228.01 58.5814C1224.9 59.1565 1222.01 60.5333 1219.63 62.5707C1217.24 64.608 1215.45 67.2324 1214.44 70.1746C1213.43 73.1167 1213.23 76.2707 1213.87 79.3128C1214.5 82.3548 1215.95 85.1755 1218.06 87.4852C1217.02 90.4163 1216.78 93.5683 1217.39 96.6177C1217.99 99.667 1219.41 102.504 1221.49 104.837C1223.58 107.17 1226.26 108.915 1229.26 109.894C1232.26 110.872 1235.47 111.048 1238.56 110.404C1240.62 112.759 1243.28 114.534 1246.26 115.546C1249.25 116.557 1252.46 116.769 1255.55 116.16C1258.65 115.551 1261.53 114.142 1263.89 112.079C1266.25 110.015 1268.01 107.372 1268.99 104.419C1272.1 103.844 1274.99 102.467 1277.37 100.429C1279.76 98.392 1281.55 95.7676 1282.56 92.8254C1283.57 89.8833 1283.77 86.7293 1283.13 83.6872C1282.5 80.6452 1281.05 77.8245 1278.94 75.5148C1279.98 72.5837 1280.22 69.4317 1279.61 66.3823C1279.01 63.333 1277.59 60.4962 1275.51 58.1631C1273.42 55.8301 1270.74 54.0848 1267.74 53.1065C1264.74 52.1282 1261.53 51.952 1258.44 52.5962Z" fill="white"/>
</svg>
