<svg width="1363" height="297" viewBox="0 0 1363 297" fill="none" xmlns="http://www.w3.org/2000/svg">
<path d="M0 15C0 6.71573 6.71573 0 15 0H37V297H15C6.71573 297 0 290.284 0 282V15Z" fill="#3540D8"/>
<path d="M37 0H1066V297H37V0Z" fill="#F0F0F0"/>
<path d="M105.691 53.7832L98.7305 75H93.123L102.633 49.4062H106.201L105.691 53.7832ZM111.475 75L104.496 53.7832L103.934 49.4062H107.537L117.1 75H111.475ZM111.158 65.4727V69.6035H97.6406V65.4727H111.158ZM130.389 70.8516V48H135.486V75H130.898L130.389 70.8516ZM118.365 65.7188V65.3496C118.365 63.8965 118.529 62.5781 118.857 61.3945C119.186 60.1992 119.666 59.1738 120.299 58.3184C120.932 57.4629 121.711 56.8008 122.637 56.332C123.562 55.8633 124.617 55.6289 125.801 55.6289C126.914 55.6289 127.887 55.8633 128.719 56.332C129.562 56.8008 130.277 57.4688 130.863 58.3359C131.461 59.1914 131.941 60.2051 132.305 61.377C132.668 62.5371 132.932 63.8086 133.096 65.1914V66C132.932 67.3242 132.668 68.5547 132.305 69.6914C131.941 70.8281 131.461 71.8242 130.863 72.6797C130.277 73.5234 129.562 74.1797 128.719 74.6484C127.875 75.1172 126.891 75.3516 125.766 75.3516C124.582 75.3516 123.527 75.1113 122.602 74.6309C121.688 74.1504 120.914 73.4766 120.281 72.6094C119.66 71.7422 119.186 70.7227 118.857 69.5508C118.529 68.3789 118.365 67.1016 118.365 65.7188ZM123.428 65.3496V65.7188C123.428 66.5039 123.486 67.2363 123.604 67.916C123.732 68.5957 123.938 69.1992 124.219 69.7266C124.512 70.2422 124.887 70.6465 125.344 70.9395C125.812 71.2207 126.381 71.3613 127.049 71.3613C127.916 71.3613 128.631 71.168 129.193 70.7812C129.756 70.3828 130.184 69.8379 130.477 69.1465C130.781 68.4551 130.957 67.6582 131.004 66.7559V64.4531C130.969 63.7148 130.863 63.0527 130.688 62.4668C130.523 61.8691 130.277 61.3594 129.949 60.9375C129.633 60.5156 129.234 60.1875 128.754 59.9531C128.285 59.7188 127.729 59.6016 127.084 59.6016C126.428 59.6016 125.865 59.7539 125.396 60.0586C124.928 60.3516 124.547 60.7559 124.254 61.2715C123.973 61.7871 123.762 62.3965 123.621 63.0996C123.492 63.791 123.428 64.541 123.428 65.3496ZM149.707 70.7109V62.2383C149.707 61.6289 149.607 61.1074 149.408 60.6738C149.209 60.2285 148.898 59.8828 148.477 59.6367C148.066 59.3906 147.533 59.2676 146.877 59.2676C146.314 59.2676 145.828 59.3672 145.418 59.5664C145.008 59.7539 144.691 60.0293 144.469 60.3926C144.246 60.7441 144.135 61.1602 144.135 61.6406H139.072C139.072 60.832 139.26 60.0645 139.635 59.3379C140.01 58.6113 140.555 57.9727 141.27 57.4219C141.984 56.8594 142.834 56.4199 143.818 56.1035C144.814 55.7871 145.928 55.6289 147.158 55.6289C148.635 55.6289 149.947 55.875 151.096 56.3672C152.244 56.8594 153.146 57.5977 153.803 58.582C154.471 59.5664 154.805 60.7969 154.805 62.2734V70.4121C154.805 71.4551 154.869 72.3105 154.998 72.9785C155.127 73.6348 155.314 74.209 155.561 74.7012V75H150.445C150.199 74.4844 150.012 73.8398 149.883 73.0664C149.766 72.2812 149.707 71.4961 149.707 70.7109ZM150.375 63.416L150.41 66.2812H147.58C146.912 66.2812 146.332 66.3574 145.84 66.5098C145.348 66.6621 144.943 66.8789 144.627 67.1602C144.311 67.4297 144.076 67.7461 143.924 68.1094C143.783 68.4727 143.713 68.8711 143.713 69.3047C143.713 69.7383 143.812 70.1309 144.012 70.4824C144.211 70.8223 144.498 71.0918 144.873 71.291C145.248 71.4785 145.688 71.5723 146.191 71.5723C146.953 71.5723 147.615 71.4199 148.178 71.1152C148.74 70.8105 149.174 70.4355 149.479 69.9902C149.795 69.5449 149.959 69.123 149.971 68.7246L151.307 70.8691C151.119 71.3496 150.861 71.8477 150.533 72.3633C150.217 72.8789 149.812 73.3652 149.32 73.8223C148.828 74.2676 148.236 74.6367 147.545 74.9297C146.854 75.2109 146.033 75.3516 145.084 75.3516C143.877 75.3516 142.781 75.1113 141.797 74.6309C140.824 74.1387 140.051 73.4648 139.477 72.6094C138.914 71.7422 138.633 70.7578 138.633 69.6562C138.633 68.6602 138.82 67.7754 139.195 67.002C139.57 66.2285 140.121 65.5781 140.848 65.0508C141.586 64.5117 142.506 64.1074 143.607 63.8379C144.709 63.5566 145.986 63.416 147.439 63.416H150.375ZM163.77 59.918V75H158.689V55.9805H163.453L163.77 59.918ZM163.066 64.8223H161.66C161.66 63.498 161.818 62.2793 162.135 61.166C162.463 60.041 162.938 59.0684 163.559 58.248C164.191 57.416 164.971 56.7715 165.896 56.3145C166.822 55.8574 167.895 55.6289 169.113 55.6289C169.957 55.6289 170.73 55.7578 171.434 56.0156C172.137 56.2617 172.74 56.6543 173.244 57.1934C173.76 57.7207 174.158 58.4121 174.439 59.2676C174.721 60.1113 174.861 61.125 174.861 62.3086V75H169.799V62.8711C169.799 62.0039 169.682 61.3359 169.447 60.8672C169.213 60.3984 168.879 60.0703 168.445 59.8828C168.023 59.6953 167.514 59.6016 166.916 59.6016C166.26 59.6016 165.686 59.7363 165.193 60.0059C164.713 60.2754 164.314 60.6504 163.998 61.1309C163.682 61.5996 163.447 62.1504 163.295 62.7832C163.143 63.416 163.066 64.0957 163.066 64.8223ZM174.387 64.2422L172.576 64.4707C172.576 63.2285 172.729 62.0742 173.033 61.0078C173.35 59.9414 173.812 59.0039 174.422 58.1953C175.043 57.3867 175.811 56.7598 176.725 56.3145C177.639 55.8574 178.693 55.6289 179.889 55.6289C180.803 55.6289 181.635 55.7637 182.385 56.0332C183.135 56.291 183.773 56.707 184.301 57.2812C184.84 57.8438 185.25 58.582 185.531 59.4961C185.824 60.4102 185.971 61.5293 185.971 62.8535V75H180.891V62.8535C180.891 61.9746 180.773 61.3066 180.539 60.8496C180.316 60.3809 179.988 60.0586 179.555 59.8828C179.133 59.6953 178.629 59.6016 178.043 59.6016C177.434 59.6016 176.9 59.7246 176.443 59.9707C175.986 60.2051 175.605 60.5332 175.301 60.9551C174.996 61.377 174.768 61.8691 174.615 62.4316C174.463 62.9824 174.387 63.5859 174.387 64.2422ZM216.24 59.8301V63.9434H202.881V59.8301H216.24ZM204.445 49.4062V75H199.172V49.4062H204.445ZM220.002 49.4062V75H214.746V49.4062H220.002ZM234.539 70.7109V62.2383C234.539 61.6289 234.439 61.1074 234.24 60.6738C234.041 60.2285 233.73 59.8828 233.309 59.6367C232.898 59.3906 232.365 59.2676 231.709 59.2676C231.146 59.2676 230.66 59.3672 230.25 59.5664C229.84 59.7539 229.523 60.0293 229.301 60.3926C229.078 60.7441 228.967 61.1602 228.967 61.6406H223.904C223.904 60.832 224.092 60.0645 224.467 59.3379C224.842 58.6113 225.387 57.9727 226.102 57.4219C226.816 56.8594 227.666 56.4199 228.65 56.1035C229.646 55.7871 230.76 55.6289 231.99 55.6289C233.467 55.6289 234.779 55.875 235.928 56.3672C237.076 56.8594 237.979 57.5977 238.635 58.582C239.303 59.5664 239.637 60.7969 239.637 62.2734V70.4121C239.637 71.4551 239.701 72.3105 239.83 72.9785C239.959 73.6348 240.146 74.209 240.393 74.7012V75H235.277C235.031 74.4844 234.844 73.8398 234.715 73.0664C234.598 72.2812 234.539 71.4961 234.539 70.7109ZM235.207 63.416L235.242 66.2812H232.412C231.744 66.2812 231.164 66.3574 230.672 66.5098C230.18 66.6621 229.775 66.8789 229.459 67.1602C229.143 67.4297 228.908 67.7461 228.756 68.1094C228.615 68.4727 228.545 68.8711 228.545 69.3047C228.545 69.7383 228.645 70.1309 228.844 70.4824C229.043 70.8223 229.33 71.0918 229.705 71.291C230.08 71.4785 230.52 71.5723 231.023 71.5723C231.785 71.5723 232.447 71.4199 233.01 71.1152C233.572 70.8105 234.006 70.4355 234.311 69.9902C234.627 69.5449 234.791 69.123 234.803 68.7246L236.139 70.8691C235.951 71.3496 235.693 71.8477 235.365 72.3633C235.049 72.8789 234.645 73.3652 234.152 73.8223C233.66 74.2676 233.068 74.6367 232.377 74.9297C231.686 75.2109 230.865 75.3516 229.916 75.3516C228.709 75.3516 227.613 75.1113 226.629 74.6309C225.656 74.1387 224.883 73.4648 224.309 72.6094C223.746 71.7422 223.465 70.7578 223.465 69.6562C223.465 68.6602 223.652 67.7754 224.027 67.002C224.402 66.2285 224.953 65.5781 225.68 65.0508C226.418 64.5117 227.338 64.1074 228.439 63.8379C229.541 63.5566 230.818 63.416 232.271 63.416H235.207ZM248.9 72.8555L253.945 55.9805H259.377L251.73 77.8652C251.566 78.3457 251.344 78.8613 251.062 79.4121C250.793 79.9629 250.424 80.4844 249.955 80.9766C249.498 81.4805 248.918 81.8906 248.215 82.207C247.523 82.5234 246.674 82.6816 245.666 82.6816C245.186 82.6816 244.793 82.6523 244.488 82.5938C244.184 82.5352 243.82 82.4531 243.398 82.3477V78.6387C243.527 78.6387 243.662 78.6387 243.803 78.6387C243.943 78.6504 244.078 78.6562 244.207 78.6562C244.875 78.6562 245.42 78.5801 245.842 78.4277C246.264 78.2754 246.604 78.041 246.861 77.7246C247.119 77.4199 247.324 77.0215 247.477 76.5293L248.9 72.8555ZM246.791 55.9805L250.922 69.7617L251.643 75.123L248.197 75.4922L241.359 55.9805H246.791ZM269.906 75.3516C268.43 75.3516 267.105 75.1172 265.934 74.6484C264.762 74.168 263.766 73.5059 262.945 72.6621C262.137 71.8184 261.516 70.8398 261.082 69.7266C260.648 68.6016 260.432 67.4062 260.432 66.1406V65.4375C260.432 63.9961 260.637 62.6777 261.047 61.4824C261.457 60.2871 262.043 59.25 262.805 58.3711C263.578 57.4922 264.516 56.8184 265.617 56.3496C266.719 55.8691 267.961 55.6289 269.344 55.6289C270.691 55.6289 271.887 55.8516 272.93 56.2969C273.973 56.7422 274.846 57.375 275.549 58.1953C276.264 59.0156 276.803 60 277.166 61.1484C277.529 62.2852 277.711 63.5508 277.711 64.9453V67.0547H262.594V63.6797H272.736V63.293C272.736 62.5898 272.607 61.9629 272.35 61.4121C272.104 60.8496 271.729 60.4043 271.225 60.0762C270.721 59.748 270.076 59.584 269.291 59.584C268.623 59.584 268.049 59.7305 267.568 60.0234C267.088 60.3164 266.695 60.7266 266.391 61.2539C266.098 61.7812 265.875 62.4023 265.723 63.1172C265.582 63.8203 265.512 64.5938 265.512 65.4375V66.1406C265.512 66.9023 265.617 67.6055 265.828 68.25C266.051 68.8945 266.361 69.4512 266.76 69.9199C267.17 70.3887 267.662 70.752 268.236 71.0098C268.822 71.2676 269.484 71.3965 270.223 71.3965C271.137 71.3965 271.986 71.2207 272.771 70.8691C273.568 70.5059 274.254 69.9609 274.828 69.2344L277.289 71.9062C276.891 72.4805 276.346 73.0312 275.654 73.5586C274.975 74.0859 274.154 74.5195 273.193 74.8594C272.232 75.1875 271.137 75.3516 269.906 75.3516ZM285.656 47.9824V75H280.594V47.9824H285.656ZM297.645 55.9805L289.383 65.4023L284.953 69.8848L283.107 66.2285L286.623 61.7637L291.562 55.9805H297.645ZM292.389 75L286.764 66.2109L290.262 63.1523L298.225 75H292.389Z" fill="#888888"/>
<path d="M100.793 100.188H108.613L117.5 127.887L126.387 100.188H134.207L120.672 140H114.328L100.793 100.188ZM96.0352 100.188H104.129L105.633 130.703V140H96.0352V100.188ZM130.871 100.188H138.992V140H129.367V130.703L130.871 100.188ZM159.035 140.547C156.629 140.547 154.478 140.173 152.582 139.426C150.686 138.66 149.082 137.612 147.77 136.281C146.475 134.951 145.482 133.419 144.789 131.688C144.115 129.956 143.777 128.124 143.777 126.191V125.152C143.777 122.983 144.078 120.978 144.68 119.137C145.281 117.277 146.174 115.655 147.359 114.27C148.544 112.884 150.03 111.809 151.816 111.043C153.603 110.259 155.681 109.867 158.051 109.867C160.147 109.867 162.025 110.204 163.684 110.879C165.342 111.553 166.746 112.52 167.895 113.777C169.061 115.035 169.945 116.557 170.547 118.344C171.167 120.13 171.477 122.135 171.477 124.359V128.105H147.305V122.336H162.48V121.625C162.499 120.641 162.326 119.802 161.961 119.109C161.615 118.417 161.104 117.888 160.43 117.523C159.755 117.159 158.935 116.977 157.969 116.977C156.966 116.977 156.137 117.195 155.48 117.633C154.842 118.07 154.341 118.672 153.977 119.438C153.63 120.185 153.384 121.051 153.238 122.035C153.092 123.02 153.02 124.059 153.02 125.152V126.191C153.02 127.285 153.165 128.279 153.457 129.172C153.767 130.065 154.204 130.831 154.77 131.469C155.353 132.089 156.046 132.572 156.848 132.918C157.668 133.264 158.598 133.438 159.637 133.438C160.895 133.438 162.134 133.201 163.355 132.727C164.577 132.253 165.625 131.469 166.5 130.375L170.684 135.352C170.082 136.208 169.225 137.038 168.113 137.84C167.02 138.642 165.707 139.298 164.176 139.809C162.645 140.301 160.931 140.547 159.035 140.547ZM192.23 133.219V98H201.5V140H193.188L192.23 133.219ZM174.074 125.562V124.988C174.074 122.746 174.32 120.704 174.812 118.863C175.305 117.004 176.034 115.409 177 114.078C177.966 112.729 179.169 111.69 180.609 110.961C182.049 110.232 183.708 109.867 185.586 109.867C187.263 109.867 188.73 110.259 189.988 111.043C191.246 111.809 192.322 112.884 193.215 114.27C194.108 115.655 194.837 117.277 195.402 119.137C195.967 120.978 196.396 122.965 196.688 125.098V125.781C196.396 127.786 195.967 129.682 195.402 131.469C194.837 133.237 194.108 134.805 193.215 136.172C192.322 137.539 191.237 138.615 189.961 139.398C188.703 140.164 187.227 140.547 185.531 140.547C183.654 140.547 181.995 140.173 180.555 139.426C179.133 138.678 177.939 137.63 176.973 136.281C176.025 134.932 175.305 133.346 174.812 131.523C174.32 129.701 174.074 127.714 174.074 125.562ZM183.289 124.988V125.562C183.289 126.674 183.362 127.704 183.508 128.652C183.654 129.6 183.9 130.439 184.246 131.168C184.611 131.879 185.085 132.435 185.668 132.836C186.27 133.237 187.008 133.438 187.883 133.438C189.068 133.438 190.043 133.155 190.809 132.59C191.592 132.025 192.167 131.223 192.531 130.184C192.914 129.145 193.078 127.923 193.023 126.52V124.359C193.06 123.156 192.978 122.099 192.777 121.188C192.577 120.258 192.258 119.483 191.82 118.863C191.401 118.243 190.863 117.779 190.207 117.469C189.569 117.141 188.812 116.977 187.938 116.977C187.081 116.977 186.352 117.177 185.75 117.578C185.167 117.979 184.693 118.544 184.328 119.273C183.964 119.984 183.699 120.832 183.535 121.816C183.371 122.783 183.289 123.84 183.289 124.988ZM226.438 100.188V140H216.84V100.188H226.438ZM238.414 100.188V107.598H205.137V100.188H238.414ZM253.918 140.547C251.512 140.547 249.361 140.173 247.465 139.426C245.569 138.66 243.965 137.612 242.652 136.281C241.358 134.951 240.365 133.419 239.672 131.688C238.997 129.956 238.66 128.124 238.66 126.191V125.152C238.66 122.983 238.961 120.978 239.562 119.137C240.164 117.277 241.057 115.655 242.242 114.27C243.427 112.884 244.913 111.809 246.699 111.043C248.486 110.259 250.564 109.867 252.934 109.867C255.03 109.867 256.908 110.204 258.566 110.879C260.225 111.553 261.629 112.52 262.777 113.777C263.944 115.035 264.828 116.557 265.43 118.344C266.049 120.13 266.359 122.135 266.359 124.359V128.105H242.188V122.336H257.363V121.625C257.382 120.641 257.208 119.802 256.844 119.109C256.497 118.417 255.987 117.888 255.312 117.523C254.638 117.159 253.818 116.977 252.852 116.977C251.849 116.977 251.02 117.195 250.363 117.633C249.725 118.07 249.224 118.672 248.859 119.438C248.513 120.185 248.267 121.051 248.121 122.035C247.975 123.02 247.902 124.059 247.902 125.152V126.191C247.902 127.285 248.048 128.279 248.34 129.172C248.65 130.065 249.087 130.831 249.652 131.469C250.236 132.089 250.928 132.572 251.73 132.918C252.551 133.264 253.48 133.438 254.52 133.438C255.777 133.438 257.017 133.201 258.238 132.727C259.46 132.253 260.508 131.469 261.383 130.375L265.566 135.352C264.965 136.208 264.108 137.038 262.996 137.84C261.902 138.642 260.59 139.298 259.059 139.809C257.527 140.301 255.814 140.547 253.918 140.547ZM282.602 133.438C283.458 133.438 284.188 133.283 284.789 132.973C285.409 132.645 285.874 132.189 286.184 131.605C286.512 131.004 286.667 130.284 286.648 129.445H295.316C295.335 131.669 294.788 133.62 293.676 135.297C292.582 136.956 291.087 138.25 289.191 139.18C287.314 140.091 285.19 140.547 282.82 140.547C280.505 140.547 278.482 140.173 276.75 139.426C275.018 138.66 273.569 137.603 272.402 136.254C271.254 134.887 270.388 133.292 269.805 131.469C269.24 129.646 268.957 127.668 268.957 125.535V124.906C268.957 122.773 269.24 120.796 269.805 118.973C270.388 117.132 271.254 115.536 272.402 114.188C273.569 112.82 275.009 111.763 276.723 111.016C278.454 110.25 280.469 109.867 282.766 109.867C285.227 109.867 287.396 110.332 289.273 111.262C291.169 112.191 292.655 113.54 293.73 115.309C294.806 117.077 295.335 119.219 295.316 121.734H286.648C286.667 120.841 286.53 120.039 286.238 119.328C285.947 118.617 285.491 118.052 284.871 117.633C284.27 117.195 283.495 116.977 282.547 116.977C281.599 116.977 280.833 117.186 280.25 117.605C279.667 118.025 279.22 118.608 278.91 119.355C278.618 120.085 278.418 120.923 278.309 121.871C278.217 122.819 278.172 123.831 278.172 124.906V125.535C278.172 126.629 278.217 127.659 278.309 128.625C278.418 129.573 278.628 130.411 278.938 131.141C279.247 131.852 279.694 132.417 280.277 132.836C280.861 133.237 281.635 133.438 282.602 133.438ZM308.277 98V140H299.062V98H308.277ZM307.184 124.195L305.023 124.25C305.023 122.172 305.279 120.258 305.789 118.508C306.299 116.758 307.029 115.236 307.977 113.941C308.924 112.647 310.064 111.645 311.395 110.934C312.725 110.223 314.202 109.867 315.824 109.867C317.283 109.867 318.613 110.077 319.816 110.496C321.038 110.915 322.086 111.59 322.961 112.52C323.854 113.449 324.538 114.661 325.012 116.156C325.504 117.651 325.75 119.474 325.75 121.625V140H316.48V121.57C316.48 120.367 316.307 119.438 315.961 118.781C315.633 118.107 315.159 117.642 314.539 117.387C313.919 117.113 313.163 116.977 312.27 116.977C311.194 116.977 310.319 117.159 309.645 117.523C308.97 117.888 308.451 118.398 308.086 119.055C307.74 119.693 307.503 120.449 307.375 121.324C307.247 122.199 307.184 123.156 307.184 124.195Z" fill="black"/>
<rect x="93" y="178" width="917" height="77" rx="10" fill="#D3D3D3"/>
<rect x="111" y="196" width="91" height="41" rx="3" fill="#424242"/>
<path d="M134.141 210.203H139.177C140.161 210.203 141.017 210.35 141.743 210.643C142.47 210.936 143.029 211.369 143.422 211.943C143.82 212.518 144.02 213.227 144.02 214.07C144.02 214.803 143.905 215.415 143.677 215.907C143.448 216.399 143.129 216.807 142.719 217.129C142.314 217.445 141.843 217.706 141.304 217.911L140.293 218.482H136.065L136.048 216.101H139.177C139.569 216.101 139.895 216.03 140.152 215.89C140.41 215.749 140.604 215.55 140.732 215.292C140.867 215.028 140.935 214.715 140.935 214.352C140.935 213.982 140.867 213.666 140.732 213.402C140.598 213.139 140.398 212.937 140.135 212.796C139.877 212.655 139.558 212.585 139.177 212.585H137.226V223H134.141V210.203ZM141.146 223L138.315 217.34L141.585 217.322L144.45 222.868V223H141.146ZM150.348 223.176C149.574 223.176 148.883 223.056 148.273 222.815C147.664 222.569 147.148 222.232 146.727 221.805C146.311 221.377 145.991 220.885 145.769 220.328C145.552 219.771 145.443 219.183 145.443 218.562V218.228C145.443 217.53 145.54 216.886 145.733 216.294C145.927 215.696 146.214 215.175 146.595 214.729C146.976 214.284 147.453 213.938 148.027 213.692C148.602 213.44 149.27 213.314 150.031 213.314C150.705 213.314 151.309 213.423 151.842 213.64C152.375 213.856 152.826 214.167 153.195 214.571C153.57 214.976 153.854 215.465 154.048 216.039C154.247 216.613 154.347 217.258 154.347 217.973V219.177H146.577V217.322H151.455V217.094C151.461 216.777 151.405 216.508 151.288 216.285C151.177 216.062 151.013 215.893 150.796 215.775C150.579 215.658 150.315 215.6 150.005 215.6C149.683 215.6 149.416 215.67 149.205 215.811C149 215.951 148.839 216.145 148.722 216.391C148.61 216.631 148.531 216.909 148.484 217.226C148.438 217.542 148.414 217.876 148.414 218.228V218.562C148.414 218.913 148.461 219.232 148.555 219.52C148.654 219.807 148.795 220.053 148.977 220.258C149.164 220.457 149.387 220.612 149.645 220.724C149.908 220.835 150.207 220.891 150.541 220.891C150.945 220.891 151.344 220.814 151.736 220.662C152.129 220.51 152.466 220.258 152.747 219.906L154.092 221.506C153.898 221.781 153.623 222.048 153.266 222.306C152.914 222.563 152.492 222.774 152 222.938C151.508 223.097 150.957 223.176 150.348 223.176ZM160.49 220.609V216.689C160.49 216.42 160.452 216.188 160.376 215.995C160.3 215.802 160.18 215.652 160.016 215.547C159.852 215.436 159.632 215.38 159.356 215.38C159.134 215.38 158.943 215.418 158.785 215.494C158.627 215.57 158.507 215.685 158.425 215.837C158.343 215.989 158.302 216.183 158.302 216.417H155.34C155.34 215.978 155.437 215.57 155.63 215.195C155.829 214.814 156.11 214.483 156.474 214.202C156.843 213.921 157.282 213.704 157.792 213.552C158.308 213.394 158.882 213.314 159.515 213.314C160.271 213.314 160.944 213.44 161.536 213.692C162.134 213.944 162.605 214.322 162.951 214.826C163.297 215.324 163.47 215.951 163.47 216.707V220.601C163.47 221.222 163.505 221.693 163.575 222.016C163.646 222.332 163.745 222.61 163.874 222.851V223H160.903C160.763 222.707 160.657 222.35 160.587 221.928C160.522 221.5 160.49 221.061 160.49 220.609ZM160.851 217.19L160.868 218.772H159.559C159.283 218.772 159.049 218.811 158.855 218.887C158.668 218.963 158.516 219.068 158.398 219.203C158.287 219.332 158.205 219.479 158.152 219.643C158.105 219.807 158.082 219.979 158.082 220.161C158.082 220.337 158.123 220.495 158.205 220.636C158.293 220.771 158.41 220.876 158.557 220.952C158.703 221.028 158.867 221.066 159.049 221.066C159.377 221.066 159.655 221.005 159.884 220.882C160.118 220.753 160.297 220.598 160.42 220.416C160.543 220.234 160.604 220.064 160.604 219.906L161.255 221.119C161.138 221.354 161.003 221.591 160.851 221.831C160.704 222.071 160.52 222.294 160.297 222.499C160.08 222.698 159.813 222.862 159.497 222.991C159.181 223.114 158.797 223.176 158.346 223.176C157.76 223.176 157.221 223.056 156.729 222.815C156.242 222.575 155.853 222.241 155.56 221.813C155.267 221.38 155.12 220.882 155.12 220.319C155.12 219.827 155.208 219.388 155.384 219.001C155.565 218.614 155.838 218.286 156.201 218.017C156.564 217.747 157.027 217.542 157.59 217.401C158.152 217.261 158.814 217.19 159.576 217.19H160.851ZM169.13 220.891C169.405 220.891 169.64 220.841 169.833 220.741C170.032 220.636 170.182 220.489 170.281 220.302C170.387 220.108 170.437 219.877 170.431 219.607H173.217C173.223 220.322 173.047 220.949 172.689 221.488C172.338 222.021 171.857 222.438 171.248 222.736C170.645 223.029 169.962 223.176 169.2 223.176C168.456 223.176 167.806 223.056 167.249 222.815C166.692 222.569 166.227 222.229 165.852 221.796C165.482 221.356 165.204 220.844 165.017 220.258C164.835 219.672 164.744 219.036 164.744 218.351V218.148C164.744 217.463 164.835 216.827 165.017 216.241C165.204 215.649 165.482 215.137 165.852 214.703C166.227 214.264 166.689 213.924 167.24 213.684C167.797 213.438 168.444 213.314 169.183 213.314C169.974 213.314 170.671 213.464 171.274 213.763C171.884 214.062 172.361 214.495 172.707 215.063C173.053 215.632 173.223 216.32 173.217 217.129H170.431C170.437 216.842 170.393 216.584 170.299 216.355C170.205 216.127 170.059 215.945 169.859 215.811C169.666 215.67 169.417 215.6 169.112 215.6C168.808 215.6 168.562 215.667 168.374 215.802C168.187 215.937 168.043 216.124 167.943 216.364C167.85 216.599 167.785 216.868 167.75 217.173C167.721 217.478 167.706 217.803 167.706 218.148V218.351C167.706 218.702 167.721 219.033 167.75 219.344C167.785 219.648 167.853 219.918 167.952 220.152C168.052 220.381 168.195 220.562 168.383 220.697C168.57 220.826 168.819 220.891 169.13 220.891ZM179.492 213.49V215.547H173.762V213.49H179.492ZM174.966 211.126H177.928V219.897C177.928 220.149 177.957 220.346 178.016 220.486C178.074 220.621 178.174 220.718 178.314 220.776C178.461 220.829 178.654 220.855 178.895 220.855C179.064 220.855 179.205 220.853 179.316 220.847C179.428 220.835 179.533 220.82 179.633 220.803V222.921C179.381 223.003 179.117 223.064 178.842 223.105C178.566 223.152 178.273 223.176 177.963 223.176C177.33 223.176 176.788 223.076 176.337 222.877C175.892 222.678 175.552 222.364 175.317 221.937C175.083 221.509 174.966 220.952 174.966 220.267V211.126Z" fill="white"/>
<rect x="111" y="196" width="91" height="41" rx="3" stroke="#424242" stroke-width="4"/>
<rect x="222" y="196" width="104" height="41" rx="3" fill="#424242"/>
<path d="M253.812 220.627V223H247.343V220.627H253.812ZM248.441 210.203V223H245.356V210.203H248.441ZM259.911 220.609V216.689C259.911 216.42 259.873 216.188 259.797 215.995C259.721 215.802 259.601 215.652 259.437 215.547C259.272 215.436 259.053 215.38 258.777 215.38C258.555 215.38 258.364 215.418 258.206 215.494C258.048 215.57 257.928 215.685 257.846 215.837C257.764 215.989 257.723 216.183 257.723 216.417H254.761C254.761 215.978 254.857 215.57 255.051 215.195C255.25 214.814 255.531 214.483 255.895 214.202C256.264 213.921 256.703 213.704 257.213 213.552C257.729 213.394 258.303 213.314 258.936 213.314C259.691 213.314 260.365 213.44 260.957 213.692C261.555 213.944 262.026 214.322 262.372 214.826C262.718 215.324 262.891 215.951 262.891 216.707V220.601C262.891 221.222 262.926 221.693 262.996 222.016C263.066 222.332 263.166 222.61 263.295 222.851V223H260.324C260.184 222.707 260.078 222.35 260.008 221.928C259.943 221.5 259.911 221.061 259.911 220.609ZM260.271 217.19L260.289 218.772H258.979C258.704 218.772 258.47 218.811 258.276 218.887C258.089 218.963 257.937 219.068 257.819 219.203C257.708 219.332 257.626 219.479 257.573 219.643C257.526 219.807 257.503 219.979 257.503 220.161C257.503 220.337 257.544 220.495 257.626 220.636C257.714 220.771 257.831 220.876 257.978 220.952C258.124 221.028 258.288 221.066 258.47 221.066C258.798 221.066 259.076 221.005 259.305 220.882C259.539 220.753 259.718 220.598 259.841 220.416C259.964 220.234 260.025 220.064 260.025 219.906L260.676 221.119C260.559 221.354 260.424 221.591 260.271 221.831C260.125 222.071 259.94 222.294 259.718 222.499C259.501 222.698 259.234 222.862 258.918 222.991C258.602 223.114 258.218 223.176 257.767 223.176C257.181 223.176 256.642 223.056 256.149 222.815C255.663 222.575 255.273 222.241 254.98 221.813C254.688 221.38 254.541 220.882 254.541 220.319C254.541 219.827 254.629 219.388 254.805 219.001C254.986 218.614 255.259 218.286 255.622 218.017C255.985 217.747 256.448 217.542 257.011 217.401C257.573 217.261 258.235 217.19 258.997 217.19H260.271ZM267.522 215.846V223H264.561V213.49H267.329L267.522 215.846ZM270.335 213.42L270.282 216.171C270.165 216.159 270.007 216.145 269.808 216.127C269.608 216.109 269.441 216.101 269.307 216.101C268.961 216.101 268.662 216.142 268.41 216.224C268.164 216.3 267.959 216.417 267.795 216.575C267.637 216.728 267.52 216.921 267.443 217.155C267.373 217.39 267.341 217.662 267.347 217.973L266.811 217.621C266.811 216.982 266.872 216.402 266.995 215.881C267.124 215.354 267.306 214.899 267.54 214.519C267.774 214.132 268.059 213.836 268.393 213.631C268.727 213.42 269.102 213.314 269.518 213.314C269.664 213.314 269.808 213.323 269.948 213.341C270.095 213.358 270.224 213.385 270.335 213.42ZM276.03 220.609V216.689C276.03 216.42 275.992 216.188 275.916 215.995C275.84 215.802 275.72 215.652 275.556 215.547C275.392 215.436 275.172 215.38 274.896 215.38C274.674 215.38 274.483 215.418 274.325 215.494C274.167 215.57 274.047 215.685 273.965 215.837C273.883 215.989 273.842 216.183 273.842 216.417H270.88C270.88 215.978 270.977 215.57 271.17 215.195C271.369 214.814 271.65 214.483 272.014 214.202C272.383 213.921 272.822 213.704 273.332 213.552C273.848 213.394 274.422 213.314 275.055 213.314C275.811 213.314 276.484 213.44 277.076 213.692C277.674 213.944 278.146 214.322 278.491 214.826C278.837 215.324 279.01 215.951 279.01 216.707V220.601C279.01 221.222 279.045 221.693 279.115 222.016C279.186 222.332 279.285 222.61 279.414 222.851V223H276.443C276.303 222.707 276.197 222.35 276.127 221.928C276.062 221.5 276.03 221.061 276.03 220.609ZM276.391 217.19L276.408 218.772H275.099C274.823 218.772 274.589 218.811 274.396 218.887C274.208 218.963 274.056 219.068 273.938 219.203C273.827 219.332 273.745 219.479 273.692 219.643C273.646 219.807 273.622 219.979 273.622 220.161C273.622 220.337 273.663 220.495 273.745 220.636C273.833 220.771 273.95 220.876 274.097 220.952C274.243 221.028 274.407 221.066 274.589 221.066C274.917 221.066 275.195 221.005 275.424 220.882C275.658 220.753 275.837 220.598 275.96 220.416C276.083 220.234 276.145 220.064 276.145 219.906L276.795 221.119C276.678 221.354 276.543 221.591 276.391 221.831C276.244 222.071 276.06 222.294 275.837 222.499C275.62 222.698 275.354 222.862 275.037 222.991C274.721 223.114 274.337 223.176 273.886 223.176C273.3 223.176 272.761 223.056 272.269 222.815C271.782 222.575 271.393 222.241 271.1 221.813C270.807 221.38 270.66 220.882 270.66 220.319C270.66 219.827 270.748 219.388 270.924 219.001C271.105 218.614 271.378 218.286 271.741 218.017C272.104 217.747 272.567 217.542 273.13 217.401C273.692 217.261 274.354 217.19 275.116 217.19H276.391ZM283.94 220.97L285.812 213.49H288.933L285.821 223H283.976L283.94 220.97ZM282.833 213.49L284.679 220.97L284.661 223H282.807L279.704 213.49H282.833ZM294.294 223.176C293.521 223.176 292.829 223.056 292.22 222.815C291.61 222.569 291.095 222.232 290.673 221.805C290.257 221.377 289.938 220.885 289.715 220.328C289.498 219.771 289.39 219.183 289.39 218.562V218.228C289.39 217.53 289.486 216.886 289.68 216.294C289.873 215.696 290.16 215.175 290.541 214.729C290.922 214.284 291.399 213.938 291.974 213.692C292.548 213.44 293.216 213.314 293.978 213.314C294.651 213.314 295.255 213.423 295.788 213.64C296.321 213.856 296.772 214.167 297.142 214.571C297.517 214.976 297.801 215.465 297.994 216.039C298.193 216.613 298.293 217.258 298.293 217.973V219.177H290.523V217.322H295.401V217.094C295.407 216.777 295.352 216.508 295.234 216.285C295.123 216.062 294.959 215.893 294.742 215.775C294.525 215.658 294.262 215.6 293.951 215.6C293.629 215.6 293.362 215.67 293.151 215.811C292.946 215.951 292.785 216.145 292.668 216.391C292.557 216.631 292.478 216.909 292.431 217.226C292.384 217.542 292.36 217.876 292.36 218.228V218.562C292.36 218.913 292.407 219.232 292.501 219.52C292.601 219.807 292.741 220.053 292.923 220.258C293.11 220.457 293.333 220.612 293.591 220.724C293.854 220.835 294.153 220.891 294.487 220.891C294.892 220.891 295.29 220.814 295.683 220.662C296.075 220.51 296.412 220.258 296.693 219.906L298.038 221.506C297.845 221.781 297.569 222.048 297.212 222.306C296.86 222.563 296.438 222.774 295.946 222.938C295.454 223.097 294.903 223.176 294.294 223.176ZM302.626 209.5V223H299.655V209.5H302.626Z" fill="white"/>
<rect x="222" y="196" width="104" height="41" rx="3" stroke="#424242" stroke-width="4"/>
<rect x="346" y="196" width="102" height="41" rx="3" fill="#424242"/>
<path d="M374.166 218.658H370.984V216.276H374.166C374.6 216.276 374.951 216.203 375.221 216.057C375.49 215.91 375.687 215.708 375.81 215.45C375.938 215.187 376.003 214.891 376.003 214.562C376.003 214.211 375.938 213.886 375.81 213.587C375.687 213.288 375.49 213.048 375.221 212.866C374.951 212.679 374.6 212.585 374.166 212.585H372.145V223H369.06V210.203H374.166C375.191 210.203 376.073 210.391 376.812 210.766C377.556 211.141 378.127 211.656 378.525 212.312C378.924 212.963 379.123 213.707 379.123 214.545C379.123 215.371 378.924 216.092 378.525 216.707C378.127 217.322 377.556 217.803 376.812 218.148C376.073 218.488 375.191 218.658 374.166 218.658ZM383.702 221.884L386.163 213.49H389.345L385.521 224.415C385.439 224.655 385.331 224.913 385.196 225.188C385.062 225.47 384.877 225.736 384.643 225.988C384.408 226.24 384.106 226.445 383.737 226.604C383.374 226.762 382.923 226.841 382.384 226.841C382.097 226.841 381.886 226.826 381.751 226.797C381.622 226.773 381.423 226.729 381.153 226.665V224.547C381.229 224.547 381.294 224.547 381.347 224.547C381.405 224.547 381.47 224.547 381.54 224.547C381.856 224.547 382.108 224.515 382.296 224.45C382.489 224.386 382.636 224.292 382.735 224.169C382.841 224.046 382.923 223.896 382.981 223.721L383.702 221.884ZM383.078 213.49L384.95 220.144L385.275 223.281H383.289L379.905 213.49H383.078ZM395.128 213.49V215.547H389.397V213.49H395.128ZM390.602 211.126H393.563V219.897C393.563 220.149 393.593 220.346 393.651 220.486C393.71 220.621 393.81 220.718 393.95 220.776C394.097 220.829 394.29 220.855 394.53 220.855C394.7 220.855 394.841 220.853 394.952 220.847C395.063 220.835 395.169 220.82 395.269 220.803V222.921C395.017 223.003 394.753 223.064 394.478 223.105C394.202 223.152 393.909 223.176 393.599 223.176C392.966 223.176 392.424 223.076 391.973 222.877C391.527 222.678 391.188 222.364 390.953 221.937C390.719 221.509 390.602 220.952 390.602 220.267V211.126ZM399.206 209.5V223H396.244V209.5H399.206ZM398.854 217.92L398.16 217.938C398.16 217.27 398.242 216.654 398.406 216.092C398.57 215.529 398.805 215.04 399.109 214.624C399.414 214.208 399.78 213.886 400.208 213.657C400.636 213.429 401.11 213.314 401.632 213.314C402.101 213.314 402.528 213.382 402.915 213.517C403.308 213.651 403.645 213.868 403.926 214.167C404.213 214.466 404.433 214.855 404.585 215.336C404.743 215.816 404.822 216.402 404.822 217.094V223H401.843V217.076C401.843 216.689 401.787 216.391 401.676 216.18C401.57 215.963 401.418 215.813 401.219 215.731C401.02 215.644 400.776 215.6 400.489 215.6C400.144 215.6 399.862 215.658 399.646 215.775C399.429 215.893 399.262 216.057 399.145 216.268C399.033 216.473 398.957 216.716 398.916 216.997C398.875 217.278 398.854 217.586 398.854 217.92ZM406.097 218.342V218.157C406.097 217.46 406.196 216.818 406.396 216.232C406.595 215.641 406.888 215.128 407.274 214.694C407.661 214.261 408.139 213.924 408.707 213.684C409.275 213.438 409.932 213.314 410.676 213.314C411.426 213.314 412.085 213.438 412.653 213.684C413.228 213.924 413.708 214.261 414.095 214.694C414.481 215.128 414.774 215.641 414.974 216.232C415.173 216.818 415.272 217.46 415.272 218.157V218.342C415.272 219.033 415.173 219.675 414.974 220.267C414.774 220.853 414.481 221.365 414.095 221.805C413.708 222.238 413.23 222.575 412.662 222.815C412.094 223.056 411.438 223.176 410.693 223.176C409.949 223.176 409.29 223.056 408.716 222.815C408.142 222.575 407.661 222.238 407.274 221.805C406.888 221.365 406.595 220.853 406.396 220.267C406.196 219.675 406.097 219.033 406.097 218.342ZM409.059 218.157V218.342C409.059 218.699 409.085 219.033 409.138 219.344C409.19 219.654 409.278 219.927 409.401 220.161C409.524 220.39 409.691 220.568 409.902 220.697C410.113 220.826 410.377 220.891 410.693 220.891C411.004 220.891 411.262 220.826 411.467 220.697C411.678 220.568 411.845 220.39 411.968 220.161C412.091 219.927 412.179 219.654 412.231 219.344C412.284 219.033 412.311 218.699 412.311 218.342V218.157C412.311 217.812 412.284 217.486 412.231 217.182C412.179 216.871 412.091 216.599 411.968 216.364C411.845 216.124 411.678 215.937 411.467 215.802C411.256 215.667 410.992 215.6 410.676 215.6C410.365 215.6 410.104 215.667 409.894 215.802C409.688 215.937 409.524 216.124 409.401 216.364C409.278 216.599 409.19 216.871 409.138 217.182C409.085 217.486 409.059 217.812 409.059 218.157ZM419.5 215.521V223H416.538V213.49H419.315L419.5 215.521ZM419.148 217.92L418.454 217.938C418.454 217.211 418.542 216.563 418.718 215.995C418.894 215.421 419.143 214.935 419.465 214.536C419.787 214.138 420.171 213.836 420.616 213.631C421.067 213.42 421.568 213.314 422.119 213.314C422.559 213.314 422.96 213.379 423.323 213.508C423.692 213.637 424.009 213.845 424.272 214.132C424.542 214.419 424.747 214.8 424.888 215.274C425.034 215.743 425.107 216.323 425.107 217.015V223H422.128V217.006C422.128 216.625 422.075 216.335 421.97 216.136C421.864 215.931 421.712 215.79 421.513 215.714C421.313 215.638 421.07 215.6 420.783 215.6C420.479 215.6 420.221 215.658 420.01 215.775C419.799 215.893 419.629 216.057 419.5 216.268C419.377 216.473 419.286 216.716 419.228 216.997C419.175 217.278 419.148 217.586 419.148 217.92Z" fill="white"/>
<rect x="346" y="196" width="102" height="41" rx="3" stroke="#424242" stroke-width="4"/>
<rect x="468" y="196" width="139" height="41" rx="3" fill="#424242"/>
<path d="M497.316 210.203V223H494.231V210.203H497.316ZM501.166 210.203V212.585H490.47V210.203H501.166ZM506.149 223.176C505.376 223.176 504.685 223.056 504.075 222.815C503.466 222.569 502.95 222.232 502.528 221.805C502.112 221.377 501.793 220.885 501.57 220.328C501.354 219.771 501.245 219.183 501.245 218.562V218.228C501.245 217.53 501.342 216.886 501.535 216.294C501.729 215.696 502.016 215.175 502.396 214.729C502.777 214.284 503.255 213.938 503.829 213.692C504.403 213.44 505.071 213.314 505.833 213.314C506.507 213.314 507.11 213.423 507.644 213.64C508.177 213.856 508.628 214.167 508.997 214.571C509.372 214.976 509.656 215.465 509.85 216.039C510.049 216.613 510.148 217.258 510.148 217.973V219.177H502.379V217.322H507.257V217.094C507.263 216.777 507.207 216.508 507.09 216.285C506.979 216.062 506.814 215.893 506.598 215.775C506.381 215.658 506.117 215.6 505.807 215.6C505.484 215.6 505.218 215.67 505.007 215.811C504.802 215.951 504.641 216.145 504.523 216.391C504.412 216.631 504.333 216.909 504.286 217.226C504.239 217.542 504.216 217.876 504.216 218.228V218.562C504.216 218.913 504.263 219.232 504.356 219.52C504.456 219.807 504.597 220.053 504.778 220.258C504.966 220.457 505.188 220.612 505.446 220.724C505.71 220.835 506.009 220.891 506.343 220.891C506.747 220.891 507.146 220.814 507.538 220.662C507.931 220.51 508.268 220.258 508.549 219.906L509.894 221.506C509.7 221.781 509.425 222.048 509.067 222.306C508.716 222.563 508.294 222.774 507.802 222.938C507.31 223.097 506.759 223.176 506.149 223.176ZM514.262 215.521V223H511.3V213.49H514.077L514.262 215.521ZM513.91 217.92L513.216 217.938C513.216 217.211 513.304 216.563 513.479 215.995C513.655 215.421 513.904 214.935 514.227 214.536C514.549 214.138 514.933 213.836 515.378 213.631C515.829 213.42 516.33 213.314 516.881 213.314C517.32 213.314 517.722 213.379 518.085 213.508C518.454 213.637 518.771 213.845 519.034 214.132C519.304 214.419 519.509 214.8 519.649 215.274C519.796 215.743 519.869 216.323 519.869 217.015V223H516.89V217.006C516.89 216.625 516.837 216.335 516.731 216.136C516.626 215.931 516.474 215.79 516.274 215.714C516.075 215.638 515.832 215.6 515.545 215.6C515.24 215.6 514.982 215.658 514.771 215.775C514.561 215.893 514.391 216.057 514.262 216.268C514.139 216.473 514.048 216.716 513.989 216.997C513.937 217.278 513.91 217.586 513.91 217.92ZM526.496 220.328C526.496 220.164 526.44 220.023 526.329 219.906C526.224 219.783 526.036 219.672 525.767 219.572C525.497 219.467 525.119 219.361 524.633 219.256C524.17 219.156 523.733 219.024 523.323 218.86C522.919 218.696 522.564 218.497 522.26 218.263C521.955 218.028 521.715 217.75 521.539 217.428C521.369 217.105 521.284 216.736 521.284 216.32C521.284 215.916 521.369 215.535 521.539 215.178C521.715 214.814 521.97 214.495 522.304 214.22C522.644 213.938 523.057 213.719 523.543 213.561C524.029 213.396 524.583 213.314 525.204 213.314C526.06 213.314 526.798 213.446 527.419 213.71C528.04 213.968 528.518 214.331 528.852 214.8C529.191 215.263 529.361 215.799 529.361 216.408H526.399C526.399 216.168 526.358 215.963 526.276 215.793C526.2 215.623 526.074 215.494 525.898 215.406C525.723 215.312 525.488 215.266 525.195 215.266C524.99 215.266 524.803 215.304 524.633 215.38C524.469 215.456 524.337 215.562 524.237 215.696C524.138 215.831 524.088 215.989 524.088 216.171C524.088 216.3 524.117 216.417 524.176 216.522C524.24 216.622 524.337 216.716 524.466 216.804C524.595 216.886 524.759 216.962 524.958 217.032C525.157 217.097 525.397 217.155 525.679 217.208C526.317 217.325 526.915 217.492 527.472 217.709C528.028 217.926 528.479 218.233 528.825 218.632C529.177 219.03 529.353 219.566 529.353 220.24C529.353 220.662 529.256 221.052 529.062 221.409C528.869 221.761 528.591 222.071 528.228 222.341C527.864 222.604 527.428 222.81 526.918 222.956C526.408 223.103 525.834 223.176 525.195 223.176C524.287 223.176 523.52 223.015 522.893 222.692C522.266 222.364 521.791 221.954 521.469 221.462C521.152 220.964 520.994 220.46 520.994 219.95H523.754C523.766 220.243 523.836 220.483 523.965 220.671C524.1 220.858 524.278 220.996 524.501 221.084C524.724 221.172 524.981 221.216 525.274 221.216C525.544 221.216 525.767 221.178 525.942 221.102C526.124 221.025 526.262 220.923 526.355 220.794C526.449 220.659 526.496 220.504 526.496 220.328ZM530.372 218.342V218.157C530.372 217.46 530.472 216.818 530.671 216.232C530.87 215.641 531.163 215.128 531.55 214.694C531.937 214.261 532.414 213.924 532.982 213.684C533.551 213.438 534.207 213.314 534.951 213.314C535.701 213.314 536.36 213.438 536.929 213.684C537.503 213.924 537.983 214.261 538.37 214.694C538.757 215.128 539.05 215.641 539.249 216.232C539.448 216.818 539.548 217.46 539.548 218.157V218.342C539.548 219.033 539.448 219.675 539.249 220.267C539.05 220.853 538.757 221.365 538.37 221.805C537.983 222.238 537.506 222.575 536.938 222.815C536.369 223.056 535.713 223.176 534.969 223.176C534.225 223.176 533.565 223.056 532.991 222.815C532.417 222.575 531.937 222.238 531.55 221.805C531.163 221.365 530.87 220.853 530.671 220.267C530.472 219.675 530.372 219.033 530.372 218.342ZM533.334 218.157V218.342C533.334 218.699 533.36 219.033 533.413 219.344C533.466 219.654 533.554 219.927 533.677 220.161C533.8 220.39 533.967 220.568 534.178 220.697C534.389 220.826 534.652 220.891 534.969 220.891C535.279 220.891 535.537 220.826 535.742 220.697C535.953 220.568 536.12 220.39 536.243 220.161C536.366 219.927 536.454 219.654 536.507 219.344C536.56 219.033 536.586 218.699 536.586 218.342V218.157C536.586 217.812 536.56 217.486 536.507 217.182C536.454 216.871 536.366 216.599 536.243 216.364C536.12 216.124 535.953 215.937 535.742 215.802C535.531 215.667 535.268 215.6 534.951 215.6C534.641 215.6 534.38 215.667 534.169 215.802C533.964 215.937 533.8 216.124 533.677 216.364C533.554 216.599 533.466 216.871 533.413 217.182C533.36 217.486 533.334 217.812 533.334 218.157ZM543.854 215.846V223H540.893V213.49H543.661L543.854 215.846ZM546.667 213.42L546.614 216.171C546.497 216.159 546.339 216.145 546.14 216.127C545.94 216.109 545.773 216.101 545.639 216.101C545.293 216.101 544.994 216.142 544.742 216.224C544.496 216.3 544.291 216.417 544.127 216.575C543.969 216.728 543.852 216.921 543.775 217.155C543.705 217.39 543.673 217.662 543.679 217.973L543.143 217.621C543.143 216.982 543.204 216.402 543.327 215.881C543.456 215.354 543.638 214.899 543.872 214.519C544.106 214.132 544.391 213.836 544.725 213.631C545.059 213.42 545.434 213.314 545.85 213.314C545.996 213.314 546.14 213.323 546.28 213.341C546.427 213.358 546.556 213.385 546.667 213.42ZM550.912 210.203V223H547.827V210.203H550.912ZM555.887 215.529V217.902H550.033V215.529H555.887ZM556.388 210.203V212.585H550.033V210.203H556.388ZM560.659 209.5V223H557.688V209.5H560.659ZM562.118 218.342V218.157C562.118 217.46 562.218 216.818 562.417 216.232C562.616 215.641 562.909 215.128 563.296 214.694C563.683 214.261 564.16 213.924 564.729 213.684C565.297 213.438 565.953 213.314 566.697 213.314C567.447 213.314 568.106 213.438 568.675 213.684C569.249 213.924 569.729 214.261 570.116 214.694C570.503 215.128 570.796 215.641 570.995 216.232C571.194 216.818 571.294 217.46 571.294 218.157V218.342C571.294 219.033 571.194 219.675 570.995 220.267C570.796 220.853 570.503 221.365 570.116 221.805C569.729 222.238 569.252 222.575 568.684 222.815C568.115 223.056 567.459 223.176 566.715 223.176C565.971 223.176 565.312 223.056 564.737 222.815C564.163 222.575 563.683 222.238 563.296 221.805C562.909 221.365 562.616 220.853 562.417 220.267C562.218 219.675 562.118 219.033 562.118 218.342ZM565.08 218.157V218.342C565.08 218.699 565.106 219.033 565.159 219.344C565.212 219.654 565.3 219.927 565.423 220.161C565.546 220.39 565.713 220.568 565.924 220.697C566.135 220.826 566.398 220.891 566.715 220.891C567.025 220.891 567.283 220.826 567.488 220.697C567.699 220.568 567.866 220.39 567.989 220.161C568.112 219.927 568.2 219.654 568.253 219.344C568.306 219.033 568.332 218.699 568.332 218.342V218.157C568.332 217.812 568.306 217.486 568.253 217.182C568.2 216.871 568.112 216.599 567.989 216.364C567.866 216.124 567.699 215.937 567.488 215.802C567.277 215.667 567.014 215.6 566.697 215.6C566.387 215.6 566.126 215.667 565.915 215.802C565.71 215.937 565.546 216.124 565.423 216.364C565.3 216.599 565.212 216.871 565.159 217.182C565.106 217.486 565.08 217.812 565.08 218.157ZM575.504 220.17L577.262 213.49H579.116L578.457 216.839L576.717 223H575.231L575.504 220.17ZM574.81 213.49L575.899 220.117L576.022 223H574.221L571.971 213.49H574.81ZM580.681 219.977L581.779 213.49H584.618L582.386 223H580.584L580.681 219.977ZM579.327 213.49L581.103 220.152L581.375 223H579.872L578.167 216.856L577.534 213.49H579.327Z" fill="white"/>
<rect x="468" y="196" width="139" height="41" rx="3" stroke="#424242" stroke-width="4"/>
<rect x="627" y="196" width="109" height="41" rx="3" fill="#424242"/>
<path d="M655.678 212.893L652.558 223H649.244L653.946 210.203H656.047L655.678 212.893ZM658.262 223L655.133 212.893L654.729 210.203H656.855L661.584 223H658.262ZM658.139 218.228V220.609H651.573V218.228H658.139ZM665.372 215.846V223H662.41V213.49H665.179L665.372 215.846ZM668.185 213.42L668.132 216.171C668.015 216.159 667.856 216.145 667.657 216.127C667.458 216.109 667.291 216.101 667.156 216.101C666.811 216.101 666.512 216.142 666.26 216.224C666.014 216.3 665.809 216.417 665.645 216.575C665.486 216.728 665.369 216.921 665.293 217.155C665.223 217.39 665.19 217.662 665.196 217.973L664.66 217.621C664.66 216.982 664.722 216.402 664.845 215.881C664.974 215.354 665.155 214.899 665.39 214.519C665.624 214.132 665.908 213.836 666.242 213.631C666.576 213.42 666.951 213.314 667.367 213.314C667.514 213.314 667.657 213.323 667.798 213.341C667.944 213.358 668.073 213.385 668.185 213.42ZM674.495 220.82V209.5H677.475V223H674.803L674.495 220.82ZM668.659 218.359V218.175C668.659 217.454 668.738 216.798 668.896 216.206C669.055 215.608 669.289 215.096 669.6 214.668C669.91 214.234 670.297 213.9 670.76 213.666C671.223 213.432 671.756 213.314 672.359 213.314C672.898 213.314 673.37 213.44 673.774 213.692C674.179 213.938 674.524 214.284 674.812 214.729C675.099 215.175 675.333 215.696 675.515 216.294C675.696 216.886 675.834 217.524 675.928 218.21V218.43C675.834 219.074 675.696 219.684 675.515 220.258C675.333 220.826 675.099 221.33 674.812 221.77C674.524 222.209 674.176 222.555 673.766 222.807C673.361 223.053 672.887 223.176 672.342 223.176C671.738 223.176 671.205 223.056 670.742 222.815C670.285 222.575 669.901 222.238 669.591 221.805C669.286 221.371 669.055 220.861 668.896 220.275C668.738 219.689 668.659 219.051 668.659 218.359ZM671.621 218.175V218.359C671.621 218.717 671.645 219.048 671.691 219.353C671.738 219.657 671.817 219.927 671.929 220.161C672.046 220.39 672.198 220.568 672.386 220.697C672.579 220.826 672.816 220.891 673.098 220.891C673.479 220.891 673.792 220.8 674.038 220.618C674.29 220.437 674.475 220.179 674.592 219.845C674.715 219.511 674.768 219.118 674.75 218.667V217.973C674.762 217.586 674.735 217.246 674.671 216.953C674.606 216.654 674.504 216.405 674.363 216.206C674.229 216.007 674.056 215.857 673.845 215.758C673.64 215.652 673.396 215.6 673.115 215.6C672.84 215.6 672.605 215.664 672.412 215.793C672.225 215.922 672.072 216.104 671.955 216.338C671.838 216.566 671.753 216.839 671.7 217.155C671.647 217.466 671.621 217.806 671.621 218.175ZM684.708 220.688V213.49H687.679V223H684.901L684.708 220.688ZM684.989 218.755L685.763 218.737C685.763 219.376 685.687 219.968 685.534 220.513C685.382 221.052 685.156 221.521 684.857 221.919C684.564 222.317 684.201 222.628 683.768 222.851C683.34 223.067 682.845 223.176 682.282 223.176C681.813 223.176 681.383 223.111 680.99 222.982C680.604 222.848 680.27 222.64 679.988 222.358C679.707 222.071 679.487 221.705 679.329 221.26C679.177 220.809 679.101 220.27 679.101 219.643V213.49H682.062V219.66C682.062 219.871 682.089 220.053 682.142 220.205C682.194 220.357 682.271 220.486 682.37 220.592C682.47 220.691 682.593 220.768 682.739 220.82C682.892 220.867 683.064 220.891 683.258 220.891C683.703 220.891 684.052 220.797 684.304 220.609C684.556 220.422 684.731 220.167 684.831 219.845C684.937 219.522 684.989 219.159 684.989 218.755ZM692.442 213.49V223H689.472V213.49H692.442ZM689.296 211.038C689.296 210.616 689.448 210.271 689.753 210.001C690.058 209.731 690.453 209.597 690.939 209.597C691.426 209.597 691.821 209.731 692.126 210.001C692.431 210.271 692.583 210.616 692.583 211.038C692.583 211.46 692.431 211.806 692.126 212.075C691.821 212.345 691.426 212.479 690.939 212.479C690.453 212.479 690.058 212.345 689.753 212.075C689.448 211.806 689.296 211.46 689.296 211.038ZM697.18 215.521V223H694.218V213.49H696.995L697.18 215.521ZM696.828 217.92L696.134 217.938C696.134 217.211 696.222 216.563 696.397 215.995C696.573 215.421 696.822 214.935 697.145 214.536C697.467 214.138 697.851 213.836 698.296 213.631C698.747 213.42 699.248 213.314 699.799 213.314C700.238 213.314 700.64 213.379 701.003 213.508C701.372 213.637 701.688 213.845 701.952 214.132C702.222 214.419 702.427 214.8 702.567 215.274C702.714 215.743 702.787 216.323 702.787 217.015V223H699.808V217.006C699.808 216.625 699.755 216.335 699.649 216.136C699.544 215.931 699.392 215.79 699.192 215.714C698.993 215.638 698.75 215.6 698.463 215.6C698.158 215.6 697.9 215.658 697.689 215.775C697.479 215.893 697.309 216.057 697.18 216.268C697.057 216.473 696.966 216.716 696.907 216.997C696.854 217.278 696.828 217.586 696.828 217.92ZM704.062 218.342V218.157C704.062 217.46 704.161 216.818 704.36 216.232C704.56 215.641 704.853 215.128 705.239 214.694C705.626 214.261 706.104 213.924 706.672 213.684C707.24 213.438 707.896 213.314 708.641 213.314C709.391 213.314 710.05 213.438 710.618 213.684C711.192 213.924 711.673 214.261 712.06 214.694C712.446 215.128 712.739 215.641 712.938 216.232C713.138 216.818 713.237 217.46 713.237 218.157V218.342C713.237 219.033 713.138 219.675 712.938 220.267C712.739 220.853 712.446 221.365 712.06 221.805C711.673 222.238 711.195 222.575 710.627 222.815C710.059 223.056 709.402 223.176 708.658 223.176C707.914 223.176 707.255 223.056 706.681 222.815C706.106 222.575 705.626 222.238 705.239 221.805C704.853 221.365 704.56 220.853 704.36 220.267C704.161 219.675 704.062 219.033 704.062 218.342ZM707.023 218.157V218.342C707.023 218.699 707.05 219.033 707.103 219.344C707.155 219.654 707.243 219.927 707.366 220.161C707.489 220.39 707.656 220.568 707.867 220.697C708.078 220.826 708.342 220.891 708.658 220.891C708.969 220.891 709.227 220.826 709.432 220.697C709.643 220.568 709.81 220.39 709.933 220.161C710.056 219.927 710.144 219.654 710.196 219.344C710.249 219.033 710.275 218.699 710.275 218.342V218.157C710.275 217.812 710.249 217.486 710.196 217.182C710.144 216.871 710.056 216.599 709.933 216.364C709.81 216.124 709.643 215.937 709.432 215.802C709.221 215.667 708.957 215.6 708.641 215.6C708.33 215.6 708.069 215.667 707.858 215.802C707.653 215.937 707.489 216.124 707.366 216.364C707.243 216.599 707.155 216.871 707.103 217.182C707.05 217.486 707.023 217.812 707.023 218.157Z" fill="white"/>
<rect x="627" y="196" width="109" height="41" rx="3" stroke="#424242" stroke-width="4"/>
<path d="M1066 0H1348C1356.28 0 1363 6.71573 1363 15V282C1363 290.284 1356.28 297 1348 297H1066V0Z" fill="#3540D8"/>
<path d="M1222.27 102.067V232.385H1206.74V102.067C1211.75 103.936 1217.26 103.936 1222.27 102.067Z" fill="#8088CE"/>
<path d="M1141.44 166.998C1144.01 158.172 1151.49 153.421 1160.38 153.406C1169.17 153.406 1177.94 153.482 1186.73 153.482H1295.38C1295.85 153.504 1296.33 153.429 1296.77 153.262C1297.22 153.095 1297.63 152.84 1297.97 152.511C1298.32 152.182 1298.59 151.786 1298.78 151.348C1298.97 150.91 1299.06 150.439 1299.06 149.962C1299.06 149.486 1298.97 149.014 1298.78 148.576C1298.59 148.138 1298.32 147.743 1297.97 147.414C1297.63 147.085 1297.22 146.829 1296.77 146.662C1296.33 146.496 1295.85 146.421 1295.38 146.443H1176.55C1172.89 146.443 1169.21 146.443 1165.54 146.443C1162.05 146.443 1158.4 146.64 1155.03 145.632C1152.29 144.816 1149.77 143.391 1147.65 141.466C1145.54 139.54 1143.88 137.163 1142.81 134.51C1141.56 131.403 1141.34 127.873 1141.4 124.546C1141.41 122.324 1141.97 120.139 1143.03 118.19C1143.71 116.912 1144.53 115.713 1145.47 114.613C1147.24 112.507 1149.45 110.809 1151.94 109.636C1153.18 109.046 1154.5 108.65 1155.86 108.461C1157.49 108.349 1159.12 108.331 1160.76 108.408H1261.59C1262.49 108.409 1263.36 108.063 1264.01 107.441C1264.67 106.819 1265.06 105.969 1265.1 105.067V104.703C1265.05 103.802 1264.66 102.953 1264.01 102.331C1263.36 101.71 1262.49 101.363 1261.59 101.362H1242.58V85.8904C1247.08 85.8904 1251.6 85.8904 1256.11 85.8904C1263.02 85.8904 1270.67 86.4511 1275.81 91.7017C1276.55 92.4657 1277.22 93.2978 1277.81 94.1869C1280.51 98.2733 1281.57 103.231 1280.77 108.065C1279.97 112.899 1277.37 117.252 1273.5 120.251C1269.21 123.569 1264.4 123.963 1259.15 123.955L1163.5 123.865C1161.95 123.743 1160.4 123.973 1158.95 124.539C1157.57 125.198 1156.47 126.713 1156.8 128.206C1157.3 130.479 1160.26 130.949 1162.58 130.949H1277.75C1281.91 130.949 1286.08 130.896 1290.24 130.987C1294.59 131.078 1299.07 130.373 1303.24 131.926C1306.69 133.222 1309.64 135.557 1311.7 138.609C1313.96 141.974 1315.18 145.924 1315.21 149.974C1315.22 152.763 1314.63 155.522 1313.49 158.07C1312.35 160.617 1310.69 162.896 1308.61 164.756C1307.24 165.959 1305.71 166.978 1304.07 167.786C1301.79 168.93 1299.33 168.976 1296.87 168.976H1160.18C1159.38 169.028 1158.63 169.351 1158.04 169.891C1157.45 170.431 1157.06 171.156 1156.94 171.946V172.537C1156.94 173.377 1157.24 174.19 1157.79 174.827C1158.33 175.465 1159.09 175.886 1159.92 176.015H1230.55C1240.32 176.015 1250.09 176.015 1259.86 176.098C1263.97 176.143 1268.29 176.302 1272.11 178.015C1276.37 179.924 1279.02 183.75 1280.59 188.039C1282.12 192.201 1282.25 196.749 1280.95 200.99C1279.66 205.23 1277.01 208.93 1273.41 211.526C1269.84 214.064 1265.53 214.163 1261.29 214.14C1249.42 214.14 1237.54 214.057 1225.68 214.057H1175.24V198.547H1261.77C1262.67 198.499 1263.52 198.106 1264.14 197.451C1264.76 196.795 1265.1 195.927 1265.1 195.024V194.827C1265.06 193.962 1264.69 193.143 1264.08 192.529C1263.47 191.915 1262.65 191.549 1261.79 191.501H1197.1C1187.19 191.501 1177.28 191.559 1167.37 191.675C1161.38 191.736 1154.49 192.706 1149.28 189.069C1145.5 186.389 1142.74 182.513 1141.44 178.068C1140.39 174.453 1140.39 170.613 1141.44 166.998Z" fill="#8088CE"/>
<path d="M1287.56 166.998C1284.99 158.172 1277.5 153.421 1268.62 153.406C1259.83 153.406 1251.06 153.482 1242.26 153.482H1133.62C1132.72 153.44 1131.86 153.051 1131.24 152.395C1130.61 151.74 1130.26 150.868 1130.26 149.962C1130.26 149.056 1130.61 148.185 1131.24 147.53C1131.86 146.874 1132.72 146.485 1133.62 146.443H1252.45C1256.12 146.443 1259.8 146.443 1263.47 146.443C1266.96 146.443 1270.6 146.64 1273.97 145.632C1276.71 144.815 1279.22 143.392 1281.33 141.469C1283.44 139.546 1285.09 137.173 1286.16 134.525C1287.41 131.418 1287.67 127.888 1287.57 124.562C1287.57 122.339 1287.01 120.152 1285.94 118.205C1285.26 116.926 1284.45 115.727 1283.5 114.629C1281.73 112.52 1279.53 110.821 1277.03 109.651C1275.8 109.061 1274.47 108.665 1273.12 108.476C1271.49 108.364 1269.85 108.346 1268.22 108.423H1167.42C1166.52 108.423 1165.65 108.076 1165 107.454C1164.34 106.833 1163.95 105.984 1163.9 105.082V104.718C1163.95 103.817 1164.34 102.967 1165 102.346C1165.65 101.724 1166.52 101.378 1167.42 101.377H1186.43V85.8904C1181.89 85.8904 1177.41 85.8904 1172.89 85.8904C1165.98 85.8904 1158.34 86.4511 1153.19 91.7017C1152.46 92.4679 1151.79 93.2997 1151.21 94.1869C1148.5 98.2733 1147.45 103.231 1148.25 108.065C1149.05 112.899 1151.64 117.252 1155.52 120.251C1159.8 123.569 1164.61 123.963 1169.86 123.955L1265.52 123.865C1267.06 123.744 1268.62 123.975 1270.06 124.539C1271.44 125.198 1272.54 126.713 1272.21 128.206C1271.71 130.479 1268.75 130.949 1266.43 130.949H1151.29C1147.13 130.949 1142.96 130.896 1138.81 130.987C1134.46 131.078 1129.97 130.373 1125.8 131.926C1122.35 133.227 1119.38 135.57 1117.32 138.631C1115.06 141.989 1113.84 145.93 1113.79 149.974C1113.78 151.898 1114.06 153.812 1114.61 155.656C1115.67 159.158 1117.67 162.302 1120.39 164.748C1121.77 165.949 1123.29 166.968 1124.93 167.779C1127.21 168.923 1129.67 168.968 1132.13 168.968H1268.83C1269.63 169.02 1270.38 169.344 1270.97 169.886C1271.56 170.428 1271.95 171.155 1272.06 171.946V172.537C1272.06 173.377 1271.76 174.19 1271.21 174.827C1270.67 175.465 1269.91 175.886 1269.08 176.015H1198.45C1188.68 176.015 1178.92 176.015 1169.15 176.098C1165.04 176.143 1160.72 176.302 1156.9 178.015C1152.63 179.924 1149.99 183.75 1148.41 188.039C1146.88 192.201 1146.76 196.748 1148.05 200.988C1149.35 205.228 1152 208.929 1155.59 211.526C1159.16 214.064 1163.48 214.163 1167.71 214.14C1179.58 214.14 1191.45 214.057 1203.32 214.057H1253.76V198.547H1167.24C1166.34 198.499 1165.49 198.107 1164.87 197.451C1164.25 196.796 1163.9 195.928 1163.9 195.024V194.827C1163.94 193.961 1164.31 193.141 1164.92 192.527C1165.53 191.912 1166.35 191.547 1167.22 191.501H1231.9C1241.82 191.501 1251.73 191.559 1261.64 191.675C1267.62 191.736 1274.52 192.706 1279.72 189.069C1283.5 186.391 1286.26 182.514 1287.56 178.068C1288.6 174.451 1288.6 170.615 1287.56 166.998Z" fill="white"/>
<path d="M1231.19 81.2838C1231.19 84.5806 1230.21 87.8033 1228.38 90.5444C1226.55 93.2856 1223.94 95.422 1220.9 96.6836C1217.85 97.9452 1214.5 98.2753 1211.27 97.6322C1208.03 96.989 1205.06 95.4015 1202.73 93.0703C1200.4 90.7392 1198.81 87.7691 1198.17 84.5357C1197.53 81.3023 1197.86 77.9508 1199.12 74.905C1200.38 71.8593 1202.52 69.256 1205.26 67.4244C1208 65.5928 1211.22 64.6152 1214.52 64.6152C1218.94 64.6152 1223.18 66.3714 1226.31 69.4974C1229.43 72.6233 1231.19 76.8631 1231.19 81.2838Z" fill="white"/>
</svg>
