<svg width="1363" height="163" viewBox="0 0 1363 163" fill="none" xmlns="http://www.w3.org/2000/svg">
<path d="M0 15C0 6.71573 6.71573 0 15 0H37V163H15C6.71573 163 0 156.284 0 148V15Z" fill="#424242"/>
<rect width="1097" height="163" transform="translate(37)" fill="#F0F0F0"/>
<path d="M101.906 53.9219L94.3945 51.2383V48.0859L104.602 52.375V54.6367L101.906 53.9219ZM94.3945 56.1719L101.918 53.4297L104.602 52.7852V55.0352L94.3945 59.3242V56.1719ZM114.504 43.9375H117.48L121.863 56.4648L126.246 43.9375H129.223L123.059 61H120.668L114.504 43.9375ZM112.898 43.9375H115.863L116.402 56.1484V61H112.898V43.9375ZM127.863 43.9375H130.84V61H127.324V56.1484L127.863 43.9375ZM139.547 61.2344C138.562 61.2344 137.68 61.0781 136.898 60.7656C136.117 60.4453 135.453 60.0039 134.906 59.4414C134.367 58.8789 133.953 58.2266 133.664 57.4844C133.375 56.7344 133.23 55.9375 133.23 55.0938V54.625C133.23 53.6641 133.367 52.7852 133.641 51.9883C133.914 51.1914 134.305 50.5 134.812 49.9141C135.328 49.3281 135.953 48.8789 136.688 48.5664C137.422 48.2461 138.25 48.0859 139.172 48.0859C140.07 48.0859 140.867 48.2344 141.562 48.5312C142.258 48.8281 142.84 49.25 143.309 49.7969C143.785 50.3438 144.145 51 144.387 51.7656C144.629 52.5234 144.75 53.3672 144.75 54.2969V55.7031H134.672V53.4531H141.434V53.1953C141.434 52.7266 141.348 52.3086 141.176 51.9414C141.012 51.5664 140.762 51.2695 140.426 51.0508C140.09 50.832 139.66 50.7227 139.137 50.7227C138.691 50.7227 138.309 50.8203 137.988 51.0156C137.668 51.2109 137.406 51.4844 137.203 51.8359C137.008 52.1875 136.859 52.6016 136.758 53.0781C136.664 53.5469 136.617 54.0625 136.617 54.625V55.0938C136.617 55.6016 136.688 56.0703 136.828 56.5C136.977 56.9297 137.184 57.3008 137.449 57.6133C137.723 57.9258 138.051 58.168 138.434 58.3398C138.824 58.5117 139.266 58.5977 139.758 58.5977C140.367 58.5977 140.934 58.4805 141.457 58.2461C141.988 58.0039 142.445 57.6406 142.828 57.1562L144.469 58.9375C144.203 59.3203 143.84 59.6875 143.379 60.0391C142.926 60.3906 142.379 60.6797 141.738 60.9062C141.098 61.125 140.367 61.2344 139.547 61.2344ZM154.16 58.2344V43H157.559V61H154.5L154.16 58.2344ZM146.145 54.8125V54.5664C146.145 53.5977 146.254 52.7188 146.473 51.9297C146.691 51.1328 147.012 50.4492 147.434 49.8789C147.855 49.3086 148.375 48.8672 148.992 48.5547C149.609 48.2422 150.312 48.0859 151.102 48.0859C151.844 48.0859 152.492 48.2422 153.047 48.5547C153.609 48.8672 154.086 49.3125 154.477 49.8906C154.875 50.4609 155.195 51.1367 155.438 51.918C155.68 52.6914 155.855 53.5391 155.965 54.4609V55C155.855 55.8828 155.68 56.7031 155.438 57.4609C155.195 58.2188 154.875 58.8828 154.477 59.4531C154.086 60.0156 153.609 60.4531 153.047 60.7656C152.484 61.0781 151.828 61.2344 151.078 61.2344C150.289 61.2344 149.586 61.0742 148.969 60.7539C148.359 60.4336 147.844 59.9844 147.422 59.4062C147.008 58.8281 146.691 58.1484 146.473 57.3672C146.254 56.5859 146.145 55.7344 146.145 54.8125ZM149.52 54.5664V54.8125C149.52 55.3359 149.559 55.8242 149.637 56.2773C149.723 56.7305 149.859 57.1328 150.047 57.4844C150.242 57.8281 150.492 58.0977 150.797 58.293C151.109 58.4805 151.488 58.5742 151.934 58.5742C152.512 58.5742 152.988 58.4453 153.363 58.1875C153.738 57.9219 154.023 57.5586 154.219 57.0977C154.422 56.6367 154.539 56.1055 154.57 55.5039V53.9688C154.547 53.4766 154.477 53.0352 154.359 52.6445C154.25 52.2461 154.086 51.9062 153.867 51.625C153.656 51.3438 153.391 51.125 153.07 50.9688C152.758 50.8125 152.387 50.7344 151.957 50.7344C151.52 50.7344 151.145 50.8359 150.832 51.0391C150.52 51.2344 150.266 51.5039 150.07 51.8477C149.883 52.1914 149.742 52.5977 149.648 53.0664C149.562 53.5273 149.52 54.0273 149.52 54.5664ZM168.035 43.9375V61H164.531V43.9375H168.035ZM173.285 43.9375V46.6914H159.363V43.9375H173.285ZM179.812 61.2344C178.828 61.2344 177.945 61.0781 177.164 60.7656C176.383 60.4453 175.719 60.0039 175.172 59.4414C174.633 58.8789 174.219 58.2266 173.93 57.4844C173.641 56.7344 173.496 55.9375 173.496 55.0938V54.625C173.496 53.6641 173.633 52.7852 173.906 51.9883C174.18 51.1914 174.57 50.5 175.078 49.9141C175.594 49.3281 176.219 48.8789 176.953 48.5664C177.688 48.2461 178.516 48.0859 179.438 48.0859C180.336 48.0859 181.133 48.2344 181.828 48.5312C182.523 48.8281 183.105 49.25 183.574 49.7969C184.051 50.3438 184.41 51 184.652 51.7656C184.895 52.5234 185.016 53.3672 185.016 54.2969V55.7031H174.938V53.4531H181.699V53.1953C181.699 52.7266 181.613 52.3086 181.441 51.9414C181.277 51.5664 181.027 51.2695 180.691 51.0508C180.355 50.832 179.926 50.7227 179.402 50.7227C178.957 50.7227 178.574 50.8203 178.254 51.0156C177.934 51.2109 177.672 51.4844 177.469 51.8359C177.273 52.1875 177.125 52.6016 177.023 53.0781C176.93 53.5469 176.883 54.0625 176.883 54.625V55.0938C176.883 55.6016 176.953 56.0703 177.094 56.5C177.242 56.9297 177.449 57.3008 177.715 57.6133C177.988 57.9258 178.316 58.168 178.699 58.3398C179.09 58.5117 179.531 58.5977 180.023 58.5977C180.633 58.5977 181.199 58.4805 181.723 58.2461C182.254 58.0039 182.711 57.6406 183.094 57.1562L184.734 58.9375C184.469 59.3203 184.105 59.6875 183.645 60.0391C183.191 60.3906 182.645 60.6797 182.004 60.9062C181.363 61.125 180.633 61.2344 179.812 61.2344ZM192.176 58.5977C192.59 58.5977 192.957 58.5195 193.277 58.3633C193.598 58.1992 193.848 57.9727 194.027 57.6836C194.215 57.3867 194.312 57.0391 194.32 56.6406H197.496C197.488 57.5312 197.25 58.3242 196.781 59.0195C196.312 59.707 195.684 60.25 194.895 60.6484C194.105 61.0391 193.223 61.2344 192.246 61.2344C191.262 61.2344 190.402 61.0703 189.668 60.7422C188.941 60.4141 188.336 59.9609 187.852 59.3828C187.367 58.7969 187.004 58.1172 186.762 57.3438C186.52 56.5625 186.398 55.7266 186.398 54.8359V54.4961C186.398 53.5977 186.52 52.7617 186.762 51.9883C187.004 51.207 187.367 50.5273 187.852 49.9492C188.336 49.3633 188.941 48.9062 189.668 48.5781C190.395 48.25 191.246 48.0859 192.223 48.0859C193.262 48.0859 194.172 48.2852 194.953 48.6836C195.742 49.082 196.359 49.6523 196.805 50.3945C197.258 51.1289 197.488 52 197.496 53.0078H194.32C194.312 52.5859 194.223 52.2031 194.051 51.8594C193.887 51.5156 193.645 51.2422 193.324 51.0391C193.012 50.8281 192.625 50.7227 192.164 50.7227C191.672 50.7227 191.27 50.8281 190.957 51.0391C190.645 51.2422 190.402 51.5234 190.23 51.8828C190.059 52.2344 189.938 52.6367 189.867 53.0898C189.805 53.5352 189.773 54.0039 189.773 54.4961V54.8359C189.773 55.3281 189.805 55.8008 189.867 56.2539C189.93 56.707 190.047 57.1094 190.219 57.4609C190.398 57.8125 190.645 58.0898 190.957 58.293C191.27 58.4961 191.676 58.5977 192.176 58.5977ZM202.746 43V61H199.371V43H202.746ZM202.266 54.2148H201.34C201.348 53.332 201.465 52.5195 201.691 51.7773C201.918 51.0273 202.242 50.3789 202.664 49.832C203.086 49.2773 203.59 48.8477 204.176 48.543C204.77 48.2383 205.426 48.0859 206.145 48.0859C206.77 48.0859 207.336 48.1758 207.844 48.3555C208.359 48.5273 208.801 48.8086 209.168 49.1992C209.543 49.582 209.832 50.0859 210.035 50.7109C210.238 51.3359 210.34 52.0938 210.34 52.9844V61H206.941V52.9609C206.941 52.3984 206.859 51.957 206.695 51.6367C206.539 51.3086 206.309 51.0781 206.004 50.9453C205.707 50.8047 205.34 50.7344 204.902 50.7344C204.418 50.7344 204.004 50.8242 203.66 51.0039C203.324 51.1836 203.055 51.4336 202.852 51.7539C202.648 52.0664 202.5 52.4336 202.406 52.8555C202.312 53.2773 202.266 53.7305 202.266 54.2148Z" fill="#888888"/>
<path d="M106.688 119H99.1172L99.1641 112.672H106.688C108.25 112.672 109.57 112.297 110.648 111.547C111.742 110.797 112.57 109.68 113.133 108.195C113.711 106.695 114 104.852 114 102.664V101.188C114 99.5469 113.836 98.1094 113.508 96.875C113.195 95.625 112.727 94.5859 112.102 93.7578C111.477 92.9141 110.695 92.2812 109.758 91.8594C108.836 91.4375 107.773 91.2266 106.57 91.2266H98.9766V84.875H106.57C108.883 84.875 111 85.2734 112.922 86.0703C114.859 86.8516 116.531 87.9766 117.938 89.4453C119.359 90.8984 120.453 92.625 121.219 94.625C122 96.6094 122.391 98.8125 122.391 101.234V102.664C122.391 105.07 122 107.273 121.219 109.273C120.453 111.273 119.367 113 117.961 114.453C116.555 115.906 114.891 117.031 112.969 117.828C111.062 118.609 108.969 119 106.688 119ZM103.828 84.875V119H95.6016V84.875H103.828ZM138.586 119.469C136.523 119.469 134.68 119.148 133.055 118.508C131.43 117.852 130.055 116.953 128.93 115.812C127.82 114.672 126.969 113.359 126.375 111.875C125.797 110.391 125.508 108.82 125.508 107.164V106.273C125.508 104.414 125.766 102.695 126.281 101.117C126.797 99.5234 127.562 98.1328 128.578 96.9453C129.594 95.7578 130.867 94.8359 132.398 94.1797C133.93 93.5078 135.711 93.1719 137.742 93.1719C139.539 93.1719 141.148 93.4609 142.57 94.0391C143.992 94.6172 145.195 95.4453 146.18 96.5234C147.18 97.6016 147.938 98.9062 148.453 100.438C148.984 101.969 149.25 103.688 149.25 105.594V108.805H128.531V103.859H141.539V103.25C141.555 102.406 141.406 101.688 141.094 101.094C140.797 100.5 140.359 100.047 139.781 99.7344C139.203 99.4219 138.5 99.2656 137.672 99.2656C136.812 99.2656 136.102 99.4531 135.539 99.8281C134.992 100.203 134.562 100.719 134.25 101.375C133.953 102.016 133.742 102.758 133.617 103.602C133.492 104.445 133.43 105.336 133.43 106.273V107.164C133.43 108.102 133.555 108.953 133.805 109.719C134.07 110.484 134.445 111.141 134.93 111.688C135.43 112.219 136.023 112.633 136.711 112.93C137.414 113.227 138.211 113.375 139.102 113.375C140.18 113.375 141.242 113.172 142.289 112.766C143.336 112.359 144.234 111.688 144.984 110.75L148.57 115.016C148.055 115.75 147.32 116.461 146.367 117.148C145.43 117.836 144.305 118.398 142.992 118.836C141.68 119.258 140.211 119.469 138.586 119.469ZM160.43 99.0078V119H152.531V93.6406H159.938L160.43 99.0078ZM159.469 105.453L157.664 105.5C157.664 103.719 157.875 102.078 158.297 100.578C158.719 99.0781 159.344 97.7734 160.172 96.6641C161 95.5547 162.016 94.6953 163.219 94.0859C164.438 93.4766 165.844 93.1719 167.438 93.1719C168.547 93.1719 169.555 93.3438 170.461 93.6875C171.367 94.0156 172.148 94.5391 172.805 95.2578C173.461 95.9609 173.961 96.8828 174.305 98.0234C174.664 99.1484 174.844 100.5 174.844 102.078V119H166.945V103.086C166.945 102.008 166.82 101.195 166.57 100.648C166.336 100.102 165.992 99.7344 165.539 99.5469C165.086 99.3594 164.531 99.2656 163.875 99.2656C163.188 99.2656 162.57 99.4219 162.023 99.7344C161.477 100.047 161.008 100.484 160.617 101.047C160.242 101.594 159.953 102.242 159.75 102.992C159.562 103.742 159.469 104.562 159.469 105.453ZM173.953 105.453L171.75 105.5C171.75 103.719 171.945 102.078 172.336 100.578C172.742 99.0781 173.344 97.7734 174.141 96.6641C174.953 95.5547 175.961 94.6953 177.164 94.0859C178.367 93.4766 179.766 93.1719 181.359 93.1719C182.516 93.1719 183.578 93.3438 184.547 93.6875C185.516 94.0312 186.352 94.5859 187.055 95.3516C187.758 96.1172 188.305 97.1328 188.695 98.3984C189.086 99.6484 189.281 101.195 189.281 103.039V119H181.359V103.039C181.359 101.992 181.234 101.203 180.984 100.672C180.75 100.125 180.406 99.7578 179.953 99.5703C179.5 99.3672 178.961 99.2656 178.336 99.2656C177.586 99.2656 176.938 99.4219 176.391 99.7344C175.844 100.047 175.383 100.484 175.008 101.047C174.648 101.594 174.383 102.242 174.211 102.992C174.039 103.742 173.953 104.562 173.953 105.453ZM192.82 106.578V106.086C192.82 104.227 193.086 102.516 193.617 100.953C194.148 99.375 194.93 98.0078 195.961 96.8516C196.992 95.6953 198.266 94.7969 199.781 94.1562C201.297 93.5 203.047 93.1719 205.031 93.1719C207.031 93.1719 208.789 93.5 210.305 94.1562C211.836 94.7969 213.117 95.6953 214.148 96.8516C215.18 98.0078 215.961 99.375 216.492 100.953C217.023 102.516 217.289 104.227 217.289 106.086V106.578C217.289 108.422 217.023 110.133 216.492 111.711C215.961 113.273 215.18 114.641 214.148 115.812C213.117 116.969 211.844 117.867 210.328 118.508C208.812 119.148 207.062 119.469 205.078 119.469C203.094 119.469 201.336 119.148 199.805 118.508C198.273 117.867 196.992 116.969 195.961 115.812C194.93 114.641 194.148 113.273 193.617 111.711C193.086 110.133 192.82 108.422 192.82 106.578ZM200.719 106.086V106.578C200.719 107.531 200.789 108.422 200.93 109.25C201.07 110.078 201.305 110.805 201.633 111.43C201.961 112.039 202.406 112.516 202.969 112.859C203.531 113.203 204.234 113.375 205.078 113.375C205.906 113.375 206.594 113.203 207.141 112.859C207.703 112.516 208.148 112.039 208.477 111.43C208.805 110.805 209.039 110.078 209.18 109.25C209.32 108.422 209.391 107.531 209.391 106.578V106.086C209.391 105.164 209.32 104.297 209.18 103.484C209.039 102.656 208.805 101.93 208.477 101.305C208.148 100.664 207.703 100.164 207.141 99.8047C206.578 99.4453 205.875 99.2656 205.031 99.2656C204.203 99.2656 203.508 99.4453 202.945 99.8047C202.398 100.164 201.961 100.664 201.633 101.305C201.305 101.93 201.07 102.656 200.93 103.484C200.789 104.297 200.719 105.164 200.719 106.086Z" fill="black"/>
<path d="M1134 0H1348C1356.28 0 1363 6.71573 1363 15V148C1363 156.284 1356.28 163 1348 163H1134V0Z" fill="#3540D8"/>
<path d="M1281 46.5H1216L1213.5 49V114L1216 116.5H1281L1283.5 114V49L1281 46.5ZM1278.5 111.5H1233.5V101.5H1245C1246.5 104.5 1250 106.5 1253.5 106.5C1259 106.5 1263.5 102 1263.5 96.5C1263.5 91 1259 86.5 1253.5 86.5C1248 86.5 1243.5 91 1243.5 96.5H1228.5V111.5H1218.5V51.5H1228.5V63C1225.5 64.5 1223.5 68 1223.5 71.5C1223.5 77 1228 81.5 1233.5 81.5C1239 81.5 1243.5 77 1243.5 71.5H1253.5C1253.5 77 1258 81.5 1263.5 81.5C1269 81.5 1273.5 77 1273.5 71.5C1273.5 66 1269 61.5 1263.5 61.5C1260 61.5 1256.5 63.5 1255 66.5H1242C1240.5 63.5 1237 61.5 1233.5 61.5V51.5H1278.5V111.5ZM1248.5 96.5C1248.5 93.5 1250.5 91.5 1253.5 91.5C1256.5 91.5 1258.5 93.5 1258.5 96.5C1258.5 99.5 1256.5 101.5 1253.5 101.5C1250.5 101.5 1248.5 99.5 1248.5 96.5ZM1233.5 66.5C1236.5 66.5 1238.5 68.5 1238.5 71.5C1238.5 74.5 1236.5 76.5 1233.5 76.5C1230.5 76.5 1228.5 74.5 1228.5 71.5C1228.5 68.5 1230.5 66.5 1233.5 66.5ZM1263.5 66.5C1266.5 66.5 1268.5 68.5 1268.5 71.5C1268.5 74.5 1266.5 76.5 1263.5 76.5C1260.5 76.5 1258.5 74.5 1258.5 71.5C1258.5 68.5 1260.5 66.5 1263.5 66.5Z" fill="white"/>
</svg>
