<svg width="1363" height="163" viewBox="0 0 1363 163" fill="none" xmlns="http://www.w3.org/2000/svg">
<path d="M0 15C0 6.71573 6.71573 0 15 0H37V163H15C6.71573 163 0 156.284 0 148V15Z" fill="#424242"/>
<rect width="1097" height="163" transform="translate(37)" fill="#F0F0F0"/>
<path d="M101.906 53.9219L94.3945 51.2383V48.0859L104.602 52.375V54.6367L101.906 53.9219ZM94.3945 56.1719L101.918 53.4297L104.602 52.7852V55.0352L94.3945 59.3242V56.1719ZM114.504 43.9375H117.48L121.863 56.4648L126.246 43.9375H129.223L123.059 61H120.668L114.504 43.9375ZM112.898 43.9375H115.863L116.402 56.1484V61H112.898V43.9375ZM127.863 43.9375H130.84V61H127.324V56.1484L127.863 43.9375ZM139.547 61.2344C138.562 61.2344 137.68 61.0781 136.898 60.7656C136.117 60.4453 135.453 60.0039 134.906 59.4414C134.367 58.8789 133.953 58.2266 133.664 57.4844C133.375 56.7344 133.23 55.9375 133.23 55.0938V54.625C133.23 53.6641 133.367 52.7852 133.641 51.9883C133.914 51.1914 134.305 50.5 134.812 49.9141C135.328 49.3281 135.953 48.8789 136.688 48.5664C137.422 48.2461 138.25 48.0859 139.172 48.0859C140.07 48.0859 140.867 48.2344 141.562 48.5312C142.258 48.8281 142.84 49.25 143.309 49.7969C143.785 50.3438 144.145 51 144.387 51.7656C144.629 52.5234 144.75 53.3672 144.75 54.2969V55.7031H134.672V53.4531H141.434V53.1953C141.434 52.7266 141.348 52.3086 141.176 51.9414C141.012 51.5664 140.762 51.2695 140.426 51.0508C140.09 50.832 139.66 50.7227 139.137 50.7227C138.691 50.7227 138.309 50.8203 137.988 51.0156C137.668 51.2109 137.406 51.4844 137.203 51.8359C137.008 52.1875 136.859 52.6016 136.758 53.0781C136.664 53.5469 136.617 54.0625 136.617 54.625V55.0938C136.617 55.6016 136.688 56.0703 136.828 56.5C136.977 56.9297 137.184 57.3008 137.449 57.6133C137.723 57.9258 138.051 58.168 138.434 58.3398C138.824 58.5117 139.266 58.5977 139.758 58.5977C140.367 58.5977 140.934 58.4805 141.457 58.2461C141.988 58.0039 142.445 57.6406 142.828 57.1562L144.469 58.9375C144.203 59.3203 143.84 59.6875 143.379 60.0391C142.926 60.3906 142.379 60.6797 141.738 60.9062C141.098 61.125 140.367 61.2344 139.547 61.2344ZM154.16 58.2344V43H157.559V61H154.5L154.16 58.2344ZM146.145 54.8125V54.5664C146.145 53.5977 146.254 52.7188 146.473 51.9297C146.691 51.1328 147.012 50.4492 147.434 49.8789C147.855 49.3086 148.375 48.8672 148.992 48.5547C149.609 48.2422 150.312 48.0859 151.102 48.0859C151.844 48.0859 152.492 48.2422 153.047 48.5547C153.609 48.8672 154.086 49.3125 154.477 49.8906C154.875 50.4609 155.195 51.1367 155.438 51.918C155.68 52.6914 155.855 53.5391 155.965 54.4609V55C155.855 55.8828 155.68 56.7031 155.438 57.4609C155.195 58.2188 154.875 58.8828 154.477 59.4531C154.086 60.0156 153.609 60.4531 153.047 60.7656C152.484 61.0781 151.828 61.2344 151.078 61.2344C150.289 61.2344 149.586 61.0742 148.969 60.7539C148.359 60.4336 147.844 59.9844 147.422 59.4062C147.008 58.8281 146.691 58.1484 146.473 57.3672C146.254 56.5859 146.145 55.7344 146.145 54.8125ZM149.52 54.5664V54.8125C149.52 55.3359 149.559 55.8242 149.637 56.2773C149.723 56.7305 149.859 57.1328 150.047 57.4844C150.242 57.8281 150.492 58.0977 150.797 58.293C151.109 58.4805 151.488 58.5742 151.934 58.5742C152.512 58.5742 152.988 58.4453 153.363 58.1875C153.738 57.9219 154.023 57.5586 154.219 57.0977C154.422 56.6367 154.539 56.1055 154.57 55.5039V53.9688C154.547 53.4766 154.477 53.0352 154.359 52.6445C154.25 52.2461 154.086 51.9062 153.867 51.625C153.656 51.3438 153.391 51.125 153.07 50.9688C152.758 50.8125 152.387 50.7344 151.957 50.7344C151.52 50.7344 151.145 50.8359 150.832 51.0391C150.52 51.2344 150.266 51.5039 150.07 51.8477C149.883 52.1914 149.742 52.5977 149.648 53.0664C149.562 53.5273 149.52 54.0273 149.52 54.5664ZM168.035 43.9375V61H164.531V43.9375H168.035ZM173.285 43.9375V46.6914H159.363V43.9375H173.285ZM179.812 61.2344C178.828 61.2344 177.945 61.0781 177.164 60.7656C176.383 60.4453 175.719 60.0039 175.172 59.4414C174.633 58.8789 174.219 58.2266 173.93 57.4844C173.641 56.7344 173.496 55.9375 173.496 55.0938V54.625C173.496 53.6641 173.633 52.7852 173.906 51.9883C174.18 51.1914 174.57 50.5 175.078 49.9141C175.594 49.3281 176.219 48.8789 176.953 48.5664C177.688 48.2461 178.516 48.0859 179.438 48.0859C180.336 48.0859 181.133 48.2344 181.828 48.5312C182.523 48.8281 183.105 49.25 183.574 49.7969C184.051 50.3438 184.41 51 184.652 51.7656C184.895 52.5234 185.016 53.3672 185.016 54.2969V55.7031H174.938V53.4531H181.699V53.1953C181.699 52.7266 181.613 52.3086 181.441 51.9414C181.277 51.5664 181.027 51.2695 180.691 51.0508C180.355 50.832 179.926 50.7227 179.402 50.7227C178.957 50.7227 178.574 50.8203 178.254 51.0156C177.934 51.2109 177.672 51.4844 177.469 51.8359C177.273 52.1875 177.125 52.6016 177.023 53.0781C176.93 53.5469 176.883 54.0625 176.883 54.625V55.0938C176.883 55.6016 176.953 56.0703 177.094 56.5C177.242 56.9297 177.449 57.3008 177.715 57.6133C177.988 57.9258 178.316 58.168 178.699 58.3398C179.09 58.5117 179.531 58.5977 180.023 58.5977C180.633 58.5977 181.199 58.4805 181.723 58.2461C182.254 58.0039 182.711 57.6406 183.094 57.1562L184.734 58.9375C184.469 59.3203 184.105 59.6875 183.645 60.0391C183.191 60.3906 182.645 60.6797 182.004 60.9062C181.363 61.125 180.633 61.2344 179.812 61.2344ZM192.176 58.5977C192.59 58.5977 192.957 58.5195 193.277 58.3633C193.598 58.1992 193.848 57.9727 194.027 57.6836C194.215 57.3867 194.312 57.0391 194.32 56.6406H197.496C197.488 57.5312 197.25 58.3242 196.781 59.0195C196.312 59.707 195.684 60.25 194.895 60.6484C194.105 61.0391 193.223 61.2344 192.246 61.2344C191.262 61.2344 190.402 61.0703 189.668 60.7422C188.941 60.4141 188.336 59.9609 187.852 59.3828C187.367 58.7969 187.004 58.1172 186.762 57.3438C186.52 56.5625 186.398 55.7266 186.398 54.8359V54.4961C186.398 53.5977 186.52 52.7617 186.762 51.9883C187.004 51.207 187.367 50.5273 187.852 49.9492C188.336 49.3633 188.941 48.9062 189.668 48.5781C190.395 48.25 191.246 48.0859 192.223 48.0859C193.262 48.0859 194.172 48.2852 194.953 48.6836C195.742 49.082 196.359 49.6523 196.805 50.3945C197.258 51.1289 197.488 52 197.496 53.0078H194.32C194.312 52.5859 194.223 52.2031 194.051 51.8594C193.887 51.5156 193.645 51.2422 193.324 51.0391C193.012 50.8281 192.625 50.7227 192.164 50.7227C191.672 50.7227 191.27 50.8281 190.957 51.0391C190.645 51.2422 190.402 51.5234 190.23 51.8828C190.059 52.2344 189.938 52.6367 189.867 53.0898C189.805 53.5352 189.773 54.0039 189.773 54.4961V54.8359C189.773 55.3281 189.805 55.8008 189.867 56.2539C189.93 56.707 190.047 57.1094 190.219 57.4609C190.398 57.8125 190.645 58.0898 190.957 58.293C191.27 58.4961 191.676 58.5977 192.176 58.5977ZM202.746 43V61H199.371V43H202.746ZM202.266 54.2148H201.34C201.348 53.332 201.465 52.5195 201.691 51.7773C201.918 51.0273 202.242 50.3789 202.664 49.832C203.086 49.2773 203.59 48.8477 204.176 48.543C204.77 48.2383 205.426 48.0859 206.145 48.0859C206.77 48.0859 207.336 48.1758 207.844 48.3555C208.359 48.5273 208.801 48.8086 209.168 49.1992C209.543 49.582 209.832 50.0859 210.035 50.7109C210.238 51.3359 210.34 52.0938 210.34 52.9844V61H206.941V52.9609C206.941 52.3984 206.859 51.957 206.695 51.6367C206.539 51.3086 206.309 51.0781 206.004 50.9453C205.707 50.8047 205.34 50.7344 204.902 50.7344C204.418 50.7344 204.004 50.8242 203.66 51.0039C203.324 51.1836 203.055 51.4336 202.852 51.7539C202.648 52.0664 202.5 52.4336 202.406 52.8555C202.312 53.2773 202.266 53.7305 202.266 54.2148Z" fill="#888888"/>
<path d="M112.125 84.875V119H103.898V84.875H112.125ZM122.391 84.875V91.2266H93.8672V84.875H122.391ZM134.695 112.625V102.172C134.695 101.453 134.594 100.836 134.391 100.32C134.188 99.8047 133.867 99.4062 133.43 99.125C132.992 98.8281 132.406 98.6797 131.672 98.6797C131.078 98.6797 130.57 98.7812 130.148 98.9844C129.727 99.1875 129.406 99.4922 129.188 99.8984C128.969 100.305 128.859 100.82 128.859 101.445H120.961C120.961 100.273 121.219 99.1875 121.734 98.1875C122.266 97.1719 123.016 96.2891 123.984 95.5391C124.969 94.7891 126.141 94.2109 127.5 93.8047C128.875 93.3828 130.406 93.1719 132.094 93.1719C134.109 93.1719 135.906 93.5078 137.484 94.1797C139.078 94.8516 140.336 95.8594 141.258 97.2031C142.18 98.5312 142.641 100.203 142.641 102.219V112.602C142.641 114.258 142.734 115.516 142.922 116.375C143.109 117.219 143.375 117.961 143.719 118.602V119H135.797C135.422 118.219 135.141 117.266 134.953 116.141C134.781 115 134.695 113.828 134.695 112.625ZM135.656 103.508L135.703 107.727H132.211C131.477 107.727 130.852 107.828 130.336 108.031C129.836 108.234 129.43 108.516 129.117 108.875C128.82 109.219 128.602 109.609 128.461 110.047C128.336 110.484 128.273 110.945 128.273 111.43C128.273 111.898 128.383 112.32 128.602 112.695C128.836 113.055 129.148 113.336 129.539 113.539C129.93 113.742 130.367 113.844 130.852 113.844C131.727 113.844 132.469 113.68 133.078 113.352C133.703 113.008 134.18 112.594 134.508 112.109C134.836 111.625 135 111.172 135 110.75L136.734 113.984C136.422 114.609 136.062 115.242 135.656 115.883C135.266 116.523 134.773 117.117 134.18 117.664C133.602 118.195 132.891 118.633 132.047 118.977C131.203 119.305 130.18 119.469 128.977 119.469C127.414 119.469 125.977 119.148 124.664 118.508C123.367 117.867 122.328 116.977 121.547 115.836C120.766 114.68 120.375 113.352 120.375 111.852C120.375 110.539 120.609 109.367 121.078 108.336C121.562 107.305 122.289 106.43 123.258 105.711C124.227 104.992 125.461 104.445 126.961 104.07C128.461 103.695 130.227 103.508 132.258 103.508H135.656ZM147.094 83H154.992V112.766L154.172 119H147.094V83ZM170.555 106.039V106.531C170.555 108.453 170.359 110.203 169.969 111.781C169.578 113.359 168.977 114.727 168.164 115.883C167.352 117.023 166.328 117.906 165.094 118.531C163.859 119.156 162.398 119.469 160.711 119.469C159.18 119.469 157.867 119.141 156.773 118.484C155.68 117.812 154.766 116.891 154.031 115.719C153.297 114.531 152.703 113.164 152.25 111.617C151.797 110.055 151.438 108.383 151.172 106.602V106.016C151.438 104.25 151.797 102.594 152.25 101.047C152.703 99.4844 153.297 98.1172 154.031 96.9453C154.766 95.7578 155.672 94.8359 156.75 94.1797C157.844 93.5078 159.148 93.1719 160.664 93.1719C162.367 93.1719 163.836 93.4922 165.07 94.1328C166.32 94.7734 167.352 95.6719 168.164 96.8281C168.977 97.9844 169.578 99.3438 169.969 100.906C170.359 102.469 170.555 104.18 170.555 106.039ZM162.656 106.531V106.039C162.656 105.117 162.602 104.25 162.492 103.438C162.383 102.625 162.188 101.906 161.906 101.281C161.625 100.656 161.227 100.164 160.711 99.8047C160.195 99.4453 159.523 99.2656 158.695 99.2656C157.852 99.2656 157.141 99.4062 156.562 99.6875C156 99.9688 155.547 100.375 155.203 100.906C154.875 101.422 154.641 102.062 154.5 102.828C154.359 103.578 154.297 104.43 154.312 105.383V107.234C154.281 108.531 154.398 109.641 154.664 110.562C154.93 111.484 155.391 112.188 156.047 112.672C156.703 113.156 157.602 113.398 158.742 113.398C159.586 113.398 160.266 113.234 160.781 112.906C161.312 112.578 161.711 112.109 161.977 111.5C162.242 110.891 162.422 110.164 162.516 109.32C162.609 108.477 162.656 107.547 162.656 106.531ZM182.414 83V119H174.492V83H182.414ZM199.57 119.469C197.508 119.469 195.664 119.148 194.039 118.508C192.414 117.852 191.039 116.953 189.914 115.812C188.805 114.672 187.953 113.359 187.359 111.875C186.781 110.391 186.492 108.82 186.492 107.164V106.273C186.492 104.414 186.75 102.695 187.266 101.117C187.781 99.5234 188.547 98.1328 189.562 96.9453C190.578 95.7578 191.852 94.8359 193.383 94.1797C194.914 93.5078 196.695 93.1719 198.727 93.1719C200.523 93.1719 202.133 93.4609 203.555 94.0391C204.977 94.6172 206.18 95.4453 207.164 96.5234C208.164 97.6016 208.922 98.9062 209.438 100.438C209.969 101.969 210.234 103.688 210.234 105.594V108.805H189.516V103.859H202.523V103.25C202.539 102.406 202.391 101.688 202.078 101.094C201.781 100.5 201.344 100.047 200.766 99.7344C200.188 99.4219 199.484 99.2656 198.656 99.2656C197.797 99.2656 197.086 99.4531 196.523 99.8281C195.977 100.203 195.547 100.719 195.234 101.375C194.938 102.016 194.727 102.758 194.602 103.602C194.477 104.445 194.414 105.336 194.414 106.273V107.164C194.414 108.102 194.539 108.953 194.789 109.719C195.055 110.484 195.43 111.141 195.914 111.688C196.414 112.219 197.008 112.633 197.695 112.93C198.398 113.227 199.195 113.375 200.086 113.375C201.164 113.375 202.227 113.172 203.273 112.766C204.32 112.359 205.219 111.688 205.969 110.75L209.555 115.016C209.039 115.75 208.305 116.461 207.352 117.148C206.414 117.836 205.289 118.398 203.977 118.836C202.664 119.258 201.195 119.469 199.57 119.469ZM224.414 106.578V106.086C224.414 104.227 224.68 102.516 225.211 100.953C225.742 99.375 226.523 98.0078 227.555 96.8516C228.586 95.6953 229.859 94.7969 231.375 94.1562C232.891 93.5 234.641 93.1719 236.625 93.1719C238.625 93.1719 240.383 93.5 241.898 94.1562C243.43 94.7969 244.711 95.6953 245.742 96.8516C246.773 98.0078 247.555 99.375 248.086 100.953C248.617 102.516 248.883 104.227 248.883 106.086V106.578C248.883 108.422 248.617 110.133 248.086 111.711C247.555 113.273 246.773 114.641 245.742 115.812C244.711 116.969 243.438 117.867 241.922 118.508C240.406 119.148 238.656 119.469 236.672 119.469C234.688 119.469 232.93 119.148 231.398 118.508C229.867 117.867 228.586 116.969 227.555 115.812C226.523 114.641 225.742 113.273 225.211 111.711C224.68 110.133 224.414 108.422 224.414 106.578ZM232.312 106.086V106.578C232.312 107.531 232.383 108.422 232.523 109.25C232.664 110.078 232.898 110.805 233.227 111.43C233.555 112.039 234 112.516 234.562 112.859C235.125 113.203 235.828 113.375 236.672 113.375C237.5 113.375 238.188 113.203 238.734 112.859C239.297 112.516 239.742 112.039 240.07 111.43C240.398 110.805 240.633 110.078 240.773 109.25C240.914 108.422 240.984 107.531 240.984 106.578V106.086C240.984 105.164 240.914 104.297 240.773 103.484C240.633 102.656 240.398 101.93 240.07 101.305C239.742 100.664 239.297 100.164 238.734 99.8047C238.172 99.4453 237.469 99.2656 236.625 99.2656C235.797 99.2656 235.102 99.4453 234.539 99.8047C233.992 100.164 233.555 100.664 233.227 101.305C232.898 101.93 232.664 102.656 232.523 103.484C232.383 104.297 232.312 105.164 232.312 106.086ZM262.078 119H254.133V91.5781C254.133 89.6094 254.531 87.9531 255.328 86.6094C256.125 85.2656 257.25 84.25 258.703 83.5625C260.156 82.8594 261.875 82.5078 263.859 82.5078C264.547 82.5078 265.195 82.5547 265.805 82.6484C266.414 82.7422 267.008 82.8594 267.586 83L267.609 88.8125C267.328 88.7344 267.039 88.6797 266.742 88.6484C266.445 88.6172 266.078 88.6016 265.641 88.6016C264.875 88.6016 264.227 88.7188 263.695 88.9531C263.164 89.1719 262.758 89.5078 262.477 89.9609C262.211 90.3984 262.078 90.9375 262.078 91.5781V119ZM267 93.6406V99.125H250.477V93.6406H267ZM292.5 113.375C293.234 113.375 293.859 113.242 294.375 112.977C294.906 112.695 295.305 112.305 295.57 111.805C295.852 111.289 295.984 110.672 295.969 109.953H303.398C303.414 111.859 302.945 113.531 301.992 114.969C301.055 116.391 299.773 117.5 298.148 118.297C296.539 119.078 294.719 119.469 292.688 119.469C290.703 119.469 288.969 119.148 287.484 118.508C286 117.852 284.758 116.945 283.758 115.789C282.773 114.617 282.031 113.25 281.531 111.688C281.047 110.125 280.805 108.43 280.805 106.602V106.062C280.805 104.234 281.047 102.539 281.531 100.977C282.031 99.3984 282.773 98.0312 283.758 96.875C284.758 95.7031 285.992 94.7969 287.461 94.1562C288.945 93.5 290.672 93.1719 292.641 93.1719C294.75 93.1719 296.609 93.5703 298.219 94.3672C299.844 95.1641 301.117 96.3203 302.039 97.8359C302.961 99.3516 303.414 101.188 303.398 103.344H295.969C295.984 102.578 295.867 101.891 295.617 101.281C295.367 100.672 294.977 100.188 294.445 99.8281C293.93 99.4531 293.266 99.2656 292.453 99.2656C291.641 99.2656 290.984 99.4453 290.484 99.8047C289.984 100.164 289.602 100.664 289.336 101.305C289.086 101.93 288.914 102.648 288.82 103.461C288.742 104.273 288.703 105.141 288.703 106.062V106.602C288.703 107.539 288.742 108.422 288.82 109.25C288.914 110.062 289.094 110.781 289.359 111.406C289.625 112.016 290.008 112.5 290.508 112.859C291.008 113.203 291.672 113.375 292.5 113.375ZM305.789 106.578V106.086C305.789 104.227 306.055 102.516 306.586 100.953C307.117 99.375 307.898 98.0078 308.93 96.8516C309.961 95.6953 311.234 94.7969 312.75 94.1562C314.266 93.5 316.016 93.1719 318 93.1719C320 93.1719 321.758 93.5 323.273 94.1562C324.805 94.7969 326.086 95.6953 327.117 96.8516C328.148 98.0078 328.93 99.375 329.461 100.953C329.992 102.516 330.258 104.227 330.258 106.086V106.578C330.258 108.422 329.992 110.133 329.461 111.711C328.93 113.273 328.148 114.641 327.117 115.812C326.086 116.969 324.812 117.867 323.297 118.508C321.781 119.148 320.031 119.469 318.047 119.469C316.062 119.469 314.305 119.148 312.773 118.508C311.242 117.867 309.961 116.969 308.93 115.812C307.898 114.641 307.117 113.273 306.586 111.711C306.055 110.133 305.789 108.422 305.789 106.578ZM313.688 106.086V106.578C313.688 107.531 313.758 108.422 313.898 109.25C314.039 110.078 314.273 110.805 314.602 111.43C314.93 112.039 315.375 112.516 315.938 112.859C316.5 113.203 317.203 113.375 318.047 113.375C318.875 113.375 319.562 113.203 320.109 112.859C320.672 112.516 321.117 112.039 321.445 111.43C321.773 110.805 322.008 110.078 322.148 109.25C322.289 108.422 322.359 107.531 322.359 106.578V106.086C322.359 105.164 322.289 104.297 322.148 103.484C322.008 102.656 321.773 101.93 321.445 101.305C321.117 100.664 320.672 100.164 320.109 99.8047C319.547 99.4453 318.844 99.2656 318 99.2656C317.172 99.2656 316.477 99.4453 315.914 99.8047C315.367 100.164 314.93 100.664 314.602 101.305C314.273 101.93 314.039 102.656 313.898 103.484C313.758 104.297 313.688 105.164 313.688 106.086ZM341.531 99.0547V119H333.633V93.6406H341.039L341.531 99.0547ZM340.594 105.453L338.742 105.5C338.742 103.562 338.977 101.836 339.445 100.32C339.914 98.7891 340.578 97.4922 341.438 96.4297C342.297 95.3672 343.32 94.5625 344.508 94.0156C345.711 93.4531 347.047 93.1719 348.516 93.1719C349.688 93.1719 350.758 93.3438 351.727 93.6875C352.711 94.0312 353.555 94.5859 354.258 95.3516C354.977 96.1172 355.523 97.1328 355.898 98.3984C356.289 99.6484 356.484 101.195 356.484 103.039V119H348.539V103.016C348.539 102 348.398 101.227 348.117 100.695C347.836 100.148 347.43 99.7734 346.898 99.5703C346.367 99.3672 345.719 99.2656 344.953 99.2656C344.141 99.2656 343.453 99.4219 342.891 99.7344C342.328 100.047 341.875 100.484 341.531 101.047C341.203 101.594 340.961 102.242 340.805 102.992C340.664 103.742 340.594 104.562 340.594 105.453ZM374.227 93.6406V99.125H358.945V93.6406H374.227ZM362.156 87.3359H370.055V110.727C370.055 111.398 370.133 111.922 370.289 112.297C370.445 112.656 370.711 112.914 371.086 113.07C371.477 113.211 371.992 113.281 372.633 113.281C373.086 113.281 373.461 113.273 373.758 113.258C374.055 113.227 374.336 113.188 374.602 113.141V118.789C373.93 119.008 373.227 119.172 372.492 119.281C371.758 119.406 370.977 119.469 370.148 119.469C368.461 119.469 367.016 119.203 365.812 118.672C364.625 118.141 363.719 117.305 363.094 116.164C362.469 115.023 362.156 113.539 362.156 111.711V87.3359ZM389.648 119.469C387.586 119.469 385.742 119.148 384.117 118.508C382.492 117.852 381.117 116.953 379.992 115.812C378.883 114.672 378.031 113.359 377.438 111.875C376.859 110.391 376.57 108.82 376.57 107.164V106.273C376.57 104.414 376.828 102.695 377.344 101.117C377.859 99.5234 378.625 98.1328 379.641 96.9453C380.656 95.7578 381.93 94.8359 383.461 94.1797C384.992 93.5078 386.773 93.1719 388.805 93.1719C390.602 93.1719 392.211 93.4609 393.633 94.0391C395.055 94.6172 396.258 95.4453 397.242 96.5234C398.242 97.6016 399 98.9062 399.516 100.438C400.047 101.969 400.312 103.688 400.312 105.594V108.805H379.594V103.859H392.602V103.25C392.617 102.406 392.469 101.688 392.156 101.094C391.859 100.5 391.422 100.047 390.844 99.7344C390.266 99.4219 389.562 99.2656 388.734 99.2656C387.875 99.2656 387.164 99.4531 386.602 99.8281C386.055 100.203 385.625 100.719 385.312 101.375C385.016 102.016 384.805 102.758 384.68 103.602C384.555 104.445 384.492 105.336 384.492 106.273V107.164C384.492 108.102 384.617 108.953 384.867 109.719C385.133 110.484 385.508 111.141 385.992 111.688C386.492 112.219 387.086 112.633 387.773 112.93C388.477 113.227 389.273 113.375 390.164 113.375C391.242 113.375 392.305 113.172 393.352 112.766C394.398 112.359 395.297 111.688 396.047 110.75L399.633 115.016C399.117 115.75 398.383 116.461 397.43 117.148C396.492 117.836 395.367 118.398 394.055 118.836C392.742 119.258 391.273 119.469 389.648 119.469ZM411.281 99.0547V119H403.383V93.6406H410.789L411.281 99.0547ZM410.344 105.453L408.492 105.5C408.492 103.562 408.727 101.836 409.195 100.32C409.664 98.7891 410.328 97.4922 411.188 96.4297C412.047 95.3672 413.07 94.5625 414.258 94.0156C415.461 93.4531 416.797 93.1719 418.266 93.1719C419.438 93.1719 420.508 93.3438 421.477 93.6875C422.461 94.0312 423.305 94.5859 424.008 95.3516C424.727 96.1172 425.273 97.1328 425.648 98.3984C426.039 99.6484 426.234 101.195 426.234 103.039V119H418.289V103.016C418.289 102 418.148 101.227 417.867 100.695C417.586 100.148 417.18 99.7734 416.648 99.5703C416.117 99.3672 415.469 99.2656 414.703 99.2656C413.891 99.2656 413.203 99.4219 412.641 99.7344C412.078 100.047 411.625 100.484 411.281 101.047C410.953 101.594 410.711 102.242 410.555 102.992C410.414 103.742 410.344 104.562 410.344 105.453ZM443.977 93.6406V99.125H428.695V93.6406H443.977ZM431.906 87.3359H439.805V110.727C439.805 111.398 439.883 111.922 440.039 112.297C440.195 112.656 440.461 112.914 440.836 113.07C441.227 113.211 441.742 113.281 442.383 113.281C442.836 113.281 443.211 113.273 443.508 113.258C443.805 113.227 444.086 113.188 444.352 113.141V118.789C443.68 119.008 442.977 119.172 442.242 119.281C441.508 119.406 440.727 119.469 439.898 119.469C438.211 119.469 436.766 119.203 435.562 118.672C434.375 118.141 433.469 117.305 432.844 116.164C432.219 115.023 431.906 113.539 431.906 111.711V87.3359Z" fill="black"/>
<path d="M1134 0H1348C1356.28 0 1363 6.71573 1363 15V148C1363 156.284 1356.28 163 1348 163H1134V0Z" fill="#3540D8"/>
<rect x="1224" y="46.5" width="70" height="14" rx="4" fill="white"/>
<rect x="1203" y="46.5" width="14" height="14" rx="4" fill="white"/>
<rect x="1224" y="74.5" width="70" height="14" rx="4" fill="white"/>
<rect x="1203" y="74.5" width="14" height="14" rx="4" fill="white"/>
<rect x="1224" y="102.5" width="70" height="14" rx="4" fill="white"/>
<rect x="1203" y="102.5" width="14" height="14" rx="4" fill="white"/>
</svg>
