<svg width="36" height="36" viewBox="0 0 36 36" fill="none" xmlns="http://www.w3.org/2000/svg">
<path d="M20.3478 2.34783C20.3478 1.72514 20.1005 1.12796 19.6602 0.687662C19.2199 0.247359 18.6227 0 18 0C17.3773 0 16.7801 0.247359 16.3398 0.687662C15.8995 1.12796 15.6522 1.72514 15.6522 2.34783V15.6522H2.34783C1.72514 15.6522 1.12796 15.8995 0.687662 16.3398C0.247359 16.7801 0 17.3773 0 18C0 18.6227 0.247359 19.2199 0.687662 19.6602C1.12796 20.1005 1.72514 20.3478 2.34783 20.3478H15.6522V33.6522C15.6522 34.2749 15.8995 34.872 16.3398 35.3123C16.7801 35.7526 17.3773 36 18 36C18.6227 36 19.2199 35.7526 19.6602 35.3123C20.1005 34.872 20.3478 34.2749 20.3478 33.6522V20.3478H33.6522C34.2749 20.3478 34.872 20.1005 35.3123 19.6602C35.7526 19.2199 36 18.6227 36 18C36 17.3773 35.7526 16.7801 35.3123 16.3398C34.872 15.8995 34.2749 15.6522 33.6522 15.6522H20.3478V2.34783Z" fill="black"/>
</svg>
