<svg width="28" height="28" viewBox="0 0 28 28" fill="none" xmlns="http://www.w3.org/2000/svg">
<path d="M19.985 24.15L24.85 19.32L23.38 17.85L19.985 21.175L18.62 19.81L17.15 21.315L19.985 24.15ZM4.2 8.4H21V5.6H4.2V8.4ZM21 28C19.0633 28 17.4123 27.3173 16.0468 25.9518C14.6813 24.5863 13.9991 22.9357 14 21C14 19.0633 14.6827 17.4123 16.0482 16.0468C17.4137 14.6813 19.0643 13.9991 21 14C22.9367 14 24.5877 14.6827 25.9532 16.0482C27.3187 17.4137 28.0009 19.0643 28 21C28 22.9367 27.3173 24.5877 25.9518 25.9532C24.5863 27.3187 22.9357 28.0009 21 28ZM0 26.6V2.8C0 2.03 0.2744 1.3706 0.8232 0.821802C1.372 0.273002 2.03093 -0.000930956 2.8 2.37691e-06H22.4C23.17 2.37691e-06 23.8294 0.274402 24.3782 0.823202C24.927 1.372 25.2009 2.03094 25.2 2.8V12.145C24.5467 11.8183 23.8639 11.5789 23.1518 11.4268C22.4397 11.2747 21.7224 11.1991 21 11.2H4.2V14H14.14C13.7433 14.3967 13.3761 14.8283 13.0382 15.295C12.7003 15.7617 12.4026 16.2633 12.145 16.8H4.2V19.6H11.305C11.2583 19.8333 11.2289 20.0611 11.2168 20.2832C11.2047 20.5053 11.1991 20.7443 11.2 21C11.2 21.98 11.3344 22.9194 11.6032 23.8182C11.872 24.717 12.2743 25.5743 12.81 26.39L12.6 26.6L10.5 24.5L8.4 26.6L6.3 24.5L4.2 26.6L2.1 24.5L0 26.6Z" fill="#3540D8"/>
</svg>
