<svg width="32" height="24" viewBox="0 0 32 24" fill="none" xmlns="http://www.w3.org/2000/svg">
<path d="M2.35369e-07 12.0561C2.35369e-07 12.6529 0.23655 13.2252 0.657612 13.6471C1.07867 14.0691 1.64976 14.3061 2.24523 14.3061L24.3383 14.3061L18.4408 20.2161C18.0442 20.6426 17.8283 21.2068 17.8386 21.7897C17.8488 22.3726 18.0845 22.9287 18.4958 23.341C18.9072 23.7532 19.4622 23.9894 20.0438 23.9996C20.6255 24.0099 21.1884 23.7936 21.6141 23.3961L31.3434 13.6461C31.7638 13.2242 32 12.6524 32 12.0561C32 11.4599 31.7638 10.888 31.3434 10.4661L21.6141 0.716125C21.4085 0.495064 21.1606 0.317758 20.8852 0.194782C20.6098 0.0718062 20.3125 0.00568052 20.011 0.000350165C19.7096 -0.00498019 19.4101 0.0505934 19.1305 0.163756C18.851 0.276919 18.597 0.445353 18.3838 0.659009C18.1706 0.872666 18.0025 1.12717 17.8896 1.40733C17.7767 1.6875 17.7212 1.98758 17.7265 2.28969C17.7319 2.5918 17.7978 2.88974 17.9206 3.16574C18.0433 3.44174 18.2202 3.69014 18.4408 3.89612L24.3383 9.80612L2.24523 9.80612C1.00586 9.80612 2.35369e-07 10.8141 2.35369e-07 12.0561Z" fill="#3540D8"/>
</svg>
