<svg width="35" height="31" viewBox="0 0 35 31" fill="none" xmlns="http://www.w3.org/2000/svg">
<path d="M12.6667 1H4.61112C3.72132 1 3 1.72132 3 2.61112V13.889C3 14.7788 3.72132 15.5001 4.61112 15.5001H12.6667C13.5565 15.5001 14.2779 14.7788 14.2779 13.889V2.61112C14.2779 1.72132 13.5565 1 12.6667 1Z" stroke="white" stroke-linecap="round" stroke-linejoin="round"/>
<path d="M30.3894 1H22.3338C21.444 1 20.7227 1.72132 20.7227 2.61112V7.44449C20.7227 8.33429 21.444 9.05562 22.3338 9.05562H30.3894C31.2792 9.05562 32.0005 8.33429 32.0005 7.44449V2.61112C32.0005 1.72132 31.2792 1 30.3894 1Z" stroke="white" stroke-linecap="round" stroke-linejoin="round"/>
<path d="M30.3894 15.5H22.3338C21.444 15.5 20.7227 16.2213 20.7227 17.1111V28.389C20.7227 29.2788 21.444 30.0001 22.3338 30.0001H30.3894C31.2792 30.0001 32.0005 29.2788 32.0005 28.389V17.1111C32.0005 16.2213 31.2792 15.5 30.3894 15.5Z" stroke="white" stroke-linecap="round" stroke-linejoin="round"/>
<path d="M12.6667 21.9448H4.61112C3.72132 21.9448 3 22.6661 3 23.5559V28.3893C3 29.2791 3.72132 30.0004 4.61112 30.0004H12.6667C13.5565 30.0004 14.2779 29.2791 14.2779 28.3893V23.5559C14.2779 22.6661 13.5565 21.9448 12.6667 21.9448Z" stroke="white" stroke-linecap="round" stroke-linejoin="round"/>
</svg>
