<svg width="36" height="30" viewBox="0 0 36 30" fill="none" xmlns="http://www.w3.org/2000/svg">
<path d="M25.5 10.3571C25.5 10.3358 25.4999 10.3142 25.4997 10.2926C25.9133 10.3715 26.3302 10.4113 26.75 10.4113C27.4609 10.4113 28.1689 10.2768 28.8703 10.0165C29.5183 9.77598 30.0688 9.52972 30.5091 9.27433C30.6901 9.16935 30.8244 9.09554 30.9169 9.04867C31.0826 9.09199 31.3233 9.2705 31.5554 9.95476C31.838 10.788 32 12.1165 32 13.9983C32 14.6452 31.7887 15.0436 31.4254 15.3157C30.9931 15.6395 30.4397 15.8214 29.7188 15.8214H27.9715C27.0666 14.8096 25.9688 14.1623 24.6968 13.8917C25.231 12.7902 25.5 11.6095 25.5 10.3571ZM10.0003 10.2926C10.0001 10.3142 10 10.3358 10 10.3571C10 11.6095 10.269 12.7902 10.8032 13.8917C9.53121 14.1623 8.43338 14.8096 7.52849 15.8214H5.78125C5.06033 15.8214 4.50686 15.6395 4.07463 15.3157C3.71133 15.0436 3.5 14.6452 3.5 13.9983C3.5 12.1165 3.66204 10.788 3.94464 9.95476C4.17671 9.27049 4.41738 9.09199 4.58314 9.04867C4.67562 9.09554 4.8099 9.16935 4.9909 9.27433C5.43123 9.52972 5.98167 9.77598 6.62967 10.0165C7.33109 10.2768 8.03907 10.4113 8.75 10.4113C9.1698 10.4113 9.58674 10.3715 10.0003 10.2926ZM28 24.8086C28 25.9481 27.6708 26.7614 27.0828 27.3412C26.4877 27.928 25.6796 28.25 24.5781 28.25H10.9219C9.82041 28.25 9.0123 27.928 8.41722 27.3412C7.82921 26.7614 7.5 25.9481 7.5 24.8086C7.5 24.2527 7.51772 23.7111 7.55301 23.1837C7.58745 22.669 7.65678 22.1074 7.76242 21.4978C7.86704 20.8941 7.99802 20.3403 8.15408 19.8352C8.30528 19.3458 8.5091 18.8665 8.76686 18.3968C9.01815 17.939 9.29927 17.562 9.60614 17.2578C9.8938 16.9726 10.2538 16.7358 10.6987 16.5533C11.0977 16.3896 11.5467 16.2977 12.0538 16.2868C12.055 16.2874 12.0562 16.288 12.0575 16.2887C12.1327 16.3277 12.2476 16.3967 12.4086 16.5053C12.7504 16.736 13.129 16.9938 13.5444 17.2789C14.0388 17.6181 14.6669 17.9039 15.4041 18.1489C16.1753 18.4053 16.9582 18.5352 17.75 18.5352C18.5418 18.5352 19.3247 18.4053 20.0959 18.1489C20.8331 17.9039 21.4612 17.6181 21.9556 17.2789C22.371 16.9938 22.7495 16.736 23.0914 16.5053C23.2524 16.3967 23.3673 16.3277 23.4425 16.2887C23.4438 16.288 23.445 16.2874 23.4462 16.2868C23.9533 16.2977 24.4023 16.3896 24.8013 16.5533C25.2462 16.7358 25.6062 16.9726 25.8939 17.2578C26.2007 17.562 26.4818 17.939 26.7331 18.3968C26.9909 18.8665 27.1947 19.3458 27.3459 19.8352C27.502 20.3403 27.633 20.8941 27.7376 21.4978C27.8432 22.1074 27.9125 22.669 27.947 23.1837C27.9823 23.7111 28 24.2527 28 24.8086ZM12 4.14286C12 5.09574 11.6823 5.8843 11.0386 6.55104C10.3957 7.21689 9.64645 7.53571 8.75 7.53571C7.85355 7.53571 7.10432 7.21689 6.46143 6.55104C5.81768 5.8843 5.5 5.09574 5.5 4.14286C5.5 3.18998 5.81768 2.40141 6.46143 1.73467C7.10432 1.06882 7.85355 0.75 8.75 0.75C9.64645 0.75 10.3957 1.06882 11.0386 1.73467C11.6823 2.40141 12 3.18998 12 4.14286ZM23 10.3571C23 11.8818 22.487 13.1586 21.4526 14.2299C20.4191 15.3003 19.1985 15.8214 17.75 15.8214C16.3015 15.8214 15.0809 15.3003 14.0474 14.2299C13.013 13.1586 12.5 11.8818 12.5 10.3571C12.5 8.83246 13.013 7.55571 14.0474 6.48439C15.0809 5.41397 16.3015 4.89286 17.75 4.89286C19.1985 4.89286 20.4191 5.41397 21.4526 6.48439C22.487 7.55571 23 8.83246 23 10.3571ZM30 4.14286C30 5.09574 29.6823 5.8843 29.0386 6.55104C28.3957 7.21689 27.6465 7.53571 26.75 7.53571C25.8535 7.53571 25.1043 7.21689 24.4614 6.55104C23.8177 5.8843 23.5 5.09574 23.5 4.14286C23.5 3.18998 23.8177 2.40141 24.4614 1.73467C25.1043 1.06882 25.8535 0.75 26.75 0.75C27.6465 0.75 28.3957 1.06882 29.0386 1.73467C29.6823 2.40141 30 3.18998 30 4.14286Z" stroke="white" stroke-width="1.5"/>
<rect x="18.75" y="19.5" width="14" height="10" rx="0.5" fill="#161B59" stroke="white"/>
<rect x="22.25" y="24" width="7" height="1" rx="0.5" fill="white"/>
<rect x="29.25" y="21" width="3" height="1" rx="0.5" transform="rotate(-90 29.25 21)" fill="white"/>
</svg>
