<svg xmlns="http://www.w3.org/2000/svg" viewBox="0 0 265.85 221.4"><defs><style>.cls-1{fill:#8088ce;}.cls-2{fill:#fff;}</style></defs><g id="Layer_2" data-name="Layer 2"><g id="Layer_1-2" data-name="Layer 1"><path class="cls-1" d="M143.18,49.44v172H122.67v-172a29.35,29.35,0,0,0,20.51,0Z"/><path class="cls-1" d="M36.51,135.15c3.38-11.66,13.26-17.93,25-18,11.59,0,23.17.1,34.77.1H239.67a4.65,4.65,0,1,0,0-9.29H82.84q-7.28,0-14.54,0c-4.6,0-9.42.26-13.86-1.07A25.06,25.06,0,0,1,38.31,92.28c-1.65-4.1-1.94-8.76-1.87-13.14a17.64,17.64,0,0,1,2.16-8.4A26.59,26.59,0,0,1,41.82,66a25.13,25.13,0,0,1,8.53-6.57,17.71,17.71,0,0,1,5.18-1.55A55.65,55.65,0,0,1,62,57.83H195.07a4.64,4.64,0,0,0,4.64-4.41V53a4.64,4.64,0,0,0-4.64-4.41H170V28.09h17.87c9.13,0,19.22.74,26,7.67A22.37,22.37,0,0,1,216.44,39,25.8,25.8,0,0,1,220.16,48a25.82,25.82,0,0,1,0,10.41,25.81,25.81,0,0,1-9.41,15.06c-5.66,4.38-12,4.9-18.94,4.89L65.56,78.21a13.53,13.53,0,0,0-5.94.89C57.8,80,56.34,82,56.78,83.94c.66,3,4.57,3.63,7.62,3.63h152c5.49,0,11-.08,16.48,0,5.75.12,11.66-.81,17.17,1.24a23.57,23.57,0,0,1,11.19,8.85,27.43,27.43,0,0,1,4.63,15,26.1,26.1,0,0,1-8.71,19.5,27.65,27.65,0,0,1-6,4c-2.95,1.51-6.24,1.57-9.49,1.57H61.23A4.63,4.63,0,0,0,57,141.67v.78A4.65,4.65,0,0,0,60.89,147h93.22c12.89,0,25.79,0,38.68.11,5.43.06,11.13.27,16.16,2.53,5.64,2.52,9.13,7.57,11.21,13.23a26.83,26.83,0,0,1-9.48,31c-4.72,3.35-10.4,3.48-16,3.45-15.67,0-31.34-.11-47-.11H81.11V176.78h114.2a4.64,4.64,0,0,0,4.4-4.64v-.26a4.65,4.65,0,0,0-4.38-4.4H110q-19.62,0-39.25.23c-7.89.08-17,1.36-23.87-3.44a27.13,27.13,0,0,1-10.33-14.52,26.14,26.14,0,0,1,0-14.6Z"/><path class="cls-2" d="M229.35,135.15c-3.39-11.66-13.27-17.93-25-18-11.59,0-23.16.1-34.77.1H26.18a4.65,4.65,0,0,1,0-9.29H183q7.28,0,14.55,0c4.59,0,9.41.26,13.86-1.07a25.07,25.07,0,0,0,16.12-14.68c1.65-4.1,2-8.76,1.87-13.14a17.42,17.42,0,0,0-2.16-8.4A26,26,0,0,0,224,66a25.07,25.07,0,0,0-8.54-6.57,17.73,17.73,0,0,0-5.17-1.55,55.7,55.7,0,0,0-6.46-.07H70.78a4.65,4.65,0,0,1-4.64-4.41V53a4.65,4.65,0,0,1,4.64-4.41h25.1V28.09H78c-9.12,0-19.21.74-26,7.67A23.05,23.05,0,0,0,49.41,39,25.78,25.78,0,0,0,45.7,48a25.64,25.64,0,0,0,9.4,25.47c5.66,4.38,12,4.9,18.94,4.89l126.25-.12a13.53,13.53,0,0,1,5.94.89c1.83.87,3.28,2.87,2.84,4.84-.66,3-4.57,3.63-7.62,3.63h-152c-5.49,0-11-.08-16.48,0-5.74.12-11.66-.81-17.16,1.24A23.55,23.55,0,0,0,4.63,97.7a27.43,27.43,0,0,0-4.63,15,26.1,26.1,0,0,0,8.71,19.5,27.9,27.9,0,0,0,6,4c2.95,1.51,6.25,1.57,9.49,1.57H204.63a4.62,4.62,0,0,1,4.27,3.92v.78A4.65,4.65,0,0,1,205,147H111.74c-12.89,0-25.78,0-38.68.11-5.42.06-11.13.27-16.16,2.53-5.63,2.52-9.12,7.57-11.2,13.23a26.84,26.84,0,0,0,9.47,31c4.72,3.35,10.4,3.48,16,3.45,15.67,0,31.34-.11,47-.11h66.57V176.78H70.55a4.65,4.65,0,0,1-4.41-4.64v-.26a4.65,4.65,0,0,1,4.38-4.4h85.37q19.62,0,39.25.23c7.89.08,17,1.36,23.87-3.44a27.15,27.15,0,0,0,10.34-14.52,26.38,26.38,0,0,0,0-14.6Z"/><path class="cls-2" d="M154.94,22a22,22,0,1,1-22-22A22,22,0,0,1,154.94,22Z"/></g></g></svg>