<svg width="32" height="38" viewBox="0 0 32 38" fill="none" xmlns="http://www.w3.org/2000/svg">
    <path d="M5.09155 31.4542V15.4416C5.09155 12.6104 6.21624 9.8952 8.21819 7.89325C10.2201 5.89129 12.9354 4.7666 15.7666 4.7666C18.5978 4.7666 21.313 5.89129 23.315 7.89325C25.3169 9.8952 26.4416 12.6104 26.4416 15.4416V31.4542M5.09155 31.4542H26.4416M5.09155 31.4542H1.5332M26.4416 31.4542H30M13.9874 36.7917H17.5458" stroke="white" stroke-width="2.08333" stroke-linecap="round" stroke-linejoin="round"/>
    <path d="M15.7665 4.7666C16.7491 4.7666 17.5456 3.97003 17.5456 2.98742C17.5456 2.00481 16.7491 1.20825 15.7665 1.20825C14.7839 1.20825 13.9873 2.00481 13.9873 2.98742C13.9873 3.97003 14.7839 4.7666 15.7665 4.7666Z" stroke="white" stroke-width="2.08333"/>
</svg>
