<svg width="35" height="29" viewBox="0 0 35 29" fill="none" xmlns="http://www.w3.org/2000/svg">
<path d="M8.5 10.1613C9.00753 10.1613 9.51128 10.1008 10.0106 9.98084C10.0036 10.1111 10 10.2366 10 10.3571C10 11.6833 10.3105 12.9253 10.9282 14.0766C9.53471 14.2958 8.35002 14.9645 7.39149 16.0714H5.53125C4.76591 16.0714 4.15735 15.8773 3.67475 15.5158C3.23811 15.1888 3 14.7101 3 13.9983C3 12.109 3.16185 10.7473 3.45788 9.87446C3.73623 9.05376 4.06878 8.81769 4.3705 8.78886C4.3864 8.79617 4.40631 8.8057 4.43069 8.81789C4.53027 8.86768 4.67421 8.94665 4.86633 9.05807C5.29009 9.30385 5.82632 9.54445 6.46665 9.7821C7.1426 10.033 7.82119 10.1613 8.5 10.1613ZM28 24.8086C28 25.9998 27.6538 26.8828 27.0083 27.5193C26.3581 28.1604 25.4826 28.5 24.3281 28.5H10.6719C9.51743 28.5 8.64188 28.1604 7.99169 27.5193C7.34621 26.8828 7 25.9998 7 24.8086C7 24.2474 7.01789 23.7002 7.05357 23.167C7.08869 22.6423 7.15921 22.0719 7.26609 21.4551C7.3723 20.8422 7.50563 20.278 7.66522 19.7614C7.82158 19.2554 8.03211 18.7605 8.2977 18.2766C8.55898 17.8005 8.85403 17.4035 9.18014 17.0803C9.49343 16.7697 9.88185 16.5156 10.3538 16.322C10.8002 16.1389 11.2996 16.0412 11.8581 16.0359C11.8727 16.0421 11.8939 16.0519 11.9224 16.0667C12.0099 16.112 12.1338 16.187 12.2985 16.2981C12.6409 16.5292 13.02 16.7874 13.4359 17.0727C13.9043 17.3942 14.5088 17.671 15.2329 17.9117C15.9797 18.1599 16.736 18.2852 17.5 18.2852C18.264 18.2852 19.0203 18.1599 19.7671 17.9117C20.4911 17.6711 21.0957 17.3942 21.5641 17.0727C21.98 16.7874 22.3591 16.5292 22.7015 16.2981C22.8662 16.187 22.9901 16.112 23.0776 16.0667C23.1061 16.0519 23.1273 16.0421 23.1419 16.0359C23.7004 16.0412 24.1998 16.1389 24.6462 16.322C25.1182 16.5156 25.5066 16.7697 25.8199 17.0803C26.146 17.4035 26.441 17.8005 26.7023 18.2766C26.9679 18.7605 27.1784 19.2554 27.3348 19.7614C27.4944 20.278 27.6277 20.8422 27.7339 21.4551C27.8408 22.0719 27.9113 22.6423 27.9464 23.167C27.9821 23.7002 28 24.2474 28 24.8086ZM11.8346 16.0271C11.8346 16.027 11.8357 16.0274 11.8382 16.0282C11.8359 16.0276 11.8347 16.0272 11.8346 16.0271ZM23.1654 16.0271C23.1655 16.0271 23.1643 16.0275 23.1618 16.0282C23.1641 16.0274 23.1653 16.0271 23.1654 16.0271ZM12 4.14286C12 5.15931 11.658 6.01048 10.9684 6.72469C10.2794 7.43831 9.46569 7.78571 8.5 7.78571C7.53431 7.78571 6.72059 7.43831 6.03158 6.72469C5.34199 6.01048 5 5.15931 5 4.14286C5 3.1264 5.34199 2.27523 6.03158 1.56102C6.72059 0.847407 7.53431 0.5 8.5 0.5C9.46569 0.5 10.2794 0.847407 10.9684 1.56103C11.658 2.27523 12 3.1264 12 4.14286ZM23 10.3571C23 11.9454 22.4627 13.2848 21.3825 14.4035C20.3029 15.5217 19.0178 16.0714 17.5 16.0714C15.9822 16.0714 14.6971 15.5217 13.6175 14.4035C12.5373 13.2848 12 11.9454 12 10.3571C12 8.76889 12.5373 7.42953 13.6175 6.31075C14.6971 5.19255 15.9822 4.64286 17.5 4.64286C19.0178 4.64286 20.3029 5.19255 21.3825 6.31075C22.4627 7.42953 23 8.76889 23 10.3571ZM32 13.9983C32 14.7101 31.7619 15.1888 31.3252 15.5158C30.8427 15.8773 30.2341 16.0714 29.4688 16.0714H27.6085C26.65 14.9645 25.4653 14.2958 24.0718 14.0766C24.6895 12.9253 25 11.6833 25 10.3571C25 10.2366 24.9964 10.1111 24.9894 9.98084C25.4887 10.1008 25.9925 10.1613 26.5 10.1613C27.1788 10.1613 27.8574 10.033 28.5333 9.7821C29.1737 9.54445 29.7099 9.30385 30.1337 9.05807C30.3258 8.94665 30.4697 8.86768 30.5693 8.81789C30.5937 8.8057 30.6136 8.79618 30.6295 8.78887C30.9312 8.8177 31.2638 9.05377 31.5421 9.87446C31.8382 10.7473 32 12.109 32 13.9983ZM30 4.14286C30 5.15931 29.658 6.01048 28.9684 6.72469C28.2794 7.43831 27.4657 7.78571 26.5 7.78571C25.5343 7.78571 24.7206 7.43831 24.0316 6.72469C23.342 6.01048 23 5.15931 23 4.14286C23 3.1264 23.342 2.27523 24.0316 1.56102C24.7206 0.847408 25.5343 0.5 26.5 0.5C27.4657 0.5 28.2794 0.847408 28.9684 1.56103C29.658 2.27523 30 3.1264 30 4.14286Z" stroke="white"/>
</svg>
