<svg
  width="40"
  height="40"
  viewBox="0 0 40 40"
  fill="none"
  xmlns="http://www.w3.org/2000/svg"
>
  <path
    fill-rule="evenodd"
    clip-rule="evenodd"
    d="M13 14C16.867 14 20 10.867 20 7C20 3.133 16.867 0 13 0C9.133 0 6 3.133 6 7C6 10.867 9.133 14 13 14ZM18 7C18 9.763 15.763 12 13 12C10.237 12 8 9.763 8 7C8 4.237 10.237 2 13 2C15.763 2 18 4.237 18 7Z"
    fill="#3540D8"
  />
  <path
    d="M2 21.333C2 20.861 2.258 20.341 2.946 19.777C3.633 19.213 4.638 18.704 5.834 18.279C8.222 17.429 11.108 17 13 17C14.892 17 17.778 17.428 20.166 18.279C20.502 18.399 20.822 18.524 21.125 18.656C21.745 18.184 22.408 17.766 23.107 17.409C22.3807 17.0068 21.6212 16.6675 20.837 16.395C18.227 15.465 15.113 15 13 15C10.887 15 7.773 15.465 5.163 16.395C3.859 16.859 2.615 17.462 1.678 18.231C0.74 18.999 0 20.03 0 21.333V27H16.153C16.259 26.314 16.418 25.646 16.627 25H2V21.333Z"
    fill="#3540D8"
  />
  <path
    fill-rule="evenodd"
    clip-rule="evenodd"
    d="M26 19C26 18.7348 26.1054 18.4804 26.2929 18.2929C26.4804 18.1054 26.7348 18 27 18H31C31.2652 18 31.5196 18.1054 31.7071 18.2929C31.8946 18.4804 32 18.7348 32 19C32 19.2652 31.8946 19.5196 31.7071 19.7071C31.5196 19.8946 31.2652 20 31 20H30V22.07C31.1583 22.2362 32.2561 22.6915 33.192 23.394L34.586 22L34.293 21.707C34.1108 21.5184 34.01 21.2658 34.0123 21.0036C34.0146 20.7414 34.1198 20.4906 34.3052 20.3052C34.4906 20.1198 34.7414 20.0146 35.0036 20.0123C35.2658 20.01 35.5184 20.1108 35.707 20.293L37.707 22.293C37.8892 22.4816 37.99 22.7342 37.9877 22.9964C37.9854 23.2586 37.8802 23.5094 37.6948 23.6948C37.5094 23.8802 37.2586 23.9854 36.9964 23.9877C36.7342 23.99 36.4816 23.8892 36.293 23.707L36 23.414L34.606 24.808C35.3085 25.7439 35.7638 26.8417 35.93 28H38V27C38 26.7348 38.1054 26.4804 38.2929 26.2929C38.4804 26.1054 38.7348 26 39 26C39.2652 26 39.5196 26.1054 39.7071 26.2929C39.8946 26.4804 40 26.7348 40 27V31C40 31.2652 39.8946 31.5196 39.7071 31.7071C39.5196 31.8946 39.2652 32 39 32C38.7348 32 38.4804 31.8946 38.2929 31.7071C38.1054 31.5196 38 31.2652 38 31V30H35.93C35.7985 30.9175 35.4851 31.7994 35.008 32.594L37 34.586L37.293 34.293C37.4816 34.1108 37.7342 34.01 37.9964 34.0123C38.2586 34.0146 38.5094 34.1198 38.6948 34.3052C38.8802 34.4906 38.9854 34.7414 38.9877 35.0036C38.99 35.2658 38.8892 35.5184 38.707 35.707L36.707 37.707C36.5184 37.8892 36.2658 37.99 36.0036 37.9877C35.7414 37.9854 35.4906 37.8802 35.3052 37.6948C35.1198 37.5094 35.0146 37.2586 35.0123 36.9964C35.01 36.7342 35.1108 36.4816 35.293 36.293L35.586 36L33.738 34.153C32.7004 35.1095 31.397 35.7288 30 35.929V38H31C31.2652 38 31.5196 38.1054 31.7071 38.2929C31.8946 38.4804 32 38.7348 32 39C32 39.2652 31.8946 39.5196 31.7071 39.7071C31.5196 39.8946 31.2652 40 31 40H27C26.7348 40 26.4804 39.8946 26.2929 39.7071C26.1054 39.5196 26 39.2652 26 39C26 38.7348 26.1054 38.4804 26.2929 38.2929C26.4804 38.1054 26.7348 38 27 38H28V35.93C26.8417 35.7638 25.7439 35.3085 24.808 34.606L23.414 36L23.707 36.293C23.8892 36.4816 23.99 36.7342 23.9877 36.9964C23.9854 37.2586 23.8802 37.5094 23.6948 37.6948C23.5094 37.8802 23.2586 37.9854 22.9964 37.9877C22.7342 37.99 22.4816 37.8892 22.293 37.707L20.293 35.707C20.1108 35.5184 20.01 35.2658 20.0123 35.0036C20.0146 34.7414 20.1198 34.4906 20.3052 34.3052C20.4906 34.1198 20.7414 34.0146 21.0036 34.0123C21.2658 34.01 21.5184 34.1108 21.707 34.293L22 34.586L23.394 33.192C22.6915 32.2561 22.2362 31.1583 22.07 30H20V31C20 31.2652 19.8946 31.5196 19.7071 31.7071C19.5196 31.8946 19.2652 32 19 32C18.7348 32 18.4804 31.8946 18.2929 31.7071C18.1054 31.5196 18 31.2652 18 31V27C18 26.7348 18.1054 26.4804 18.2929 26.2929C18.4804 26.1054 18.7348 26 19 26C19.2652 26 19.5196 26.1054 19.7071 26.2929C19.8946 26.4804 20 26.7348 20 27V28H22.07C22.2362 26.8417 22.6915 25.7439 23.394 24.808L22 23.414L21.707 23.707C21.5184 23.8892 21.2658 23.99 21.0036 23.9877C20.7414 23.9854 20.4906 23.8802 20.3052 23.6948C20.1198 23.5094 20.0146 23.2586 20.0123 22.9964C20.01 22.7342 20.1108 22.4816 20.293 22.293L22.293 20.293C22.4816 20.1108 22.7342 20.01 22.9964 20.0123C23.2586 20.0146 23.5094 20.1198 23.6948 20.3052C23.8802 20.4906 23.9854 20.7414 23.9877 21.0036C23.99 21.2658 23.8892 21.5184 23.707 21.707L23.414 22L24.808 23.394C25.7439 22.6915 26.8417 22.2362 28 22.07V20H27C26.7348 20 26.4804 19.8946 26.2929 19.7071C26.1054 19.5196 26 19.2652 26 19ZM24 29C24 30.3261 24.5268 31.5979 25.4645 32.5355C26.4021 33.4732 27.6739 34 29 34C30.3261 34 31.5979 33.4732 32.5355 32.5355C33.4732 31.5979 34 30.3261 34 29C34 27.6739 33.4732 26.4021 32.5355 25.4645C31.5979 24.5268 30.3261 24 29 24C27.6739 24 26.4021 24.5268 25.4645 25.4645C24.5268 26.4021 24 27.6739 24 29Z"
    fill="#3540D8"
  />
</svg>
