<svg width="38" height="38" viewBox="0 0 38 38" fill="none" xmlns="http://www.w3.org/2000/svg">
<path d="M30.5744 7.4273C29.7657 6.61822 28.8055 5.97641 27.7487 5.53852C26.6919 5.10063 25.5592 4.87524 24.4153 4.87524C23.2713 4.87524 22.1386 5.10063 21.0818 5.53852C20.025 5.97641 19.0648 6.61822 18.2561 7.4273L7.42608 18.2573C6.20762 19.4752 5.37777 21.0271 5.04151 22.7168C4.70526 24.4064 4.87772 26.1578 5.53707 27.7494C6.19642 29.341 7.31304 30.7013 8.74565 31.6581C10.1783 32.6149 11.8625 33.1254 13.5853 33.1248C15.8943 33.1214 18.1083 32.2051 19.7444 30.5756L30.5744 19.7456C31.3835 18.9369 32.0253 17.9768 32.4632 16.9199C32.9011 15.8631 33.1265 14.7304 33.1265 13.5865C33.1265 12.4425 32.9011 11.3098 32.4632 10.253C32.0253 9.19618 31.3835 8.236 30.5744 7.4273ZM29.4503 18.6215L24.0353 24.0365L13.9653 13.9665L19.3802 8.54988C20.3757 7.55564 21.6433 6.87837 23.0231 6.60346C24.4029 6.32855 25.8332 6.4683 27.1337 7.0051C28.4342 7.5419 29.5467 8.45171 30.3309 9.61984C31.1151 10.788 31.5359 12.1621 31.5403 13.5691C31.548 14.5083 31.367 15.4394 31.0079 16.3073C30.6489 17.1753 30.1192 17.9622 29.4503 18.6215Z" fill="black"/>
</svg>
