<svg width="32" height="36" viewBox="0 0 32 36" fill="none" xmlns="http://www.w3.org/2000/svg">
<path d="M31 29.5983C31 31.2047 30.5212 32.3618 29.6504 33.193C28.7663 34.0369 27.5624 34.5 25.9318 34.5H6.06818C4.43762 34.5 3.23366 34.0369 2.34956 33.193C1.47879 32.3618 1 31.2047 1 29.5983C1 28.8151 1.02579 28.052 1.07717 27.3089C1.12733 26.5832 1.22828 25.7915 1.38208 24.9324C1.53442 24.0814 1.72521 23.3005 1.95265 22.5879C2.17327 21.8967 2.47076 21.2193 2.84719 20.5554C3.21453 19.9074 3.6267 19.3718 4.07876 18.938C4.50517 18.5288 5.03924 18.1886 5.69859 17.9268C6.30091 17.6876 6.97849 17.5554 7.74187 17.5427C7.75133 17.5472 7.76184 17.5523 7.77345 17.5581C7.88788 17.6155 8.05853 17.715 8.29403 17.8688C8.79149 18.1937 9.34234 18.5569 9.94671 18.9583C10.6558 19.4293 11.5596 19.8281 12.6255 20.171C13.7362 20.5283 14.8621 20.709 16 20.709C17.1379 20.709 18.2638 20.5283 19.3745 20.171C20.4404 19.8281 21.3442 19.4293 22.0533 18.9583C22.6577 18.5569 23.2085 18.1937 23.706 17.8688C23.9415 17.715 24.1121 17.6155 24.2266 17.5581C24.2382 17.5523 24.2487 17.5472 24.2581 17.5427C25.0215 17.5554 25.6991 17.6876 26.3014 17.9268C26.9608 18.1886 27.4948 18.5288 27.9212 18.938C28.3733 19.3718 28.7855 19.9074 29.1528 20.5554C29.5292 21.2193 29.8267 21.8967 30.0473 22.5879C30.2748 23.3005 30.4656 24.0814 30.6179 24.9324C30.7717 25.7915 30.8727 26.5832 30.9228 27.3089C30.9742 28.052 31 28.8151 31 29.5983ZM23.7273 9.25C23.7273 11.4008 22.9799 13.209 21.4624 14.7303C19.9451 16.2516 18.1428 17 16 17C13.8572 17 12.0549 16.2516 10.5376 14.7303C9.02014 13.209 8.27273 11.4008 8.27273 9.25C8.27273 7.0992 9.02014 5.29104 10.5376 3.76966C12.0549 2.24837 13.8572 1.5 16 1.5C18.1428 1.5 19.9451 2.24837 21.4624 3.76966C22.9799 5.29105 23.7273 7.0992 23.7273 9.25Z" stroke="white" stroke-width="2"/>
</svg>
