<svg width="35" height="31" viewBox="0 0 35 31" fill="none" xmlns="http://www.w3.org/2000/svg">
<path d="M12.1092 4.04065H9.11443C8.32016 4.04065 7.55842 4.38536 6.99679 4.99894C6.43515 5.61253 6.11963 6.44473 6.11963 7.31247V26.9434C6.11963 27.8111 6.43515 28.6433 6.99679 29.2569C7.55842 29.8705 8.32016 30.2152 9.11443 30.2152H16.3618" stroke="white" stroke-linecap="round" stroke-linejoin="round"/>
<path d="M22.8903 4.04065H25.8851C26.6794 4.04065 27.4411 4.38536 28.0027 4.99894C28.5644 5.61253 28.8799 6.44473 28.8799 7.31247V26.9434C28.8799 27.8111 28.5644 28.6433 28.0027 29.2569C27.4411 29.8705 26.6794 30.2152 25.8851 30.2152H15.7926" stroke="white" stroke-linecap="round" stroke-linejoin="round"/>
<path d="M12.4414 13.4294H20.9991M12.4414 19.7517H18.7638M12.4414 3.94585C12.4414 3.10745 12.7745 2.30339 13.3673 1.71056C13.9601 1.11772 14.7642 0.784668 15.6026 0.784668H18.7638C19.6022 0.784668 20.4062 1.11772 20.9991 1.71056C21.5919 2.30339 21.9249 3.10745 21.9249 3.94585C21.9249 4.78424 21.5919 5.5883 20.9991 6.18114C20.4062 6.77397 19.6022 7.10703 18.7638 7.10703H15.6026C14.7642 7.10703 13.9601 6.77397 13.3673 6.18114C12.7745 5.5883 12.4414 4.78424 12.4414 3.94585Z" stroke="white" stroke-linecap="round" stroke-linejoin="round"/>
</svg>
