<svg width="48" height="43" viewBox="0 0 48 43" fill="none" xmlns="http://www.w3.org/2000/svg">
<path d="M7.53 11.7381C9.33162 8.48953 11.9991 5.77666 15.2504 3.88644C18.5017 1.99622 22.2158 0.998911 26 1C37.598 1 47 10.1781 47 21.5C47 32.8219 37.598 42 26 42C21.8391 42.0003 17.7719 40.7943 14.3141 38.535C10.8564 36.2756 8.16383 33.0647 6.578 29.3095M6.578 29.3095H36M6.578 29.3095H0M4 23.4524H23V21.5C23 19.9466 22.3679 18.4568 21.2426 17.3584C20.1174 16.2599 18.5913 15.6429 17 15.6429C15.92 15.6429 7.616 16.496 0.2 17.2829M27 20.3286C27 20.3286 29 23.4524 31.5 23.4524C32.4283 23.4524 33.3185 23.0924 33.9749 22.4517C34.6312 21.8109 35 20.9419 35 20.0357C35 18.1497 33.432 16.6269 31.5 16.6269C29 16.6269 27 19.7429 27 19.7429V20.3286Z" stroke="black" stroke-width="1.04167"/>
</svg>
