<svg width="36" height="36" viewBox="0 0 36 36" fill="none" xmlns="http://www.w3.org/2000/svg">
<path fill-rule="evenodd" clip-rule="evenodd" d="M25.7851 23.2172L35.4687 32.901C35.8091 33.2416 36.0002 33.7035 36 34.185C35.9998 34.6666 35.8084 35.1283 35.4678 35.4687C35.1272 35.809 34.6653 36.0002 34.1838 36C33.7023 35.9998 33.2406 35.8084 32.9002 35.4678L23.2167 25.784C20.3219 28.0262 16.6817 29.0813 13.0366 28.7348C9.39146 28.3882 6.01528 26.666 3.59484 23.9185C1.1744 21.171 -0.108472 17.6046 0.00719305 13.9448C0.122858 10.285 1.62838 6.80674 4.21747 4.21758C6.80657 1.62842 10.2848 0.122861 13.9445 0.00719323C17.6042 -0.108475 21.1705 1.17443 23.9179 3.59493C26.6653 6.01543 28.3875 9.39169 28.734 13.0369C29.0806 16.6821 28.0255 20.3224 25.7833 23.2172H25.7851ZM14.4007 25.199C17.2649 25.199 20.0118 24.0612 22.0371 22.0358C24.0624 20.0105 25.2002 17.2635 25.2002 14.3992C25.2002 11.535 24.0624 8.78799 22.0371 6.76264C20.0118 4.73729 17.2649 3.59946 14.4007 3.59946C11.5365 3.59946 8.78957 4.73729 6.76427 6.76264C4.73897 8.78799 3.60117 11.535 3.60117 14.3992C3.60117 17.2635 4.73897 20.0105 6.76427 22.0358C8.78957 24.0612 11.5365 25.199 14.4007 25.199Z" fill="#161B59"/>
</svg>
