<svg width="26" height="27" viewBox="0 0 26 27" fill="none" xmlns="http://www.w3.org/2000/svg">
<path d="M4.66666 13.4444H21.3333V10.6667H4.66666V13.4444ZM0.5 26.3889V2.77778C0.5 2.01389 0.772223 1.35972 1.31667 0.81528C1.86111 0.270835 2.51481 -0.000923568 3.27778 2.35805e-06H22.7222C23.4861 2.35805e-06 24.1403 0.272225 24.6847 0.816669C25.2292 1.36111 25.5009 2.01482 25.5 2.77778V12.0486C25.0602 11.8403 24.6088 11.6667 24.1458 11.5278C23.6829 11.3889 23.2083 11.2847 22.7222 11.2153V2.77778H3.27778V22.2917H13C13 23.0127 13 23.1643 13 24.2274C13 24.9207 13 24.4079 13 25.7375V26.3889L10.9167 24.3056L8.83333 26.3889L6.75 24.3056L4.66666 26.3889L2.58333 24.3056L0.5 26.3889Z" fill="#3540D8"/>
<path d="M4.66666 7.99967H21.3333V5.2219H4.66666V7.99967Z" fill="#3540D8"/>
<path d="M4.66666 18.6663H21.3333V15.8886H4.66666V18.6663Z" fill="#3540D8"/>
<path d="M21.3333 13.4444H4.66667V10.6667H21.3333V13.4444ZM25.5 26.3889V2.77778C25.5 2.01389 25.2278 1.35972 24.6833 0.81528C24.1389 0.270835 23.4852 -0.000923568 22.7222 2.35805e-06H3.27778C2.5139 2.35805e-06 1.85973 0.272225 1.31529 0.816669C0.770842 1.36111 0.499079 2.01482 0.500004 2.77778V12.0486C0.939819 11.8403 1.39121 11.6667 1.85418 11.5278C2.31714 11.3889 2.79167 11.2847 3.27778 11.2153V2.77778H22.7222V22.2917H13C13 23.1112 13 23.5302 13 24.3056C13 25.081 13 25.2451 13 26.0823V26.3889L15.0833 24.3056L17.1667 26.3889L19.25 24.3056L21.3333 26.3889L23.4167 24.3056L25.5 26.3889Z" fill="#3540D8"/>
<path d="M21.3333 7.99967H4.66668V5.2219H21.3333V7.99967Z" fill="#3540D8"/>
<path d="M21.3333 18.6663H4.66668V15.8886H21.3333V18.6663Z" fill="#3540D8"/>
</svg>
