<svg width="39" height="40" viewBox="0 0 39 40" fill="none" xmlns="http://www.w3.org/2000/svg">
<path d="M19.5012 7.8844e-06C18.8414 -0.00148316 18.1984 0.208544 17.666 0.59944C17.1336 0.990336 16.7397 1.54164 16.5418 2.17291C16.3439 2.80418 16.3523 3.48236 16.5658 4.1085C16.7793 4.73464 17.1867 5.27597 17.7286 5.65348V8.14243C16.1332 8.37355 14.6442 8.88912 13.2971 9.67136L11.3295 6.84462C11.6662 5.92016 11.5776 4.85346 10.9749 4.00011C10.3545 3.12898 9.3973 2.66674 8.42236 2.66674C7.80194 2.66674 7.18153 2.84452 6.64974 3.23564C5.24938 4.21345 4.89485 6.15127 5.88752 7.55575C6.49021 8.42689 7.44742 8.88912 8.42236 8.88912L10.514 11.8759C9.75182 12.6403 9.14913 13.4937 8.63507 14.4359C8.28055 14.2937 7.9083 14.2226 7.53605 14.2226C6.73837 14.2226 5.9407 14.5248 5.32028 15.1115C4.13263 16.356 4.13263 18.3116 5.32028 19.5561C5.83434 20.0361 6.45476 20.3027 7.0929 20.445C7.0929 21.405 7.21698 22.3295 7.41197 23.2184L5.08984 23.8406C4.54033 23.3784 3.83128 23.1117 3.10451 23.1117C2.83862 23.1117 2.555 23.1117 2.28911 23.2184C1.49473 23.4355 0.818819 23.9601 0.409967 24.6768C0.00111465 25.3936 -0.107216 26.2438 0.108789 27.0407C0.481039 28.4452 1.77505 29.3341 3.10451 29.3341C3.3704 29.3341 3.6363 29.3341 3.91991 29.2274C4.93031 28.943 5.69253 28.1963 6.0116 27.2718L8.68825 26.5429C9.48593 27.9474 10.5495 29.1919 11.7903 30.223L9.84045 33.7786C8.86551 33.9209 7.97921 34.472 7.46515 35.4142C7.27194 35.7738 7.15123 36.168 7.10991 36.5743C7.0686 36.9806 7.10748 37.3911 7.22435 37.7824C7.34122 38.1736 7.53378 38.538 7.79104 38.8546C8.0483 39.1712 8.36522 39.4339 8.7237 39.6277C9.08219 39.8214 9.47522 39.9425 9.88036 39.984C10.2855 40.0254 10.6948 39.9864 11.0849 39.8692C11.475 39.752 11.8383 39.5588 12.154 39.3008C12.4697 39.0428 12.7316 38.725 12.9248 38.3654C13.4211 37.4409 13.4034 36.3743 12.9603 35.5031L14.857 32.0008C16.2928 32.5697 17.8527 32.8897 19.5012 32.8897H19.8203C19.5898 33.352 19.5012 33.8853 19.5012 34.4542C19.643 36.0898 20.9902 37.3343 22.6033 37.3343H22.8337C24.5532 37.1921 25.8295 35.6987 25.7054 33.992C25.6345 33.1031 25.1913 32.3208 24.5532 31.8053C25.3863 31.4319 26.184 30.9519 26.9285 30.4008L31.0764 34.5609C30.8991 35.5565 31.1828 36.5698 31.9095 37.3343C32.5299 37.921 33.3276 38.2232 34.1253 38.2232C34.923 38.2232 35.7206 37.921 36.3411 37.3343C37.5287 36.0898 37.5287 34.1342 36.3411 32.8897C35.7206 32.303 34.923 32.0008 34.1253 32.0008C33.948 32.0008 33.7708 32.0008 33.5758 32.0541L29.4279 27.894C30.2964 26.7385 30.97 25.4229 31.3955 24.0006H33.3631C33.7395 24.5441 34.2792 24.9527 34.9035 25.1669C35.5278 25.381 36.204 25.3894 36.8335 25.1909C37.4629 24.9924 38.0126 24.5973 38.4023 24.0634C38.7921 23.5294 39.0015 22.8845 39 22.2228C39.0015 21.561 38.7921 20.9161 38.4023 20.3822C38.0126 19.8482 37.4629 19.4532 36.8335 19.2547C36.204 19.0562 35.5278 19.0646 34.9035 19.2787C34.2792 19.4928 33.7395 19.9015 33.3631 20.445H31.9095C31.9095 17.6538 31.0232 15.1115 29.4279 12.9959L31.8032 10.6136C31.9982 10.6669 32.1754 10.6669 32.3527 10.6669C33.1504 10.6669 33.948 10.3647 34.5684 9.77803C35.7561 8.55133 35.7561 6.57795 34.5684 5.33348C33.948 4.74679 33.1504 4.44456 32.3527 4.44456C31.555 4.44456 30.7573 4.74679 30.1369 5.33348C29.4101 6.09794 29.1265 7.1113 29.3038 8.10688L26.9285 10.4892C25.2977 9.26246 23.3832 8.44466 21.2738 8.14243V5.65348C21.8157 5.27597 22.2232 4.73464 22.4367 4.1085C22.6502 3.48236 22.6586 2.80418 22.4606 2.17291C22.2627 1.54164 21.8688 0.990336 21.3364 0.59944C20.804 0.208544 20.161 -0.00148316 19.5012 7.8844e-06ZM19.5012 29.3341C14.6088 29.3341 10.6381 25.3518 10.6381 20.445C10.6381 15.5382 14.6088 11.5559 19.5012 11.5559C24.3936 11.5559 28.3643 15.5382 28.3643 20.445C28.3643 25.3518 24.3936 29.3341 19.5012 29.3341ZM16.8423 15.1115C15.371 15.1115 14.1834 16.3026 14.1834 17.7782C14.1834 19.2538 15.371 20.445 16.8423 20.445C18.3136 20.445 19.5012 19.2538 19.5012 17.7782C19.5012 16.3026 18.3136 15.1115 16.8423 15.1115ZM23.0464 22.2228C22.0715 22.2228 21.2738 23.0228 21.2738 24.0006C21.2738 24.9784 22.0715 25.7784 23.0464 25.7784C24.0214 25.7784 24.8191 24.9784 24.8191 24.0006C24.8191 23.0228 24.0214 22.2228 23.0464 22.2228Z" fill="#3540D8"/>
</svg>
